# Blender 3.6.5
# www.blender.org
o Bottle
v 0.004734 0.356573 0.002207
v -0.029777 0.353174 0.002207
v -0.062961 0.343108 0.002207
v -0.093544 0.326761 0.002207
v -0.120350 0.304762 0.002207
v -0.142349 0.277956 0.002207
v -0.158696 0.247373 0.002207
v -0.168762 0.214189 0.002207
v -0.172161 0.179678 0.002207
v -0.168762 0.145168 0.002207
v -0.158696 0.111983 0.002207
v -0.142349 0.081401 0.002207
v -0.120350 0.054595 0.002207
v -0.093544 0.032596 0.002207
v -0.062961 0.016249 0.002207
v -0.029777 0.006182 0.002207
v 0.004734 0.002783 0.002207
v 0.039245 0.006182 0.002207
v 0.072429 0.016249 0.002207
v 0.103012 0.032596 0.002207
v 0.129818 0.054595 0.002207
v 0.151817 0.081401 0.002207
v 0.168164 0.111983 0.002207
v 0.178230 0.145168 0.002207
v 0.181629 0.179678 0.002207
v 0.178230 0.214189 0.002207
v 0.168164 0.247373 0.002207
v 0.151817 0.277956 0.002207
v 0.129818 0.304762 0.002207
v 0.103012 0.326761 0.002207
v 0.072429 0.343108 0.002207
v 0.039245 0.353174 0.002207
v 0.004734 0.356573 -0.583487
v -0.029777 0.353174 -0.583487
v -0.062961 0.343108 -0.583487
v -0.093544 0.326761 -0.583487
v -0.120350 0.304762 -0.583487
v -0.142349 0.277956 -0.583487
v -0.158696 0.247373 -0.583487
v -0.168762 0.214189 -0.583487
v -0.172161 0.179678 -0.583487
v -0.168762 0.145168 -0.583487
v -0.158696 0.111983 -0.583487
v -0.142349 0.081400 -0.583487
v -0.120350 0.054595 -0.583487
v -0.093544 0.032596 -0.583487
v -0.062961 0.016249 -0.583487
v -0.029777 0.006182 -0.583487
v 0.004734 0.002783 -0.583487
v 0.039245 0.006182 -0.583487
v 0.072429 0.016249 -0.583487
v 0.103012 0.032596 -0.583487
v 0.129818 0.054595 -0.583487
v 0.151817 0.081400 -0.583487
v 0.168164 0.111983 -0.583487
v 0.178230 0.145168 -0.583487
v 0.181629 0.179678 -0.583487
v 0.178230 0.214189 -0.583487
v 0.168164 0.247373 -0.583487
v 0.151817 0.277956 -0.583487
v 0.129818 0.304762 -0.583487
v 0.103012 0.326761 -0.583487
v 0.072429 0.343108 -0.583487
v 0.039245 0.353174 -0.583487
v 0.004734 0.280518 -0.660263
v -0.014939 0.278580 -0.660263
v -0.033856 0.272842 -0.660263
v -0.051289 0.263524 -0.660263
v -0.066570 0.250983 -0.660263
v -0.079111 0.235702 -0.660263
v -0.088430 0.218268 -0.660263
v -0.094168 0.199351 -0.660263
v -0.096106 0.179678 -0.660263
v -0.094168 0.160005 -0.660263
v -0.088430 0.141088 -0.660263
v -0.079111 0.123655 -0.660263
v -0.066570 0.108374 -0.660263
v -0.051289 0.095833 -0.660263
v -0.033856 0.086514 -0.660263
v -0.014939 0.080776 -0.660263
v 0.004734 0.078838 -0.660263
v 0.024407 0.080776 -0.660263
v 0.043324 0.086514 -0.660263
v 0.060758 0.095833 -0.660263
v 0.076038 0.108374 -0.660263
v 0.088579 0.123655 -0.660263
v 0.097898 0.141088 -0.660263
v 0.103636 0.160005 -0.660263
v 0.105574 0.179678 -0.660263
v 0.103636 0.199351 -0.660263
v 0.097898 0.218268 -0.660263
v 0.088579 0.235702 -0.660263
v 0.076038 0.250983 -0.660263
v 0.060758 0.263524 -0.660263
v 0.043324 0.272842 -0.660263
v 0.024407 0.278580 -0.660263
v 0.004734 0.280518 -0.660263
v -0.014939 0.278580 -0.660263
v -0.033856 0.272842 -0.660263
v -0.051289 0.263524 -0.660263
v -0.066570 0.250983 -0.660263
v -0.079111 0.235702 -0.660263
v -0.088430 0.218268 -0.660263
v -0.094168 0.199351 -0.660263
v -0.096106 0.179678 -0.660263
v -0.094168 0.160005 -0.660263
v -0.088430 0.141088 -0.660263
v -0.079111 0.123655 -0.660263
v -0.066570 0.108374 -0.660263
v -0.051289 0.095833 -0.660263
v -0.033856 0.086514 -0.660263
v -0.014939 0.080776 -0.660263
v 0.004734 0.078838 -0.660263
v 0.024407 0.080776 -0.660263
v 0.043324 0.086514 -0.660263
v 0.060758 0.095833 -0.660263
v 0.076038 0.108374 -0.660263
v 0.088579 0.123655 -0.660263
v 0.097898 0.141088 -0.660263
v 0.103636 0.160005 -0.660263
v 0.105574 0.179678 -0.660263
v 0.103636 0.199351 -0.660263
v 0.097898 0.218268 -0.660263
v 0.088579 0.235702 -0.660263
v 0.076038 0.250983 -0.660263
v 0.060758 0.263524 -0.660263
v 0.043324 0.272842 -0.660263
v 0.024407 0.278580 -0.660263
v 0.004734 0.278403 -0.879624
v -0.014526 0.276506 -0.879624
v -0.033046 0.270888 -0.879624
v -0.050114 0.261765 -0.879624
v -0.065075 0.249487 -0.879624
v -0.077353 0.234527 -0.879624
v -0.086476 0.217458 -0.879624
v -0.092094 0.198938 -0.879624
v -0.093991 0.179678 -0.879624
v -0.092094 0.160418 -0.879624
v -0.086476 0.141898 -0.879624
v -0.077353 0.124830 -0.879624
v -0.065075 0.109869 -0.879624
v -0.050114 0.097591 -0.879624
v -0.033046 0.088468 -0.879624
v -0.014526 0.082850 -0.879624
v 0.004734 0.080953 -0.879624
v 0.023994 0.082850 -0.879624
v 0.042514 0.088468 -0.879624
v 0.059582 0.097591 -0.879624
v 0.074543 0.109869 -0.879624
v 0.086821 0.124830 -0.879624
v 0.095944 0.141898 -0.879624
v 0.101562 0.160418 -0.879624
v 0.103459 0.179678 -0.879624
v 0.101562 0.198938 -0.879624
v 0.095944 0.217458 -0.879624
v 0.086821 0.234527 -0.879624
v 0.074543 0.249487 -0.879624
v 0.059582 0.261765 -0.879624
v 0.042514 0.270888 -0.879624
v 0.023994 0.276506 -0.879624
v 0.004734 0.282625 -0.663262
v -0.015350 0.280646 -0.663262
v -0.034662 0.274789 -0.663262
v -0.052460 0.265275 -0.663262
v -0.068060 0.252472 -0.663262
v -0.080863 0.236872 -0.663262
v -0.090376 0.219074 -0.663262
v -0.096234 0.199762 -0.663262
v -0.098213 0.179678 -0.663262
v -0.096234 0.159594 -0.663262
v -0.090376 0.140283 -0.663262
v -0.080863 0.122484 -0.663262
v -0.068060 0.106884 -0.663262
v -0.052460 0.094081 -0.663262
v -0.034662 0.084568 -0.663262
v -0.015350 0.078710 -0.663262
v 0.004734 0.076732 -0.663262
v 0.024818 0.078710 -0.663262
v 0.044130 0.084568 -0.663262
v 0.061928 0.094081 -0.663262
v 0.077528 0.106884 -0.663262
v 0.090331 0.122484 -0.663262
v 0.099844 0.140283 -0.663262
v 0.105702 0.159594 -0.663262
v 0.107681 0.179678 -0.663262
v 0.105702 0.199762 -0.663262
v 0.099844 0.219074 -0.663262
v 0.090331 0.236872 -0.663262
v 0.077528 0.252472 -0.663262
v 0.061928 0.265275 -0.663262
v 0.044130 0.274789 -0.663262
v 0.024818 0.280646 -0.663262
v 0.004734 0.280466 -0.887205
v -0.014929 0.278529 -0.887205
v -0.033836 0.272794 -0.887205
v -0.051260 0.263480 -0.887205
v -0.066533 0.250946 -0.887205
v -0.079068 0.235673 -0.887205
v -0.088381 0.218248 -0.887205
v -0.094116 0.199341 -0.887205
v -0.096053 0.179678 -0.887205
v -0.094116 0.160016 -0.887205
v -0.088381 0.141108 -0.887205
v -0.079068 0.123684 -0.887205
v -0.066533 0.108411 -0.887205
v -0.051260 0.095877 -0.887205
v -0.033836 0.086563 -0.887205
v -0.014929 0.080828 -0.887205
v 0.004734 0.078891 -0.887205
v 0.024397 0.080828 -0.887205
v 0.043304 0.086563 -0.887205
v 0.060729 0.095877 -0.887205
v 0.076001 0.108411 -0.887205
v 0.088536 0.123684 -0.887205
v 0.097849 0.141108 -0.887205
v 0.103585 0.160016 -0.887205
v 0.105522 0.179678 -0.887205
v 0.103585 0.199341 -0.887205
v 0.097849 0.218248 -0.887205
v 0.088536 0.235673 -0.887205
v 0.076001 0.250946 -0.887205
v 0.060729 0.263480 -0.887205
v 0.043304 0.272794 -0.887205
v 0.024397 0.278529 -0.887205
vn -0.0000 -0.0000 1.0000
vn -0.2719 -0.6564 -0.7038
vn -0.1386 -0.6968 -0.7038
vn 0.5556 -0.8315 -0.0000
vn 0.7071 -0.7071 -0.0000
vn -0.9239 0.3827 -0.0000
vn -0.9808 0.1951 -0.0000
vn 0.8315 -0.5556 -0.0000
vn -1.0000 -0.0000 -0.0000
vn 0.9239 -0.3827 -0.0000
vn -0.9808 -0.1951 -0.0000
vn 0.9808 -0.1951 -0.0000
vn -0.9239 -0.3827 -0.0000
vn 1.0000 -0.0000 -0.0000
vn -0.8315 -0.5556 -0.0000
vn 0.9808 0.1951 -0.0000
vn -0.7071 -0.7071 -0.0000
vn 0.9239 0.3827 -0.0000
vn -0.5556 -0.8315 -0.0000
vn 0.8315 0.5556 -0.0000
vn -0.3827 -0.9239 -0.0000
vn -0.0000 1.0000 -0.0000
vn -0.1951 0.9808 -0.0000
vn 0.7071 0.7071 -0.0000
vn -0.1951 -0.9808 -0.0000
vn -0.3827 0.9239 -0.0000
vn 0.5556 0.8315 -0.0000
vn -0.0000 -1.0000 -0.0000
vn -0.5556 0.8315 -0.0000
vn 0.3827 0.9239 -0.0000
vn 0.1951 -0.9808 -0.0000
vn -0.7071 0.7071 -0.0000
vn 0.1951 0.9808 -0.0000
vn 0.3827 -0.9239 -0.0000
vn -0.8315 0.5556 -0.0000
vn -0.1386 0.6968 -0.7038
vn -0.2719 0.6564 -0.7038
vn 0.3947 0.5907 -0.7038
vn 0.5024 0.5024 -0.7038
vn -0.0000 -0.7104 -0.7038
vn -0.3947 0.5907 -0.7038
vn 0.2719 0.6564 -0.7038
vn 0.1386 -0.6968 -0.7038
vn -0.5024 0.5024 -0.7038
vn 0.1386 0.6968 -0.7038
vn 0.2719 -0.6564 -0.7038
vn -0.5907 0.3947 -0.7038
vn -0.0000 0.7104 -0.7038
vn 0.3947 -0.5907 -0.7038
vn -0.6564 0.2719 -0.7038
vn 0.5024 -0.5024 -0.7038
vn -0.6968 0.1386 -0.7038
vn 0.5907 -0.3947 -0.7038
vn -0.7104 -0.0000 -0.7038
vn 0.6564 -0.2719 -0.7038
vn -0.6968 -0.1386 -0.7038
vn 0.6968 -0.1386 -0.7038
vn -0.6564 -0.2719 -0.7038
vn 0.7104 -0.0000 -0.7038
vn -0.5907 -0.3947 -0.7038
vn 0.6968 0.1386 -0.7038
vn -0.5024 -0.5024 -0.7038
vn 0.6564 0.2719 -0.7038
vn -0.3947 -0.5907 -0.7038
vn 0.5907 0.3947 -0.7038
vn 0.1951 -0.9807 -0.0096
vn 0.3827 -0.9238 -0.0096
vn -0.0000 -0.0000 -1.0000
vn -0.7071 0.7071 -0.0096
vn -0.8314 0.5555 -0.0096
vn 0.1951 0.9807 -0.0096
vn -0.0000 1.0000 -0.0096
vn 0.5555 -0.8314 -0.0096
vn 0.5556 -0.8314 -0.0096
vn -0.9238 0.3827 -0.0096
vn 0.7071 -0.7071 -0.0096
vn -0.9807 0.1951 -0.0096
vn 0.8314 -0.5555 -0.0096
vn 0.8314 -0.5556 -0.0096
vn -1.0000 -0.0000 -0.0096
vn 0.9238 -0.3827 -0.0096
vn -0.9807 -0.1951 -0.0096
vn 0.9807 -0.1951 -0.0096
vn -0.9238 -0.3827 -0.0096
vn 1.0000 -0.0000 -0.0096
vn -0.8314 -0.5555 -0.0096
vn -0.8314 -0.5556 -0.0096
vn 0.9807 0.1951 -0.0096
vn -0.7071 -0.7071 -0.0096
vn 0.9238 0.3827 -0.0096
vn -0.5555 -0.8314 -0.0096
vn -0.5556 -0.8314 -0.0096
vn 0.8314 0.5555 -0.0096
vn -0.3827 -0.9238 -0.0096
vn -0.1951 0.9807 -0.0096
vn 0.7071 0.7071 -0.0096
vn -0.1951 -0.9807 -0.0096
vn -0.3827 0.9238 -0.0096
vn 0.5555 0.8314 -0.0096
vn -0.0000 -1.0000 -0.0096
vn -0.5555 0.8314 -0.0096
vn 0.3827 0.9238 -0.0096
vn 0.0001 -0.0000 -1.0000
vn -0.0001 -0.0000 -1.0000
vt 0.000000 0.000000
s 1
f 17/1/1 25/1/1 1/1/1
f 47/1/2 80/1/3 48/1/3
f 20/1/4 53/1/5 21/1/5
f 7/1/6 40/1/7 8/1/7
f 21/1/5 54/1/8 22/1/8
f 8/1/7 41/1/9 9/1/9
f 22/1/8 55/1/10 23/1/10
f 9/1/9 42/1/11 10/1/11
f 23/1/10 56/1/12 24/1/12
f 10/1/11 43/1/13 11/1/13
f 24/1/12 57/1/14 25/1/14
f 11/1/13 44/1/15 12/1/15
f 25/1/14 58/1/16 26/1/16
f 12/1/15 45/1/17 13/1/17
f 26/1/16 59/1/18 27/1/18
f 13/1/17 46/1/19 14/1/19
f 27/1/18 60/1/20 28/1/20
f 14/1/19 47/1/21 15/1/21
f 1/1/22 34/1/23 2/1/23
f 28/1/20 61/1/24 29/1/24
f 15/1/21 48/1/25 16/1/25
f 2/1/23 35/1/26 3/1/26
f 29/1/24 62/1/27 30/1/27
f 16/1/25 49/1/28 17/1/28
f 3/1/26 36/1/29 4/1/29
f 30/1/27 63/1/30 31/1/30
f 17/1/28 50/1/31 18/1/31
f 4/1/29 37/1/32 5/1/32
f 31/1/30 64/1/33 32/1/33
f 18/1/31 51/1/34 19/1/34
f 5/1/32 38/1/35 6/1/35
f 32/1/33 33/1/22 1/1/22
f 19/1/34 52/1/4 20/1/4
f 6/1/35 39/1/6 7/1/6
f 34/1/36 67/1/37 35/1/37
f 62/1/38 93/1/39 94/1/38
f 49/1/40 80/1/3 81/1/40
f 36/1/41 67/1/37 68/1/41
f 62/1/38 95/1/42 63/1/42
f 49/1/40 82/1/43 50/1/43
f 36/1/41 69/1/44 37/1/44
f 64/1/45 95/1/42 96/1/45
f 50/1/43 83/1/46 51/1/46
f 37/1/44 70/1/47 38/1/47
f 64/1/45 65/1/48 33/1/48
f 51/1/46 84/1/49 52/1/49
f 38/1/47 71/1/50 39/1/50
f 53/1/51 84/1/49 85/1/51
f 40/1/52 71/1/50 72/1/52
f 53/1/51 86/1/53 54/1/53
f 40/1/52 73/1/54 41/1/54
f 54/1/53 87/1/55 55/1/55
f 42/1/56 73/1/54 74/1/56
f 56/1/57 87/1/55 88/1/57
f 42/1/56 75/1/58 43/1/58
f 56/1/57 89/1/59 57/1/59
f 44/1/60 75/1/58 76/1/60
f 58/1/61 89/1/59 90/1/61
f 45/1/62 76/1/60 77/1/62
f 58/1/61 91/1/63 59/1/63
f 45/1/62 78/1/64 46/1/64
f 60/1/65 91/1/63 92/1/65
f 47/1/2 78/1/64 79/1/2
f 34/1/36 65/1/48 66/1/36
f 60/1/65 93/1/39 61/1/39
f 114/1/66 147/1/67 115/1/67
f 147/1/68 139/1/68 131/1/68
f 101/1/69 134/1/70 102/1/70
f 128/1/71 129/1/72 97/1/72
f 115/1/67 148/1/73 116/1/74
f 103/1/75 134/1/70 135/1/75
f 116/1/74 149/1/76 117/1/76
f 103/1/75 136/1/77 104/1/77
f 117/1/76 150/1/78 118/1/79
f 104/1/77 137/1/80 105/1/80
f 118/1/79 151/1/81 119/1/81
f 105/1/80 138/1/82 106/1/82
f 119/1/81 152/1/83 120/1/83
f 106/1/82 139/1/84 107/1/84
f 120/1/83 153/1/85 121/1/85
f 107/1/84 140/1/86 108/1/87
f 121/1/85 154/1/88 122/1/88
f 108/1/87 141/1/89 109/1/89
f 122/1/88 155/1/90 123/1/90
f 109/1/89 142/1/91 110/1/92
f 123/1/90 156/1/93 124/1/93
f 110/1/92 143/1/94 111/1/94
f 97/1/72 130/1/95 98/1/95
f 124/1/93 157/1/96 125/1/96
f 112/1/97 143/1/94 144/1/97
f 98/1/95 131/1/98 99/1/98
f 125/1/96 158/1/99 126/1/99
f 112/1/97 145/1/100 113/1/100
f 99/1/98 132/1/101 100/1/101
f 126/1/99 159/1/102 127/1/102
f 113/1/100 146/1/66 114/1/66
f 101/1/69 132/1/101 133/1/69
f 127/1/102 160/1/71 128/1/71
f 178/1/66 211/1/67 179/1/67
f 211/1/68 203/1/68 195/1/68
f 165/1/69 198/1/70 166/1/70
f 192/1/71 193/1/72 161/1/72
f 179/1/67 212/1/73 180/1/73
f 167/1/75 198/1/70 199/1/75
f 180/1/73 213/1/76 181/1/76
f 167/1/75 200/1/77 168/1/77
f 181/1/76 214/1/78 182/1/78
f 168/1/77 201/1/80 169/1/80
f 182/1/78 215/1/81 183/1/81
f 169/1/80 202/1/82 170/1/82
f 183/1/81 216/1/83 184/1/83
f 170/1/82 203/1/84 171/1/84
f 184/1/83 217/1/85 185/1/85
f 171/1/84 204/1/86 172/1/86
f 186/1/88 217/1/85 218/1/88
f 172/1/86 205/1/89 173/1/89
f 187/1/90 218/1/88 219/1/90
f 173/1/89 206/1/91 174/1/91
f 187/1/90 220/1/93 188/1/93
f 174/1/91 207/1/94 175/1/94
f 162/1/95 193/1/72 194/1/95
f 188/1/93 221/1/96 189/1/96
f 175/1/94 208/1/97 176/1/97
f 163/1/98 194/1/95 195/1/98
f 189/1/96 222/1/99 190/1/99
f 176/1/97 209/1/100 177/1/100
f 163/1/98 196/1/101 164/1/101
f 190/1/99 223/1/102 191/1/102
f 177/1/100 210/1/66 178/1/66
f 164/1/101 197/1/69 165/1/69
f 191/1/102 224/1/71 192/1/71
f 1/1/1 2/1/1 3/1/1
f 3/1/1 4/1/1 5/1/1
f 5/1/1 6/1/1 7/1/1
f 7/1/1 8/1/1 9/1/1
f 9/1/1 10/1/1 11/1/1
f 11/1/1 12/1/1 13/1/1
f 13/1/1 14/1/1 15/1/1
f 15/1/1 16/1/1 17/1/1
f 17/1/1 18/1/1 19/1/1
f 19/1/1 20/1/1 21/1/1
f 21/1/1 22/1/1 23/1/1
f 23/1/1 24/1/1 25/1/1
f 25/1/1 26/1/1 27/1/1
f 27/1/1 28/1/1 29/1/1
f 29/1/1 30/1/1 31/1/1
f 31/1/1 32/1/1 1/1/1
f 1/1/1 3/1/1 5/1/1
f 5/1/1 7/1/1 9/1/1
f 9/1/1 11/1/1 13/1/1
f 13/1/1 15/1/1 17/1/1
f 17/1/1 19/1/1 21/1/1
f 21/1/1 23/1/1 25/1/1
f 25/1/1 27/1/1 29/1/1
f 29/1/1 31/1/1 1/1/1
f 1/1/1 5/1/1 9/1/1
f 9/1/1 13/1/1 17/1/1
f 17/1/1 21/1/1 25/1/1
f 25/1/1 29/1/1 1/1/1
f 1/1/1 9/1/1 17/1/1
f 47/1/2 79/1/2 80/1/3
f 20/1/4 52/1/4 53/1/5
f 7/1/6 39/1/6 40/1/7
f 21/1/5 53/1/5 54/1/8
f 8/1/7 40/1/7 41/1/9
f 22/1/8 54/1/8 55/1/10
f 9/1/9 41/1/9 42/1/11
f 23/1/10 55/1/10 56/1/12
f 10/1/11 42/1/11 43/1/13
f 24/1/12 56/1/12 57/1/14
f 11/1/13 43/1/13 44/1/15
f 25/1/14 57/1/14 58/1/16
f 12/1/15 44/1/15 45/1/17
f 26/1/16 58/1/16 59/1/18
f 13/1/17 45/1/17 46/1/19
f 27/1/18 59/1/18 60/1/20
f 14/1/19 46/1/19 47/1/21
f 1/1/22 33/1/22 34/1/23
f 28/1/20 60/1/20 61/1/24
f 15/1/21 47/1/21 48/1/25
f 2/1/23 34/1/23 35/1/26
f 29/1/24 61/1/24 62/1/27
f 16/1/25 48/1/25 49/1/28
f 3/1/26 35/1/26 36/1/29
f 30/1/27 62/1/27 63/1/30
f 17/1/28 49/1/28 50/1/31
f 4/1/29 36/1/29 37/1/32
f 31/1/30 63/1/30 64/1/33
f 18/1/31 50/1/31 51/1/34
f 5/1/32 37/1/32 38/1/35
f 32/1/33 64/1/33 33/1/22
f 19/1/34 51/1/34 52/1/4
f 6/1/35 38/1/35 39/1/6
f 34/1/36 66/1/36 67/1/37
f 62/1/38 61/1/39 93/1/39
f 49/1/40 48/1/3 80/1/3
f 36/1/41 35/1/37 67/1/37
f 62/1/38 94/1/38 95/1/42
f 49/1/40 81/1/40 82/1/43
f 36/1/41 68/1/41 69/1/44
f 64/1/45 63/1/42 95/1/42
f 50/1/43 82/1/43 83/1/46
f 37/1/44 69/1/44 70/1/47
f 64/1/45 96/1/45 65/1/48
f 51/1/46 83/1/46 84/1/49
f 38/1/47 70/1/47 71/1/50
f 53/1/51 52/1/49 84/1/49
f 40/1/52 39/1/50 71/1/50
f 53/1/51 85/1/51 86/1/53
f 40/1/52 72/1/52 73/1/54
f 54/1/53 86/1/53 87/1/55
f 42/1/56 41/1/54 73/1/54
f 56/1/57 55/1/55 87/1/55
f 42/1/56 74/1/56 75/1/58
f 56/1/57 88/1/57 89/1/59
f 44/1/60 43/1/58 75/1/58
f 58/1/61 57/1/59 89/1/59
f 45/1/62 44/1/60 76/1/60
f 58/1/61 90/1/61 91/1/63
f 45/1/62 77/1/62 78/1/64
f 60/1/65 59/1/63 91/1/63
f 47/1/2 46/1/64 78/1/64
f 34/1/36 33/1/48 65/1/48
f 60/1/65 92/1/65 93/1/39
f 114/1/66 146/1/66 147/1/67
f 131/1/68 130/1/68 129/1/68
f 129/1/68 160/1/68 159/1/68
f 159/1/68 158/1/68 157/1/68
f 157/1/68 156/1/68 155/1/68
f 155/1/68 154/1/103 153/1/68
f 153/1/68 152/1/68 151/1/68
f 151/1/68 150/1/68 149/1/68
f 149/1/68 148/1/68 147/1/68
f 147/1/68 146/1/68 145/1/68
f 145/1/68 144/1/68 143/1/68
f 143/1/68 142/1/68 141/1/68
f 141/1/68 140/1/68 139/1/68
f 139/1/68 138/1/68 137/1/68
f 137/1/68 136/1/104 135/1/68
f 135/1/68 134/1/68 133/1/68
f 133/1/68 132/1/68 131/1/68
f 131/1/68 129/1/68 159/1/68
f 159/1/68 157/1/68 155/1/68
f 155/1/68 153/1/68 151/1/68
f 151/1/68 149/1/68 147/1/68
f 147/1/68 145/1/68 143/1/68
f 143/1/68 141/1/68 139/1/68
f 139/1/68 137/1/68 135/1/68
f 135/1/68 133/1/68 131/1/68
f 131/1/68 159/1/68 155/1/68
f 155/1/68 151/1/68 147/1/68
f 147/1/68 143/1/68 139/1/68
f 139/1/68 135/1/68 131/1/68
f 131/1/68 155/1/68 147/1/68
f 101/1/69 133/1/69 134/1/70
f 128/1/71 160/1/71 129/1/72
f 115/1/67 147/1/67 148/1/73
f 103/1/75 102/1/70 134/1/70
f 116/1/74 148/1/73 149/1/76
f 103/1/75 135/1/75 136/1/77
f 117/1/76 149/1/76 150/1/78
f 104/1/77 136/1/77 137/1/80
f 118/1/79 150/1/78 151/1/81
f 105/1/80 137/1/80 138/1/82
f 119/1/81 151/1/81 152/1/83
f 106/1/82 138/1/82 139/1/84
f 120/1/83 152/1/83 153/1/85
f 107/1/84 139/1/84 140/1/86
f 121/1/85 153/1/85 154/1/88
f 108/1/87 140/1/86 141/1/89
f 122/1/88 154/1/88 155/1/90
f 109/1/89 141/1/89 142/1/91
f 123/1/90 155/1/90 156/1/93
f 110/1/92 142/1/91 143/1/94
f 97/1/72 129/1/72 130/1/95
f 124/1/93 156/1/93 157/1/96
f 112/1/97 111/1/94 143/1/94
f 98/1/95 130/1/95 131/1/98
f 125/1/96 157/1/96 158/1/99
f 112/1/97 144/1/97 145/1/100
f 99/1/98 131/1/98 132/1/101
f 126/1/99 158/1/99 159/1/102
f 113/1/100 145/1/100 146/1/66
f 101/1/69 100/1/101 132/1/101
f 127/1/102 159/1/102 160/1/71
f 178/1/66 210/1/66 211/1/67
f 195/1/68 194/1/68 193/1/68
f 193/1/68 224/1/68 223/1/68
f 223/1/68 222/1/68 221/1/68
f 221/1/68 220/1/68 219/1/68
f 219/1/68 218/1/68 217/1/68
f 217/1/68 216/1/68 215/1/68
f 215/1/68 214/1/68 213/1/68
f 213/1/68 212/1/68 211/1/68
f 211/1/68 210/1/68 209/1/68
f 209/1/68 208/1/68 207/1/68
f 207/1/68 206/1/68 205/1/68
f 205/1/68 204/1/68 203/1/68
f 203/1/68 202/1/68 201/1/68
f 201/1/68 200/1/68 199/1/68
f 199/1/68 198/1/68 197/1/68
f 197/1/68 196/1/68 195/1/68
f 195/1/68 193/1/68 223/1/68
f 223/1/68 221/1/68 219/1/68
f 219/1/68 217/1/68 215/1/68
f 215/1/68 213/1/68 211/1/68
f 211/1/68 209/1/68 207/1/68
f 207/1/68 205/1/68 203/1/68
f 203/1/68 201/1/68 199/1/68
f 199/1/68 197/1/68 195/1/68
f 195/1/68 223/1/68 219/1/68
f 219/1/68 215/1/68 211/1/68
f 211/1/68 207/1/68 203/1/68
f 203/1/68 199/1/68 195/1/68
f 195/1/68 219/1/68 211/1/68
f 165/1/69 197/1/69 198/1/70
f 192/1/71 224/1/71 193/1/72
f 179/1/67 211/1/67 212/1/73
f 167/1/75 166/1/70 198/1/70
f 180/1/73 212/1/73 213/1/76
f 167/1/75 199/1/75 200/1/77
f 181/1/76 213/1/76 214/1/78
f 168/1/77 200/1/77 201/1/80
f 182/1/78 214/1/78 215/1/81
f 169/1/80 201/1/80 202/1/82
f 183/1/81 215/1/81 216/1/83
f 170/1/82 202/1/82 203/1/84
f 184/1/83 216/1/83 217/1/85
f 171/1/84 203/1/84 204/1/86
f 186/1/88 185/1/85 217/1/85
f 172/1/86 204/1/86 205/1/89
f 187/1/90 186/1/88 218/1/88
f 173/1/89 205/1/89 206/1/91
f 187/1/90 219/1/90 220/1/93
f 174/1/91 206/1/91 207/1/94
f 162/1/95 161/1/72 193/1/72
f 188/1/93 220/1/93 221/1/96
f 175/1/94 207/1/94 208/1/97
f 163/1/98 162/1/95 194/1/95
f 189/1/96 221/1/96 222/1/99
f 176/1/97 208/1/97 209/1/100
f 163/1/98 195/1/98 196/1/101
f 190/1/99 222/1/99 223/1/102
f 177/1/100 209/1/100 210/1/66
f 164/1/101 196/1/101 197/1/69
f 191/1/102 223/1/102 224/1/71
