# Blender 3.6.5
# www.blender.org
mtllib briefcase.mtl
o 24hTop
v 8.221438 6.497026 -11.529246
v 8.221438 6.541915 -11.558414
v 8.235518 6.497724 -11.527995
v 8.235518 6.542613 -11.557164
v 8.249056 6.499789 -11.524292
v 8.249056 6.544679 -11.553461
v 8.261533 6.503144 -11.518277
v 8.261533 6.548033 -11.547447
v 8.272470 6.507659 -11.510184
v 8.272470 6.552548 -11.539353
v 8.281445 6.513160 -11.500321
v 8.281445 6.558049 -11.529490
v 8.288114 6.519436 -11.489070
v 8.288114 6.564326 -11.518239
v 8.292220 6.526247 -11.476861
v 8.292220 6.571136 -11.506030
v 8.293607 6.533329 -11.464165
v 8.293607 6.578218 -11.493334
v 8.292220 6.540411 -11.451468
v 8.292220 6.585300 -11.480637
v 8.288114 6.547222 -11.439259
v 8.288114 6.592111 -11.468429
v 8.281445 6.553498 -11.428007
v 8.281445 6.598387 -11.457176
v 8.272470 6.558999 -11.418145
v 8.272470 6.603889 -11.447314
v 8.261533 6.563514 -11.410051
v 8.261533 6.608403 -11.439220
v 8.249056 6.566869 -11.404037
v 8.249056 6.611758 -11.433207
v 8.235518 6.568934 -11.400333
v 8.235518 6.613824 -11.429502
v 8.221438 6.569632 -11.399083
v 8.221438 6.614522 -11.428252
v 8.207359 6.568934 -11.400333
v 8.207359 6.613824 -11.429502
v 8.193821 6.566869 -11.404037
v 8.193821 6.611758 -11.433207
v 8.181344 6.563514 -11.410051
v 8.181344 6.608403 -11.439220
v 8.170407 6.558999 -11.418145
v 8.170407 6.603889 -11.447314
v 8.161432 6.553498 -11.428007
v 8.161432 6.598387 -11.457176
v 8.154763 6.547222 -11.439259
v 8.154763 6.592111 -11.468429
v 8.150657 6.540411 -11.451468
v 8.150657 6.585300 -11.480637
v 8.149270 6.533329 -11.464165
v 8.149270 6.578218 -11.493334
v 8.150657 6.526247 -11.476861
v 8.150657 6.571136 -11.506030
v 8.154763 6.519436 -11.489070
v 8.154763 6.564326 -11.518239
v 8.161432 6.513160 -11.500321
v 8.161432 6.558049 -11.529490
v 8.170407 6.507659 -11.510184
v 8.170407 6.552548 -11.539353
v 8.181344 6.503144 -11.518277
v 8.181344 6.548033 -11.547447
v 8.193821 6.499789 -11.524292
v 8.193821 6.544679 -11.553461
v 8.207359 6.497724 -11.527995
v 8.207359 6.542613 -11.557164
v 6.739833 6.546042 -11.486466
v 9.703044 6.546042 -11.486466
v 6.739833 6.095988 -12.293286
v 9.703044 6.095988 -12.293286
v 6.739833 6.016891 -12.317881
v 9.703044 6.016891 -12.317881
v 6.739833 5.507026 -11.997425
v 9.703044 5.507026 -11.997425
v 6.739833 5.311397 -11.870305
v 9.703044 5.311397 -11.870305
v 6.739833 5.244317 -11.756154
v 9.703044 5.244317 -11.756154
v 8.221438 6.603411 -11.383620
v 8.221438 6.095988 -12.293286
v 8.221438 6.016891 -12.317881
v 8.221438 5.507026 -11.997425
v 8.221438 5.311397 -11.870305
v 8.221438 5.244317 -11.756154
v 8.221438 6.510939 -11.525036
v 8.221438 6.538852 -11.543174
v 8.233414 6.511532 -11.523973
v 8.233414 6.539445 -11.542110
v 8.244929 6.513289 -11.520823
v 8.244929 6.541202 -11.538960
v 8.255542 6.516143 -11.515707
v 8.255542 6.544055 -11.533845
v 8.264844 6.519983 -11.508822
v 8.264844 6.547895 -11.526960
v 8.272477 6.524662 -11.500435
v 8.272477 6.552575 -11.518572
v 8.278150 6.530001 -11.490864
v 8.278150 6.557913 -11.509002
v 8.281643 6.535793 -11.480479
v 8.281643 6.563706 -11.498617
v 8.282823 6.541817 -11.469681
v 8.282823 6.569730 -11.487818
v 8.281643 6.547842 -11.458881
v 8.281643 6.575754 -11.477018
v 8.278150 6.553634 -11.448497
v 8.278150 6.581546 -11.466634
v 8.272477 6.558972 -11.438927
v 8.272477 6.586885 -11.457064
v 8.264844 6.563652 -11.430538
v 8.264844 6.591564 -11.448675
v 8.255542 6.567492 -11.423654
v 8.255542 6.595404 -11.441792
v 8.244929 6.570345 -11.418538
v 8.244929 6.598258 -11.436676
v 8.233414 6.572102 -11.415388
v 8.233414 6.600015 -11.433526
v 8.221438 6.572695 -11.414325
v 8.221438 6.600608 -11.432462
v 8.209463 6.572102 -11.415388
v 8.209463 6.600015 -11.433526
v 8.197948 6.570345 -11.418538
v 8.197948 6.598258 -11.436676
v 8.187335 6.567492 -11.423654
v 8.187335 6.595404 -11.441792
v 8.178033 6.563652 -11.430538
v 8.178033 6.591564 -11.448675
v 8.170400 6.558972 -11.438927
v 8.170400 6.586885 -11.457064
v 8.164727 6.553634 -11.448497
v 8.164727 6.581546 -11.466634
v 8.161234 6.547842 -11.458881
v 8.161234 6.575754 -11.477018
v 8.160054 6.541817 -11.469681
v 8.160054 6.569730 -11.487818
v 8.161234 6.535793 -11.480479
v 8.161234 6.563706 -11.498617
v 8.164727 6.530001 -11.490864
v 8.164727 6.557913 -11.509002
v 8.170400 6.524662 -11.500435
v 8.170400 6.552575 -11.518572
v 8.178033 6.519983 -11.508822
v 8.178033 6.547895 -11.526960
v 8.187335 6.516143 -11.515707
v 8.187335 6.544055 -11.533845
v 8.197948 6.513289 -11.520823
v 8.197948 6.541202 -11.538960
v 8.209463 6.511532 -11.523973
v 8.209463 6.539445 -11.542110
v 6.739833 6.533663 -11.478422
v 9.703044 6.533663 -11.478422
v 6.739833 6.087189 -12.280915
v 9.703044 6.087189 -12.280915
v 6.739833 6.018671 -12.302403
v 9.703044 6.018671 -12.302403
v 6.739833 5.514389 -11.984006
v 9.703044 5.514389 -11.984006
v 6.739833 5.321495 -11.859149
v 9.703044 5.321495 -11.859149
v 6.739833 5.256519 -11.747801
v 9.703044 5.256519 -11.747801
v 8.221438 6.591032 -11.375576
v 8.221438 6.087189 -12.280915
v 8.221438 6.018671 -12.302403
v 8.221438 5.514389 -11.984006
v 8.221438 5.321495 -11.859149
v 8.221438 5.256519 -11.747801
v 8.221438 3.270266 -11.765863
v 8.221438 5.366262 -11.680411
v 8.221438 3.270266 -10.784519
v 6.803868 3.270266 -11.765863
v 6.739833 3.332718 -11.765863
v 6.758589 3.288558 -11.765863
v 9.703044 3.332718 -11.765863
v 9.639009 3.270266 -11.765863
v 9.684288 3.288558 -11.765863
v 6.739833 3.332718 -10.784519
v 6.803868 3.270266 -10.784519
v 6.758589 3.288558 -10.784519
v 9.639009 3.270266 -10.784519
v 9.703044 3.332718 -10.784519
v 9.684288 3.288558 -10.784519
v 6.739833 5.310953 -11.765862
v 6.877725 5.366262 -11.680411
v 6.756444 5.350062 -11.765862
v 9.565152 5.366262 -11.680411
v 9.703044 5.310953 -11.765862
v 9.686433 5.350062 -11.765862
v 6.877725 5.366262 -10.869970
v 6.739833 5.310953 -10.784519
v 6.756444 5.350062 -10.784519
v 9.703044 5.310953 -10.784519
v 9.565152 5.366262 -10.869970
v 9.686433 5.350062 -10.784519
v 9.646332 5.366262 -11.765862
v 9.646332 5.366262 -10.784519
v 6.796545 5.366262 -10.784519
v 6.796545 5.366262 -11.765862
v 8.221438 5.366262 -11.765862
v 8.221438 3.536403 -11.680411
v 8.221438 3.536403 -10.869970
v 9.565152 3.536403 -11.680411
v 9.565152 3.536403 -10.869970
v 6.877725 3.536403 -10.869970
v 6.877725 3.536403 -11.680411
v 8.221439 3.275214 -10.790022
v 8.221439 4.453278 -9.148119
v 6.739834 3.309307 -10.737697
v 6.803869 3.275214 -10.790022
v 6.758589 3.285199 -10.774696
v 9.639009 3.275214 -10.790022
v 9.703045 3.309307 -10.737697
v 9.684289 3.285199 -10.774696
v 6.877726 4.453278 -9.148119
v 6.739834 4.351489 -9.147811
v 6.756444 4.372839 -9.115043
v 9.703045 4.351489 -9.147811
v 9.565153 4.453278 -9.148119
v 9.686434 4.372839 -9.115043
v 9.646332 4.381682 -9.101470
v 6.796546 4.381682 -9.101470
v 8.221439 4.381682 -9.101470
v 8.221439 3.372862 -10.788566
v 9.565153 3.372862 -10.788566
v 6.877726 3.372862 -10.788566
vn 0.1010 -0.5421 -0.8342
vn 0.2983 -0.5201 -0.8003
vn 0.4824 -0.4773 -0.7345
vn 0.6457 -0.4161 -0.6403
vn 0.7822 -0.3395 -0.5224
vn 0.8876 -0.2509 -0.3862
vn 0.9593 -0.1539 -0.2368
vn 0.9955 -0.0519 -0.0798
vn 0.9955 0.0519 0.0798
vn 0.9593 0.1539 0.2368
vn 0.8876 0.2509 0.3862
vn 0.7822 0.3395 0.5224
vn 0.6457 0.4161 0.6403
vn 0.4824 0.4773 0.7345
vn 0.2983 0.5201 0.8003
vn 0.1009 0.5421 0.8342
vn -0.1009 0.5421 0.8342
vn -0.2983 0.5201 0.8003
vn -0.4824 0.4773 0.7345
vn -0.6457 0.4161 0.6403
vn -0.7822 0.3395 0.5224
vn -0.8876 0.2509 0.3862
vn -0.9593 0.1539 0.2368
vn -0.9955 0.0519 0.0798
vn -0.9955 -0.0519 -0.0798
vn -0.9593 -0.1539 -0.2368
vn -0.8876 -0.2509 -0.3862
vn -0.7822 -0.3395 -0.5224
vn -0.6457 -0.4161 -0.6403
vn -0.4824 -0.4773 -0.7345
vn -0.0000 0.8733 -0.4871
vn -0.2983 -0.5201 -0.8003
vn -0.1010 -0.5421 -0.8342
vn -0.0000 -0.8733 0.4871
vn -0.0000 0.2969 -0.9549
vn -0.0000 -0.5321 -0.8467
vn -0.0000 -0.5449 -0.8385
vn -0.0000 -0.8622 -0.5066
vn -0.1010 0.5421 0.8342
vn 0.1010 0.5421 0.8342
vn -0.0000 -0.8738 0.4862
vn -0.0000 -0.2992 0.9542
vn -0.0000 0.5339 0.8456
vn -0.0000 0.5434 0.8395
vn -0.0000 0.8637 0.5040
vn -1.0000 -0.0000 -0.0000
vn 0.0791 0.5432 0.8359
vn 1.0000 -0.0000 -0.0000
vn -0.0000 -0.5649 0.8252
vn -0.0791 0.5432 0.8359
vn -0.0000 -0.0000 -1.0000
vn -0.0000 -1.0000 -0.0000
vn -0.0000 -0.0000 1.0000
vn 0.3746 -0.9272 -0.0000
vn 0.9204 -0.3909 -0.0000
vn -0.3746 -0.9272 -0.0000
vn -0.9204 -0.3909 -0.0000
vn 0.3746 0.9272 -0.0000
vn 0.9204 0.3909 -0.0000
vn -0.3746 0.9272 -0.0000
vn -0.9204 0.3909 -0.0000
vn -0.0000 1.0000 -0.0000
vn 0.5281 -0.0078 0.8492
vn -0.5281 -0.0078 0.8492
vn -0.0000 0.3034 0.9529
vn -0.0000 -0.8364 0.5481
vn -0.0000 0.5459 0.8378
vn -0.0000 0.8351 -0.5500
vn 0.5178 0.7192 -0.4633
vn -0.5178 0.7192 -0.4633
vn -0.0000 -0.0335 0.9994
vt 1.000000 0.500000
vt 1.000000 1.000000
vt 0.968750 1.000000
vt 0.968750 0.500000
vt 0.937500 1.000000
vt 0.937500 0.500000
vt 0.906250 1.000000
vt 0.906250 0.500000
vt 0.875000 1.000000
vt 0.875000 0.500000
vt 0.843750 1.000000
vt 0.843750 0.500000
vt 0.812500 1.000000
vt 0.812500 0.500000
vt 0.781250 1.000000
vt 0.781250 0.500000
vt 0.750000 1.000000
vt 0.750000 0.500000
vt 0.718750 1.000000
vt 0.718750 0.500000
vt 0.687500 1.000000
vt 0.687500 0.500000
vt 0.656250 1.000000
vt 0.656250 0.500000
vt 0.625000 1.000000
vt 0.625000 0.500000
vt 0.593750 1.000000
vt 0.593750 0.500000
vt 0.562500 1.000000
vt 0.562500 0.500000
vt 0.531250 1.000000
vt 0.531250 0.500000
vt 0.500000 1.000000
vt 0.500000 0.500000
vt 0.468750 1.000000
vt 0.468750 0.500000
vt 0.437500 1.000000
vt 0.437500 0.500000
vt 0.406250 1.000000
vt 0.406250 0.500000
vt 0.375000 1.000000
vt 0.375000 0.500000
vt 0.343750 1.000000
vt 0.343750 0.500000
vt 0.312500 1.000000
vt 0.312500 0.500000
vt 0.281250 1.000000
vt 0.281250 0.500000
vt 0.250000 1.000000
vt 0.250000 0.500000
vt 0.218750 1.000000
vt 0.218750 0.500000
vt 0.187500 1.000000
vt 0.187500 0.500000
vt 0.156250 1.000000
vt 0.156250 0.500000
vt 0.125000 1.000000
vt 0.125000 0.500000
vt 0.093750 1.000000
vt 0.093750 0.500000
vt 0.062500 1.000000
vt 0.062500 0.500000
vt 0.296822 0.485388
vt 0.250000 0.490000
vt 0.203178 0.485388
vt 0.158156 0.471731
vt 0.116663 0.449553
vt 0.080294 0.419706
vt 0.050447 0.383337
vt 0.028269 0.341844
vt 0.014612 0.296822
vt 0.010000 0.250000
vt 0.014612 0.203178
vt 0.028269 0.158156
vt 0.050447 0.116663
vt 0.080294 0.080294
vt 0.116663 0.050447
vt 0.158156 0.028269
vt 0.203178 0.014612
vt 0.250000 0.010000
vt 0.296822 0.014612
vt 0.341844 0.028269
vt 0.383337 0.050447
vt 0.419706 0.080294
vt 0.449553 0.116663
vt 0.471731 0.158156
vt 0.485388 0.203178
vt 0.490000 0.250000
vt 0.485388 0.296822
vt 0.471731 0.341844
vt 0.449553 0.383337
vt 0.419706 0.419706
vt 0.383337 0.449553
vt 0.341844 0.471731
vt 0.031250 1.000000
vt 0.031250 0.500000
vt 0.000000 1.000000
vt 0.000000 0.500000
vt 0.750000 0.490000
vt 0.796822 0.485388
vt 0.841844 0.471731
vt 0.883337 0.449553
vt 0.919706 0.419706
vt 0.949553 0.383337
vt 0.971731 0.341844
vt 0.985388 0.296822
vt 0.990000 0.250000
vt 0.985388 0.203178
vt 0.971731 0.158156
vt 0.949553 0.116663
vt 0.919706 0.080294
vt 0.883337 0.050447
vt 0.841844 0.028269
vt 0.796822 0.014612
vt 0.750000 0.010000
vt 0.703178 0.014612
vt 0.658156 0.028269
vt 0.616663 0.050447
vt 0.580294 0.080294
vt 0.550447 0.116663
vt 0.528269 0.158156
vt 0.514612 0.203178
vt 0.510000 0.250000
vt 0.514612 0.296822
vt 0.528269 0.341844
vt 0.550447 0.383337
vt 0.580294 0.419706
vt 0.616663 0.449553
vt 0.658156 0.471731
vt 0.703178 0.485388
vt 0.500000 0.000000
vt 1.000000 0.000000
vt 0.000000 0.000000
vt 0.980861 1.000000
vt 0.998132 0.997424
vt 1.000000 0.973612
vt 1.000000 0.029796
vt 0.997890 0.002909
vt 0.978390 0.000000
vt 0.021610 0.000000
vt 0.953465 1.000000
vt 1.000000 0.029796
vt 0.002110 0.002909
vt 0.000000 0.029796
vt 0.000000 0.029796
vt 0.000000 0.973612
vt 0.001868 0.997424
vt 0.019139 1.000000
vt 0.001868 0.997424
vt 0.046535 1.000000
s 0
usemtl Material.012
f 1/1/1 2/2/1 4/3/1 3/4/1
f 3/4/2 4/3/2 6/5/2 5/6/2
f 5/6/3 6/5/3 8/7/3 7/8/3
f 7/8/4 8/7/4 10/9/4 9/10/4
f 9/10/5 10/9/5 12/11/5 11/12/5
f 11/12/6 12/11/6 14/13/6 13/14/6
f 13/14/7 14/13/7 16/15/7 15/16/7
f 15/16/8 16/15/8 18/17/8 17/18/8
f 17/18/9 18/17/9 20/19/9 19/20/9
f 19/20/10 20/19/10 22/21/10 21/22/10
f 21/22/11 22/21/11 24/23/11 23/24/11
f 23/24/12 24/23/12 26/25/12 25/26/12
f 25/26/13 26/25/13 28/27/13 27/28/13
f 27/28/14 28/27/14 30/29/14 29/30/14
f 29/30/15 30/29/15 32/31/15 31/32/15
f 31/32/16 32/31/16 34/33/16 33/34/16
f 33/34/17 34/33/17 36/35/17 35/36/17
f 35/36/18 36/35/18 38/37/18 37/38/18
f 37/38/19 38/37/19 40/39/19 39/40/19
f 39/40/20 40/39/20 42/41/20 41/42/20
f 41/42/21 42/41/21 44/43/21 43/44/21
f 43/44/22 44/43/22 46/45/22 45/46/22
f 45/46/23 46/45/23 48/47/23 47/48/23
f 47/48/24 48/47/24 50/49/24 49/50/24
f 49/50/25 50/49/25 52/51/25 51/52/25
f 51/52/26 52/51/26 54/53/26 53/54/26
f 53/54/27 54/53/27 56/55/27 55/56/27
f 55/56/28 56/55/28 58/57/28 57/58/28
f 57/58/29 58/57/29 60/59/29 59/60/29
f 59/60/30 60/59/30 62/61/30 61/62/30
f 4/63/31 2/64/31 64/65/31 62/66/31 60/67/31 58/68/31 56/69/31 54/70/31 52/71/31 50/72/31 48/73/31 46/74/31 44/75/31 42/76/31 40/77/31 38/78/31 36/79/31 34/80/31 32/81/31 30/82/31 28/83/31 26/84/31 24/85/31 22/86/31 20/87/31 18/88/31 16/89/31 14/90/31 12/91/31 10/92/31 8/93/31 6/94/31
f 61/62/32 62/61/32 64/95/32 63/96/32
f 63/96/33 64/95/33 2/97/33 1/98/33
f 1/99/34 3/100/34 5/101/34 7/102/34 9/103/34 11/104/34 13/105/34 15/106/34 17/107/34 19/108/34 21/109/34 23/110/34 25/111/34 27/112/34 29/113/34 31/114/34 33/115/34 35/116/34 37/117/34 39/118/34 41/119/34 43/120/34 45/121/34 47/122/34 49/123/34 51/124/34 53/125/34 55/126/34 57/127/34 59/128/34 61/129/34 63/130/34
f 77/131/31 66/132/31 68/2/31 78/33/31
f 78/33/35 68/2/35 70/2/35 79/33/35
f 79/33/36 70/2/36 72/2/36 80/33/36
f 80/33/37 72/2/37 74/2/37 81/33/37
f 81/33/38 74/2/38 76/2/38 82/33/38
f 73/97/38 81/33/38 82/33/38 75/97/38
f 71/97/37 80/33/37 81/33/37 73/97/37
f 69/97/36 79/33/36 80/33/36 71/97/36
f 67/97/35 78/33/35 79/33/35 69/97/35
f 65/133/31 77/131/31 78/33/31 67/97/31
f 83/1/39 85/4/39 86/3/39 84/2/39
f 85/4/18 87/6/18 88/5/18 86/3/18
f 87/6/19 89/8/19 90/7/19 88/5/19
f 89/8/20 91/10/20 92/9/20 90/7/20
f 91/10/21 93/12/21 94/11/21 92/9/21
f 93/12/22 95/14/22 96/13/22 94/11/22
f 95/14/23 97/16/23 98/15/23 96/13/23
f 97/16/24 99/18/24 100/17/24 98/15/24
f 99/18/25 101/20/25 102/19/25 100/17/25
f 101/20/26 103/22/26 104/21/26 102/19/26
f 103/22/27 105/24/27 106/23/27 104/21/27
f 105/24/28 107/26/28 108/25/28 106/23/28
f 107/26/29 109/28/29 110/27/29 108/25/29
f 109/28/30 111/30/30 112/29/30 110/27/30
f 111/30/32 113/32/32 114/31/32 112/29/32
f 113/32/33 115/34/33 116/33/33 114/31/33
f 115/34/1 117/36/1 118/35/1 116/33/1
f 117/36/2 119/38/2 120/37/2 118/35/2
f 119/38/3 121/40/3 122/39/3 120/37/3
f 121/40/4 123/42/4 124/41/4 122/39/4
f 123/42/5 125/44/5 126/43/5 124/41/5
f 125/44/6 127/46/6 128/45/6 126/43/6
f 127/46/7 129/48/7 130/47/7 128/45/7
f 129/48/8 131/50/8 132/49/8 130/47/8
f 131/50/9 133/52/9 134/51/9 132/49/9
f 133/52/10 135/54/10 136/53/10 134/51/10
f 135/54/11 137/56/11 138/55/11 136/53/11
f 137/56/12 139/58/12 140/57/12 138/55/12
f 139/58/13 141/60/13 142/59/13 140/57/13
f 141/60/14 143/62/14 144/61/14 142/59/14
f 86/63/34 88/94/34 90/93/34 92/92/34 94/91/34 96/90/34 98/89/34 100/88/34 102/87/34 104/86/34 106/85/34 108/84/34 110/83/34 112/82/34 114/81/34 116/80/34 118/79/34 120/78/34 122/77/34 124/76/34 126/75/34 128/74/34 130/73/34 132/72/34 134/71/34 136/70/34 138/69/34 140/68/34 142/67/34 144/66/34 146/65/34 84/64/34
f 143/62/15 145/96/15 146/95/15 144/61/15
f 145/96/40 83/98/40 84/97/40 146/95/40
f 83/99/31 145/130/31 143/129/31 141/128/31 139/127/31 137/126/31 135/125/31 133/124/31 131/123/31 129/122/31 127/121/31 125/120/31 123/119/31 121/118/31 119/117/31 117/116/31 115/115/31 113/114/31 111/113/31 109/112/31 107/111/31 105/110/31 103/109/31 101/108/31 99/107/31 97/106/31 95/105/31 93/104/31 91/103/31 89/102/31 87/101/31 85/100/31
f 159/131/41 160/33/41 150/2/41 148/132/41
f 160/33/42 161/33/42 152/2/42 150/2/42
f 161/33/43 162/33/43 154/2/43 152/2/43
f 162/33/44 163/33/44 156/2/44 154/2/44
f 163/33/45 164/33/45 158/2/45 156/2/45
f 155/97/45 157/97/45 164/33/45 163/33/45
f 153/97/44 155/97/44 163/33/44 162/33/44
f 151/97/43 153/97/43 162/33/43 161/33/43
f 149/97/42 151/97/42 161/33/42 160/33/42
f 147/133/41 149/97/41 160/33/41 159/131/41
f 65/133/46 67/97/46 149/97/46 147/133/46
f 66/132/47 77/131/47 159/131/47 148/132/47
f 68/2/48 66/132/48 148/132/48 150/2/48
f 70/2/48 68/2/48 150/2/48 152/2/48
f 67/97/46 69/97/46 151/97/46 149/97/46
f 72/2/48 70/2/48 152/2/48 154/2/48
f 69/97/46 71/97/46 153/97/46 151/97/46
f 74/2/48 72/2/48 154/2/48 156/2/48
f 71/97/46 73/97/46 155/97/46 153/97/46
f 75/97/49 82/33/49 164/33/49 157/97/49
f 76/2/48 74/2/48 156/2/48 158/2/48
f 73/97/46 75/97/46 157/97/46 155/97/46
f 77/131/50 65/133/50 147/133/50 159/131/50
f 82/33/49 76/2/49 158/2/49 164/33/49
f 165/131/51 196/33/51 192/134/51 185/135/51 184/136/51 171/137/51 173/138/51 172/139/51
f 168/140/52 165/131/52 167/131/52 175/140/52
f 183/141/53 166/33/53 197/33/53 199/141/53
f 165/131/52 172/139/52 177/139/52 167/131/52
f 177/139/54 172/139/54 173/138/54 179/138/54
f 179/138/55 173/138/55 171/142/55 178/137/55
f 168/140/56 175/140/56 176/143/56 170/143/56
f 170/143/57 176/143/57 174/144/57 169/145/57
f 168/140/51 170/143/51 169/144/51 180/146/51 182/147/51 195/148/51 196/33/51 165/131/51
f 171/142/48 184/136/48 189/136/48 178/137/48
f 180/146/46 169/145/46 174/144/46 187/146/46
f 192/134/58 193/134/58 191/135/58 185/135/58
f 185/135/59 191/135/59 189/136/59 184/136/59
f 194/148/60 195/148/60 182/147/60 188/149/60
f 188/149/61 182/147/61 180/146/61 187/146/61
f 181/150/48 186/150/48 201/150/48 202/150/48
f 183/141/62 190/141/62 193/134/62 192/134/62
f 186/150/62 181/150/62 195/148/62 194/148/62
f 181/150/62 166/33/62 196/33/62 195/148/62
f 166/33/62 183/141/62 192/134/62 196/33/62
f 197/33/62 198/33/62 200/141/62 199/141/62
f 202/150/62 201/150/62 198/33/62 197/33/62
f 166/33/53 181/150/53 202/150/53 197/33/53
f 190/141/46 183/141/46 199/141/46 200/141/46
f 186/150/63 194/148/63 188/149/63 187/146/63 174/144/63 201/150/63
f 193/134/64 190/141/64 200/141/64 178/137/64 189/136/64 191/135/64
f 177/139/65 179/138/65 178/137/65 200/141/65 198/33/65 201/150/65 174/144/65 176/143/65 175/140/65 167/131/65
f 203/131/66 208/139/66 210/138/66 209/142/66 214/136/66 216/135/66 217/134/66 219/33/66
f 205/145/66 207/143/66 206/140/66 203/131/66 219/33/66 218/148/66 213/149/66 212/146/66
f 204/33/67 211/150/67 218/148/67 219/33/67
f 215/141/67 204/33/67 219/33/67 217/134/67
f 204/33/68 215/141/68 221/141/68 220/33/68
f 211/150/68 204/33/68 220/33/68 222/150/68
f 217/134/69 216/135/69 214/136/69 209/142/69 221/141/69 215/141/69
f 218/148/70 211/150/70 222/150/70 205/145/70 212/146/70 213/149/70
f 210/138/71 209/142/71 221/141/71 220/33/71 222/150/71 205/145/71 207/143/71 206/140/71 203/131/71 208/139/71
