# Blender 3.6.5
# www.blender.org
mtllib conveyor.mtl
o Plane
v -5.398290 0.000000 1.000000
v 5.398290 0.000000 1.000000
v -5.398290 0.000000 -1.000000
v 5.398290 0.000000 -1.000000
v -5.398290 0.740405 -1.000000
v -5.398290 0.740405 1.000000
v 5.398290 0.740405 1.000000
v 5.398290 0.740405 -1.000000
v -5.398290 0.000000 -0.873563
v 5.398290 0.000000 -0.873563
v -5.398290 0.740405 -0.873563
v 5.398290 0.740405 -0.873563
v -5.398290 0.000000 0.875848
v -5.398290 0.740405 0.875848
v 5.398290 0.000000 0.875848
v 5.398290 0.740405 0.875848
v -5.398290 0.780413 0.875848
v 5.398290 0.780413 -0.873563
v -5.398290 0.780413 -0.873563
v 5.398290 0.780413 0.875848
v -5.398290 0.767566 1.000000
v -5.398290 0.780413 0.987153
v -5.398290 0.776650 0.996237
v 5.398290 0.780413 0.987153
v 5.398290 0.767566 1.000000
v 5.398290 0.776650 0.996237
v 5.398290 0.767566 -1.000000
v 5.398290 0.780413 -0.987153
v 5.398290 0.776650 -0.996237
v -5.398290 0.780413 -0.987153
v -5.398290 0.767566 -1.000000
v -5.398290 0.776650 -0.996237
vn -0.0000 -1.0000 -0.0000
vn -1.0000 -0.0000 -0.0000
vn 1.0000 -0.0000 -0.0000
vn -0.0000 -0.0000 -1.0000
vn -0.0000 -0.0000 1.0000
vn -0.0000 1.0000 -0.0000
vn -0.0000 0.3827 0.9239
vn -0.0000 0.9239 0.3827
vn -0.0000 0.3827 -0.9239
vn -0.0000 0.9239 -0.3827
vt 0.000000 0.936782
vt 0.000000 1.000000
vt 1.000000 1.000000
vt 1.000000 0.936782
vt 0.000000 0.993576
vt 0.000000 0.999373
vt 0.000000 0.062076
vt 0.000000 0.000000
vt 0.000000 0.062076
vt 1.000000 0.000000
vt 1.000000 0.062076
vt 1.000000 0.062076
vt 1.000000 0.993576
vt 0.000000 0.006424
vt 1.000000 0.006424
vt 1.000000 0.999373
vt 1.000000 0.006424
vt 1.000000 0.000627
vt 0.000000 0.000627
vt 0.000000 0.006424
s 0
f 9/1/1 3/2/1 4/3/1 10/4/1
f 5/2/2 11/1/2 19/1/2 30/5/2 32/6/2 31/2/2
f 10/4/3 4/3/3 8/3/3 12/4/3
f 13/7/2 1/8/2 6/8/2 14/9/2
f 4/3/4 3/2/4 5/2/4 8/3/4
f 1/8/5 2/10/5 7/10/5 6/8/5
f 3/2/2 9/1/2 11/1/2 5/2/2
f 15/11/3 10/4/3 12/4/3 16/12/3
f 14/9/6 16/12/6 12/4/6 11/1/6
f 13/7/1 9/1/1 10/4/1 15/11/1
f 1/8/1 13/7/1 15/11/1 2/10/1
f 19/1/6 18/4/6 28/13/6 30/5/6
f 2/10/3 15/11/3 16/12/3 7/10/3
f 9/1/2 13/7/2 14/9/2 11/1/2
f 8/3/4 5/2/4 31/2/4 27/3/4
f 6/8/5 7/10/5 25/10/5 21/8/5
f 22/14/6 24/15/6 20/12/6 17/9/6
f 11/1/5 12/4/5 18/4/5 19/1/5
f 12/4/3 8/3/3 27/3/3 29/16/3 28/13/3 18/4/3
f 7/10/3 16/12/3 20/12/3 24/17/3 26/18/3 25/10/3
f 16/12/4 14/9/4 17/9/4 20/12/4
f 21/8/7 25/10/7 26/18/7 23/19/7
f 23/19/8 26/18/8 24/15/8 22/14/8
f 27/3/9 31/2/9 32/6/9 29/16/9
f 29/16/10 32/6/10 30/5/10 28/13/10
f 14/9/2 6/8/2 21/8/2 23/19/2 22/20/2 17/9/2
