# Blender 3.6.5
# www.blender.org
mtllib floor.mtl
o floor
v -19.460247 -0.272775 15.524202
v 11.943242 -0.272775 15.524202
v -19.460247 -0.272775 -15.524202
v 11.943242 -0.272775 -15.524202
v -18.867687 0.000000 -14.931641
v -18.867687 0.000000 14.931641
v 11.350680 0.000000 14.931641
v 11.350680 0.000000 -14.931641
v -19.460247 -0.272775 -13.001417
v -19.460247 -0.272775 -7.149015
v -18.867687 0.000000 -13.001417
v -18.867687 0.000000 -7.149015
v -10.027774 -0.272775 15.524202
v -6.068597 -0.272775 15.524202
v -10.027774 0.000000 14.931641
v -6.068597 0.000000 14.931641
v -17.226906 -0.272775 15.524202
v -11.531122 -0.272775 15.524202
v -17.166767 0.000000 14.931641
v -11.582211 0.000000 14.931641
v -18.867687 0.000000 -5.891420
v -18.867687 0.000000 -0.843484
v -19.460247 -0.272775 -5.889640
v -19.460247 -0.272775 -0.835763
v -24.193499 -0.272775 -13.001417
v -24.193499 -0.272775 -7.149015
v -24.193499 0.000000 -13.001417
v -24.193499 0.000000 -7.149015
v -24.193499 0.000000 -5.891420
v -24.193499 0.000000 -0.843484
v -24.193499 -0.272775 -5.889640
v -24.193499 -0.272775 -0.835763
v -10.027774 -0.272775 20.551077
v -6.068597 -0.272775 20.551077
v -10.027774 0.000000 20.551077
v -6.068597 0.000000 20.551077
v -17.226906 -0.272775 20.551077
v -11.531122 -0.272775 20.551077
v -17.166767 0.000000 20.551077
v -11.582211 0.000000 20.551077
v -32.427292 -0.272775 -13.001417
v -32.427292 -0.272775 -7.149015
v -32.427292 0.000000 -13.001417
v -32.427292 0.000000 -7.149015
v -32.427292 0.000000 -5.891420
v -32.427292 0.000000 -0.843484
v -32.427292 -0.272775 -5.889640
v -32.427292 -0.272775 -0.835763
v -10.027774 -0.272775 27.715988
v -6.068597 -0.272775 27.715988
v -10.027774 0.000000 27.715988
v -6.068597 0.000000 27.715988
v -17.226906 -0.272775 27.715988
v -11.531122 -0.272775 27.715988
v -17.166767 0.000000 27.715988
v -11.582211 0.000000 27.715988
vn -0.0000 1.0000 -0.0000
vn -0.0000 -1.0000 -0.0000
vn -1.0000 -0.0000 -0.0000
vn -0.0000 -0.0000 1.0000
vn -0.0000 -0.0000 -1.0000
vn -0.0000 0.0283 0.9996
vn -0.0000 -0.0065 -1.0000
vn 0.9829 0.1841 -0.0000
vn -0.9765 0.2153 -0.0000
vn 1.0000 -0.0000 -0.0000
vt 2.063729 -1.011033
vt 5.633744 -3.093426
vt 5.402995 0.519038
vt -4.633743 -3.093426
vt -0.922052 0.393729
vt -2.877810 0.660714
vt 4.553028 0.519038
vt 3.949571 1.155714
vt 3.949571 0.519038
vt 0.764462 2.210863
vt 0.731938 2.811803
vt 0.731938 2.140026
vt -0.922052 -0.940195
vt -0.321113 -0.466894
vt -0.922052 -0.466894
vt -3.632529 0.660714
vt -4.332157 1.226552
vt -4.332157 0.660714
vt 5.402995 1.155714
vt 4.703368 2.140026
vt 4.703368 1.155714
vt 0.633254 3.124337
vt 0.665861 2.140026
vt 0.665861 3.124337
vt 0.633254 2.210863
vt 0.600645 2.776702
vt 0.600645 2.140026
vt 0.568035 3.690175
vt 0.535419 3.124337
vt 0.568035 3.124337
vt 4.703368 0.519038
vt -3.481977 1.226552
vt -3.481977 0.660714
vt 0.665861 3.690175
vt 0.600645 2.210863
vt 0.568035 2.776702
vt 0.568035 2.140026
vt 1.391951 0.315701
vt 0.535420 -0.351906
vt 1.391951 -0.351906
vt 0.698904 2.996557
vt 0.731938 2.140025
vt 0.731938 2.996557
vt 2.063729 -0.537732
vt 1.391951 -1.011033
vt -0.922052 -0.287176
vt -0.321113 0.393729
vt 0.698904 2.210863
vt 0.665862 2.811803
vt 0.665862 2.140026
vt 0.796931 3.597496
vt 0.764462 2.996557
vt 0.796931 2.996557
vt 2.063729 0.315701
vt 2.063729 -0.351906
vt 0.731938 3.597496
vt 0.796931 2.140025
vt 0.829455 2.839652
vt 0.796931 2.839652
vt 0.894586 2.140238
vt 0.862062 2.743483
vt 0.862062 2.140026
vt 4.553028 1.155714
vt 3.949571 2.140026
vt 0.633254 2.776702
vt 0.600645 3.761013
vt -3.632529 1.226552
vt -4.332157 2.210863
vt 0.568035 3.761013
vt -2.877810 1.226552
vt -3.481977 2.210864
vt 0.894587 2.140026
vt 0.927194 2.613327
vt 0.894587 2.613327
vt 0.862062 2.813741
vt 0.829455 2.140026
vt 0.862062 2.146133
vt 1.391951 -0.537732
vt 0.535420 -1.011033
vt 0.698904 2.811803
vt 0.665862 3.668334
vt -0.321113 -0.287176
vt 0.535419 0.393729
vt 0.764462 2.811803
vt 0.731938 3.668334
vt -0.321113 -0.940195
vt 0.535419 -0.466894
vt 2.063729 0.519038
vt 2.063729 -3.093426
vt 5.633744 0.519038
vt -4.633744 0.660714
vt -0.922052 -3.093426
vt -0.922052 0.660714
vt 5.402995 2.140026
vt 0.633254 2.140026
vt 0.535419 3.761013
vt 0.633254 3.761013
vt 0.535420 0.315701
vt 0.698904 2.140025
vt 0.764462 3.668334
vt 0.698904 3.668334
vt 0.829455 2.140025
vt 0.894586 2.744405
vt 0.535419 2.140026
vt 4.553028 2.140026
vt -3.632529 2.210864
vt -2.877810 2.210864
vt 0.927194 2.140026
vt 0.829455 2.820930
vt 0.764462 2.140025
vt 0.535420 -0.537732
vt 0.698904 3.668334
vt 0.535419 -0.287175
vt 0.764462 3.668334
vt 0.535419 -0.940195
s 0
usemtl Material.013
f 4/4/2 17/5/2 24/6/2
f 13/10/3 35/11/3 15/12/3
f 14/13/2 33/14/2 13/15/2
f 10/16/2 25/17/2 9/18/2
f 28/22/4 42/23/4 26/24/4
f 9/25/5 27/26/5 11/27/5
f 24/28/6 30/29/6 32/30/6
f 24/6/2 31/32/2 23/33/2
f 10/34/4 28/22/4 26/24/4
f 23/35/7 29/36/7 21/37/7
f 40/41/8 54/42/8 38/43/8
f 18/46/2 37/47/2 17/5/2
f 17/48/9 39/49/9 19/50/9
f 14/51/10 36/52/10 34/53/10
f 18/56/8 40/41/8 38/43/8
f 43/57/3 42/58/3 44/59/3
f 47/60/3 46/61/3 45/62/3
f 30/29/6 48/37/6 32/30/6
f 25/65/5 43/66/5 27/26/5
f 26/67/2 41/68/2 25/17/2
f 31/26/7 45/69/7 29/36/7
f 32/70/2 47/71/2 31/32/2
f 51/72/4 50/73/4 52/74/4
f 55/75/4 54/76/4 56/77/4
f 36/52/10 50/57/10 34/53/10
f 37/80/9 55/81/9 39/49/9
f 38/82/2 53/83/2 37/47/2
f 33/84/3 51/85/3 35/11/3
f 34/86/2 49/87/2 33/14/2
f 9/18/2 3/91/2 4/4/2
f 4/4/2 2/92/2 14/13/2
f 4/4/2 14/13/2 13/15/2
f 10/16/2 9/18/2 4/4/2
f 23/33/2 10/16/2 4/4/2
f 4/4/2 13/15/2 18/46/2
f 17/5/2 1/93/2 24/6/2
f 4/4/2 18/46/2 17/5/2
f 24/6/2 23/33/2 4/4/2
f 13/10/3 33/84/3 35/11/3
f 14/13/2 34/86/2 33/14/2
f 10/16/2 26/67/2 25/17/2
f 28/22/4 44/95/4 42/23/4
f 9/25/5 25/65/5 27/26/5
f 24/28/6 22/96/6 30/29/6
f 24/6/2 32/70/2 31/32/2
f 10/34/4 12/97/4 28/22/4
f 23/35/7 31/26/7 29/36/7
f 40/41/8 56/99/8 54/42/8
f 18/46/2 38/82/2 37/47/2
f 17/48/9 37/80/9 39/49/9
f 14/51/10 16/100/10 36/52/10
f 18/56/8 20/101/8 40/41/8
f 43/57/3 41/102/3 42/58/3
f 47/60/3 48/103/3 46/61/3
f 30/29/6 46/104/6 48/37/6
f 25/65/5 41/97/5 43/66/5
f 26/67/2 42/106/2 41/68/2
f 31/26/7 47/66/7 45/69/7
f 32/70/2 48/107/2 47/71/2
f 51/72/4 49/108/4 50/73/4
f 55/75/4 53/109/4 54/76/4
f 36/52/10 52/110/10 50/57/10
f 37/80/9 53/112/9 55/81/9
f 38/82/2 54/113/2 53/83/2
f 33/84/3 49/114/3 51/85/3
f 34/86/2 50/115/2 49/87/2
usemtl Material.014
f 16/1/1 8/2/1 11/3/1
f 21/7/1 30/8/1 22/9/1
f 27/19/1 44/20/1 28/21/1
f 11/3/1 28/21/1 12/31/1
f 39/38/1 56/39/1 40/40/1
f 15/44/1 36/45/1 16/1/1
f 19/54/1 40/40/1 20/55/1
f 29/63/1 46/64/1 30/8/1
f 35/78/1 52/79/1 36/45/1
f 22/9/1 6/88/1 19/54/1
f 22/9/1 19/54/1 20/55/1
f 21/7/1 22/9/1 20/55/1
f 21/7/1 20/55/1 15/44/1
f 12/31/1 21/7/1 15/44/1
f 16/1/1 7/89/1 8/2/1
f 12/31/1 15/44/1 16/1/1
f 8/2/1 5/90/1 11/3/1
f 11/3/1 12/31/1 16/1/1
f 21/7/1 29/63/1 30/8/1
f 27/19/1 43/94/1 44/20/1
f 11/3/1 27/19/1 28/21/1
f 39/38/1 55/98/1 56/39/1
f 15/44/1 35/78/1 36/45/1
f 19/54/1 39/38/1 40/40/1
f 29/63/1 45/105/1 46/64/1
f 35/78/1 51/111/1 52/79/1
