# Blender 3.6.5
# www.blender.org
o Hat
v -0.138830 0.013000 -0.317442
v -0.200916 0.013000 -0.312146
v -0.260617 0.013000 -0.296461
v -0.313314 0.013000 -0.270990
v -0.354991 0.013000 -0.236711
v -0.385736 0.013000 -0.194943
v -0.406153 0.013000 -0.147290
v -0.417281 0.013000 -0.095583
v -0.420589 0.013000 -0.041810
v -0.417281 0.013000 0.011963
v -0.406153 0.013000 0.063670
v -0.385736 0.013000 0.111323
v -0.354991 0.013000 0.153091
v -0.313314 0.013000 0.187370
v -0.260617 0.013000 0.212841
v -0.200916 0.013000 0.228526
v -0.138830 0.013000 0.233822
v -0.076743 0.013000 0.228526
v -0.017043 0.013000 0.212841
v 0.037977 0.013000 0.187370
v 0.086203 0.013000 0.153091
v 0.125781 0.013000 0.111323
v 0.155189 0.013000 0.063670
v 0.173299 0.013000 0.011963
v 0.179414 0.013000 -0.041810
v 0.173299 0.014334 -0.095583
v 0.155189 0.016262 -0.147290
v 0.125781 0.015566 -0.194943
v 0.086203 0.013330 -0.236711
v 0.037977 0.013000 -0.270990
v -0.017043 0.013000 -0.296461
v -0.076743 0.013000 -0.312146
v -0.141732 0.023401 -0.301649
v -0.206040 0.028496 -0.280928
v -0.265805 0.032441 -0.250052
v -0.313568 0.033933 -0.209528
v -0.350037 0.032440 -0.160631
v -0.377847 0.028496 -0.105521
v -0.399786 0.023401 -0.046999
v -0.080352 0.029432 -0.280134
v -0.145363 0.073729 -0.255973
v -0.209264 0.085534 -0.222437
v -0.263290 0.090261 -0.178003
v -0.305492 0.085534 -0.123078
v -0.340885 0.073729 -0.061071
v -0.374792 0.029432 0.002819
v -0.019724 0.034650 -0.247946
v -0.081880 0.087864 -0.220832
v -0.145794 0.109047 -0.186507
v -0.206517 0.118099 -0.140426
v -0.255925 0.109047 -0.081027
v -0.299415 0.087864 -0.013926
v -0.343503 0.034650 0.052435
v 0.037188 0.074681 -0.205696
v -0.018984 0.105024 -0.173749
v -0.079809 0.123168 -0.137366
v -0.142410 0.131611 -0.090608
v -0.200666 0.119763 -0.029820
v -0.253066 0.093883 0.037211
v -0.305119 0.036737 0.100570
v 0.087488 0.081083 -0.155089
v 0.039754 0.113890 -0.115485
v -0.015279 0.123324 -0.073468
v -0.075066 0.118170 -0.024789
v -0.137065 0.109047 0.032012
v -0.198399 0.087864 0.091421
v -0.257284 0.034650 0.145292
v 0.128446 0.069946 -0.099294
v 0.090605 0.084589 -0.051600
v 0.043302 0.088453 -0.003574
v -0.011439 0.090261 0.045754
v -0.071419 0.085534 0.095786
v -0.134428 0.073729 0.143301
v -0.198251 0.029432 0.183659
v 0.157672 0.023970 -0.042334
v 0.130043 0.028496 0.010155
v 0.091526 0.032441 0.060593
v 0.043651 0.033933 0.107723
v -0.011720 0.032441 0.150014
v -0.072481 0.028496 0.185561
v -0.136347 0.023401 0.212316
v 0.431028 0.013000 0.104917
v 0.460437 0.013000 0.059768
v 0.478547 0.013000 0.010778
v 0.484662 0.013000 -0.040169
v 0.478547 0.014334 -0.091117
v 0.460437 0.016262 -0.140107
v 0.431028 0.015566 -0.185256
v -0.138823 0.034855 -0.317784
v -0.200910 0.029591 -0.312488
v -0.260610 0.029591 -0.296803
v -0.313308 0.029591 -0.271332
v -0.354985 0.029591 -0.237053
v -0.385730 0.029591 -0.195285
v -0.406146 0.029591 -0.147632
v -0.417274 0.029591 -0.095925
v -0.420583 0.029593 -0.042152
v -0.417274 0.029591 0.011621
v -0.406146 0.029591 0.063328
v -0.385730 0.029591 0.110981
v -0.354985 0.029591 0.152749
v -0.313308 0.029591 0.187028
v -0.260610 0.029591 0.212499
v -0.200910 0.029591 0.228184
v -0.138823 0.029591 0.233480
v -0.076737 0.029591 0.228184
v -0.017036 0.029591 0.212499
v 0.037984 0.029591 0.187028
v 0.086209 0.029591 0.152749
v 0.125787 0.029591 0.110981
v 0.155196 0.029591 0.063328
v 0.173306 0.029591 0.011621
v 0.179421 0.029591 -0.042152
v 0.173306 0.030925 -0.095925
v 0.155196 0.032853 -0.147632
v 0.125787 0.032157 -0.195285
v 0.086209 0.029920 -0.237053
v 0.037984 0.029591 -0.271332
v -0.017036 0.029591 -0.296803
v -0.076737 0.029591 -0.312488
v -0.141725 0.070611 -0.292598
v -0.206034 0.075706 -0.281270
v -0.265839 0.079651 -0.250395
v -0.313684 0.081143 -0.209870
v -0.350186 0.079651 -0.160973
v -0.377920 0.075706 -0.105864
v -0.399780 0.070611 -0.047341
v -0.080345 0.076642 -0.280476
v -0.145357 0.090319 -0.256315
v -0.209294 0.102124 -0.222780
v -0.263623 0.106851 -0.178345
v -0.306021 0.102124 -0.123420
v -0.341306 0.090319 -0.061414
v -0.374832 0.076642 0.002477
v -0.019718 0.081860 -0.248288
v -0.081873 0.104454 -0.221174
v -0.145787 0.125637 -0.186849
v -0.206822 0.134689 -0.140768
v -0.256615 0.125637 -0.081370
v -0.299999 0.104454 -0.014268
v -0.343620 0.081860 0.052093
v 0.037195 0.091272 -0.206038
v -0.018977 0.121615 -0.174091
v -0.079802 0.139759 -0.137708
v -0.142403 0.148201 -0.090950
v -0.201060 0.136354 -0.030162
v -0.253471 0.110473 0.036868
v -0.305205 0.083947 0.100228
v 0.087494 0.097674 -0.155432
v 0.039761 0.130481 -0.115827
v -0.015272 0.139915 -0.073810
v -0.075059 0.134761 -0.025131
v -0.137059 0.125637 0.031670
v -0.198474 0.104454 0.091079
v -0.257298 0.081860 0.144949
v 0.128452 0.086537 -0.099636
v 0.090611 0.101179 -0.051943
v 0.043308 0.105043 -0.003916
v -0.011433 0.106851 0.045411
v -0.071412 0.102124 0.095444
v -0.134421 0.090319 0.142959
v -0.198244 0.076642 0.183317
v 0.157679 0.071180 -0.042677
v 0.130050 0.075706 0.009813
v 0.091532 0.079651 0.060250
v 0.043658 0.081143 0.107380
v -0.011713 0.079651 0.149672
v -0.072474 0.075706 0.185219
v -0.136340 0.070611 0.198974
v 0.431034 0.029591 0.104593
v 0.460443 0.029591 0.059444
v 0.478553 0.029591 0.010454
v 0.484668 0.029591 -0.040494
v 0.478553 0.030925 -0.091441
v 0.460443 0.032853 -0.140431
v 0.431034 0.032157 -0.185580
vn -0.0042 -0.8355 0.5495
vn -0.0000 -0.7875 0.6163
vn 0.0906 -0.8802 0.4659
vn -0.0902 -0.8855 0.4559
vn -0.1713 -0.8062 0.5664
vn -0.1500 -0.9022 0.4043
vn -0.1528 -0.7934 0.5892
vn -0.2184 -0.7735 0.5951
vn -0.2479 -0.7735 0.5833
vn -0.4788 -0.6578 0.5814
vn -0.4897 -0.7851 0.3793
vn -0.6999 -0.6288 0.3388
vn -0.6440 -0.7635 0.0483
vn -0.3780 -0.9257 0.0124
vn -0.5566 -0.8218 -0.1220
vn -0.2150 -0.9765 -0.0125
vn -0.1654 -0.9851 -0.0461
vn 0.1785 -0.7993 0.5738
vn 0.1568 -0.8990 0.4090
vn 0.0077 -0.7721 0.6355
vn -0.1764 -0.8118 0.5566
vn -0.1479 -0.8916 0.4281
vn -0.2737 -0.9552 0.1126
vn -0.4670 -0.8508 -0.2408
vn -0.4334 -0.8746 -0.2173
vn -0.1396 -0.9878 -0.0692
vn 0.2874 -0.8241 0.4881
vn 0.2297 -0.9119 0.3401
vn 0.2363 -0.8154 0.5284
vn 0.0216 -0.9328 0.3597
vn -0.0706 -0.9779 0.1968
vn -0.1358 -0.9879 -0.0748
vn -0.3649 -0.8752 -0.3175
vn -0.3563 -0.8942 -0.2711
vn -0.1898 -0.9705 -0.1489
vn 0.3950 -0.8421 0.3673
vn 0.2890 -0.9192 0.2675
vn 0.3983 -0.8376 0.3740
vn 0.1917 -0.9621 0.1937
vn 0.0203 -0.9997 0.0146
vn -0.0771 -0.9801 -0.1828
vn -0.2696 -0.8981 -0.3475
vn -0.2877 -0.8985 -0.3314
vn -0.2098 -0.9477 -0.2405
vn 0.3307 -0.9246 0.1893
vn 0.4662 -0.8489 0.2490
vn 0.4883 -0.8454 0.2164
vn 0.3003 -0.9537 0.0160
vn 0.1540 -0.9775 -0.1438
vn 0.0026 -0.9685 -0.2491
vn -0.1857 -0.9016 -0.3906
vn -0.2197 -0.8953 -0.3876
vn -0.1655 -0.9463 -0.2775
vn 0.3607 -0.9255 0.1157
vn 0.5137 -0.8439 0.1549
vn 0.5579 -0.8299 -0.0069
vn 0.4257 -0.8834 -0.1960
vn 0.3095 -0.9019 -0.3013
vn 0.1952 -0.9044 -0.3794
vn -0.0016 -0.8739 -0.4861
vn -0.1565 -0.8847 -0.4391
vn -0.1184 -0.9420 -0.3139
vn 0.3913 -0.9180 0.0644
vn 0.5051 -0.8630 -0.0116
vn 0.4576 -0.8747 -0.1599
vn 0.4002 -0.8893 -0.2215
vn 0.3196 -0.8987 -0.3003
vn 0.2325 -0.8991 -0.3708
vn 0.1573 -0.8874 -0.4334
vn 0.0002 -0.8802 -0.4746
vn -0.0743 -0.9309 -0.3575
vn 0.4465 -0.8948 -0.0036
vn 0.3593 -0.9310 -0.0639
vn 0.3155 -0.9430 -0.1062
vn 0.2731 -0.9485 -0.1606
vn 0.2255 -0.9502 -0.2153
vn 0.1737 -0.9491 -0.2627
vn 0.1181 -0.9443 -0.3071
vn 0.0730 -0.9338 -0.3503
vn 0.0023 -0.9003 -0.4352
vn 0.0003 -0.9998 -0.0211
vn -0.0000 -1.0000 -0.0040
vn -0.0000 -1.0000 -0.0000
vn -0.0004 -0.9999 0.0156
vn -0.0005 -0.9999 0.0149
vn 0.0003 -0.9995 -0.0316
vn -0.0028 0.7246 -0.6892
vn 0.0051 0.5761 -0.8173
vn -0.1566 0.5455 -0.8234
vn 0.1413 0.7585 -0.6362
vn 0.1608 0.5662 -0.8084
vn 0.2497 0.7793 -0.5748
vn 0.2884 0.6322 -0.7191
vn 0.3442 0.7813 -0.5207
vn 0.3746 0.6639 -0.6473
vn 0.4897 0.7851 -0.3793
vn 0.4788 0.6578 -0.5814
vn 0.6999 0.6288 -0.3388
vn 0.5936 0.6421 -0.4852
vn 0.5996 0.7850 -0.1554
vn 0.7976 0.5682 -0.2023
vn 0.6939 0.7188 0.0434
vn 0.8861 0.4634 0.0070
vn -0.1521 0.7490 -0.6449
vn -0.3024 0.5986 -0.7417
vn -0.0077 0.8920 -0.4520
vn 0.0812 0.9008 -0.4265
vn 0.1458 0.9225 -0.3574
vn 0.2737 0.9552 -0.1126
vn 0.3563 0.9242 0.1379
vn 0.5055 0.8270 0.2461
vn 0.7488 0.6212 0.2311
vn -0.3052 0.7905 -0.5310
vn -0.4225 0.6587 -0.6226
vn -0.1378 0.9100 -0.3909
vn -0.0215 0.9328 -0.3597
vn 0.0706 0.9779 -0.1968
vn 0.1358 0.9879 0.0748
vn 0.2665 0.9396 0.2146
vn 0.3995 0.8662 0.3002
vn 0.6128 0.7208 0.3239
vn -0.4240 0.8153 -0.3943
vn -0.5318 0.6871 -0.4951
vn -0.2817 0.9234 -0.2609
vn -0.1910 0.9622 -0.1942
vn -0.0198 0.9997 -0.0146
vn 0.0771 0.9801 0.1828
vn 0.1778 0.9540 0.2415
vn 0.3160 0.8760 0.3643
vn 0.5082 0.7602 0.4048
vn -0.6257 0.6896 -0.3646
vn -0.3482 0.9297 -0.1196
vn -0.5017 0.8233 -0.2655
vn -0.3001 0.9538 -0.0163
vn -0.1536 0.9776 0.1439
vn -0.0024 0.9685 0.2491
vn 0.0915 0.9578 0.2726
vn 0.2397 0.8691 0.4328
vn 0.3390 0.7565 0.5593
vn -0.7093 0.6598 -0.2482
vn -0.5639 0.8112 -0.1551
vn -0.3498 0.9368 0.0003
vn -0.3180 0.9434 0.0947
vn -0.2071 0.9563 0.2064
vn 0.0053 0.9524 0.3047
vn -0.0936 0.9592 0.2667
vn 0.1333 0.8395 0.5268
vn 0.2638 0.7143 0.6482
vn -0.9424 0.2957 -0.1565
vn -0.3181 0.9480 0.0060
vn -0.5092 0.8453 0.1617
vn -0.4296 0.8731 0.2307
vn -0.3361 0.8863 0.3187
vn -0.1304 0.8479 0.5140
vn -0.2481 0.8813 0.4022
vn 0.0001 0.8088 0.5881
vn 0.1328 0.6599 0.7395
vn -0.9730 0.2309 0.0015
vn -0.8251 0.5650 0.0065
vn -0.9293 0.3337 0.1586
vn -0.6299 0.7406 0.2338
vn -0.5303 0.7854 0.3192
vn -0.3449 0.7870 0.5115
vn -0.4350 0.7992 0.4148
vn -0.2603 0.7427 0.6169
vn -0.1365 0.6771 0.7231
vn -0.0018 0.6438 0.7652
vn -0.0006 0.9995 0.0322
vn -0.0003 0.9998 0.0211
vn -0.0000 1.0000 0.0040
vn -0.0002 0.9999 0.0125
vn -0.0000 1.0000 -0.0000
vn -0.0001 0.9999 0.0130
vn 0.0004 0.9999 -0.0156
vn 0.0005 0.9999 -0.0149
vn -0.0003 0.9995 0.0316
vn -0.7266 -0.0139 -0.6869
vn -0.8673 -0.0099 -0.4977
vn -0.7250 -0.0139 -0.6886
vn -0.0000 -0.0165 -0.9999
vn 0.1676 -0.0199 -0.9857
vn 0.1703 -0.0204 -0.9852
vn 0.5012 0.0176 0.8651
vn 0.3388 0.0193 0.9407
vn 0.3380 0.0193 0.9410
vn -0.8686 -0.0099 -0.4954
vn -0.9524 -0.0059 -0.3047
vn 0.6550 0.0153 0.7555
vn 0.5023 0.0176 0.8645
vn -0.9532 -0.0059 -0.3024
vn 0.0209 0.0196 0.9996
vn 0.0210 0.0206 0.9996
vn 0.7258 0.0139 0.6877
vn 0.6563 0.0153 0.7544
vn -0.9908 -0.0024 -0.1353
vn -1.0000 0.0004 0.0008
vn 0.0318 -0.0206 -0.9993
vn 0.0317 -0.0196 -0.9993
vn 0.0317 -0.0195 -0.9993
vn -0.9905 0.0032 0.1373
vn -0.9532 0.0066 0.3024
vn 0.8929 0.0084 0.4502
vn 0.8379 0.0103 0.5458
vn -0.9524 0.0067 0.3046
vn -0.8686 0.0106 0.4954
vn -0.8673 0.0106 0.4977
vn -0.7266 0.0145 0.6869
vn 0.9718 0.0042 0.2359
vn 0.8940 0.0084 0.4479
vn 1.0000 -0.0004 0.0025
vn 0.9724 0.0042 0.2332
vn -0.7250 0.0145 0.6886
vn -0.5396 0.0176 0.8417
vn 0.9729 -0.0049 -0.2310
vn 1.0000 -0.0005 -0.0025
vn -0.5382 0.0176 0.8426
vn -0.3466 0.0195 0.9378
vn -0.1676 -0.0197 -0.9857
vn -0.0000 -0.0157 -0.9999
vn 0.7262 -0.0145 -0.6873
vn 0.6563 -0.0158 -0.7543
vn 0.8944 -0.0091 -0.4473
vn 0.9712 -0.0050 -0.2384
vn -0.3458 0.0195 0.9381
vn -0.1703 0.0204 0.9852
vn -0.1704 -0.0203 -0.9852
vn -0.3458 -0.0192 -0.9381
vn 0.5022 -0.0180 -0.8646
vn 0.6555 -0.0158 -0.7551
vn 0.8379 -0.0110 -0.5456
vn 0.8925 -0.0092 -0.4510
vn -0.1700 0.0204 0.9852
vn -0.0000 0.0206 0.9998
vn -0.3466 -0.0192 -0.9378
vn -0.5382 -0.0172 -0.8426
vn 0.3387 -0.0195 -0.9407
vn 0.5015 -0.0180 -0.8650
vn 0.1699 0.0203 0.9852
vn -0.5397 -0.0172 -0.8417
vn 0.3380 -0.0195 -0.9409
vn 0.1704 0.0203 0.9852
vn -0.5936 -0.6421 0.4852
vn 0.0001 -0.9999 -0.0130
vn 0.4194 0.7697 0.4813
vn 0.0209 0.0195 0.9996
vt 0.000000 0.000000
s 1
f 1/1/1 33/1/2 2/1/3
f 32/1/4 40/1/5 33/1/2
f 31/1/6 47/1/7 40/1/5
f 30/1/8 54/1/9 47/1/7
f 29/1/10 61/1/11 54/1/9
f 61/1/11 27/1/12 68/1/13
f 68/1/13 26/1/14 75/1/15
f 75/1/15 25/1/16 24/1/17
f 2/1/3 34/1/18 3/1/19
f 33/1/2 41/1/20 34/1/18
f 40/1/5 48/1/21 41/1/20
f 47/1/7 55/1/22 48/1/21
f 54/1/9 62/1/23 55/1/22
f 62/1/23 68/1/13 69/1/24
f 69/1/24 75/1/15 76/1/25
f 76/1/25 24/1/17 23/1/26
f 3/1/19 35/1/27 4/1/28
f 34/1/18 42/1/29 35/1/27
f 41/1/20 49/1/30 42/1/29
f 48/1/21 56/1/31 49/1/30
f 55/1/22 63/1/32 56/1/31
f 63/1/32 69/1/24 70/1/33
f 70/1/33 76/1/25 77/1/34
f 77/1/34 23/1/26 22/1/35
f 4/1/28 36/1/36 5/1/37
f 35/1/27 43/1/38 36/1/36
f 42/1/29 50/1/39 43/1/38
f 49/1/30 57/1/40 50/1/39
f 56/1/31 64/1/41 57/1/40
f 63/1/32 71/1/42 64/1/41
f 71/1/42 77/1/34 78/1/43
f 78/1/43 22/1/35 21/1/44
f 6/1/45 36/1/36 37/1/46
f 36/1/36 44/1/47 37/1/46
f 43/1/38 51/1/48 44/1/47
f 50/1/39 58/1/49 51/1/48
f 57/1/40 65/1/50 58/1/49
f 64/1/41 72/1/51 65/1/50
f 71/1/42 79/1/52 72/1/51
f 78/1/43 20/1/53 79/1/52
f 7/1/54 37/1/46 38/1/55
f 38/1/55 44/1/47 45/1/56
f 45/1/56 51/1/48 52/1/57
f 52/1/57 58/1/49 59/1/58
f 59/1/58 65/1/50 66/1/59
f 65/1/50 73/1/60 66/1/59
f 72/1/51 80/1/61 73/1/60
f 79/1/52 19/1/62 80/1/61
f 8/1/63 38/1/55 39/1/64
f 39/1/64 45/1/56 46/1/65
f 46/1/65 52/1/57 53/1/66
f 53/1/66 59/1/58 60/1/67
f 60/1/67 66/1/59 67/1/68
f 66/1/59 74/1/69 67/1/68
f 73/1/60 81/1/70 74/1/69
f 80/1/61 18/1/71 81/1/70
f 9/1/72 39/1/64 10/1/73
f 10/1/73 46/1/65 11/1/74
f 11/1/74 53/1/66 12/1/75
f 12/1/75 60/1/67 13/1/76
f 60/1/67 14/1/77 13/1/76
f 67/1/68 15/1/78 14/1/77
f 74/1/69 16/1/79 15/1/78
f 81/1/70 17/1/80 16/1/79
f 87/1/81 26/1/14 27/1/82
f 25/1/16 84/1/83 24/1/17
f 23/1/26 82/1/83 22/1/35
f 88/1/84 27/1/82 28/1/85
f 86/1/86 25/1/16 26/1/14
f 24/1/17 83/1/83 23/1/26
f 121/1/87 89/1/88 90/1/89
f 128/1/90 120/1/91 121/1/87
f 135/1/92 119/1/93 128/1/90
f 142/1/94 118/1/95 135/1/92
f 149/1/96 117/1/97 142/1/94
f 149/1/96 115/1/98 116/1/99
f 156/1/100 114/1/101 115/1/98
f 163/1/102 113/1/103 114/1/101
f 122/1/104 90/1/89 91/1/105
f 129/1/106 121/1/87 122/1/104
f 136/1/107 128/1/90 129/1/106
f 143/1/108 135/1/92 136/1/107
f 150/1/109 142/1/94 143/1/108
f 150/1/109 156/1/100 149/1/96
f 157/1/110 163/1/102 156/1/100
f 164/1/111 112/1/112 163/1/102
f 123/1/113 91/1/105 92/1/114
f 130/1/115 122/1/104 123/1/113
f 137/1/116 129/1/106 130/1/115
f 144/1/117 136/1/107 137/1/116
f 151/1/118 143/1/108 144/1/117
f 151/1/118 157/1/110 150/1/109
f 158/1/119 164/1/111 157/1/110
f 165/1/120 111/1/121 164/1/111
f 124/1/122 92/1/114 93/1/123
f 131/1/124 123/1/113 124/1/122
f 138/1/125 130/1/115 131/1/124
f 145/1/126 137/1/116 138/1/125
f 152/1/127 144/1/117 145/1/126
f 159/1/128 151/1/118 152/1/127
f 159/1/128 165/1/120 158/1/119
f 166/1/129 110/1/130 165/1/120
f 94/1/131 124/1/122 93/1/123
f 132/1/132 124/1/122 125/1/133
f 139/1/134 131/1/124 132/1/132
f 146/1/135 138/1/125 139/1/134
f 153/1/136 145/1/126 146/1/135
f 160/1/137 152/1/127 153/1/136
f 167/1/138 159/1/128 160/1/137
f 108/1/139 166/1/129 167/1/138
f 95/1/140 125/1/133 94/1/131
f 126/1/141 132/1/132 125/1/133
f 133/1/142 139/1/134 132/1/132
f 140/1/143 146/1/135 139/1/134
f 147/1/144 153/1/136 146/1/135
f 161/1/145 153/1/136 154/1/146
f 168/1/147 160/1/137 161/1/145
f 107/1/148 167/1/138 168/1/147
f 96/1/149 126/1/141 95/1/140
f 127/1/150 133/1/142 126/1/141
f 134/1/151 140/1/143 133/1/142
f 141/1/152 147/1/144 140/1/143
f 148/1/153 154/1/146 147/1/144
f 162/1/154 154/1/146 155/1/155
f 169/1/156 161/1/145 162/1/154
f 106/1/157 168/1/147 169/1/156
f 97/1/158 127/1/159 96/1/149
f 98/1/160 134/1/151 127/1/159
f 99/1/161 141/1/152 134/1/151
f 100/1/162 148/1/153 141/1/152
f 102/1/163 148/1/153 101/1/164
f 103/1/165 155/1/155 102/1/163
f 104/1/166 162/1/154 103/1/165
f 105/1/167 169/1/156 104/1/166
f 114/1/168 175/1/169 115/1/170
f 113/1/171 172/1/172 173/1/173
f 111/1/172 170/1/172 171/1/172
f 115/1/170 176/1/174 116/1/175
f 113/1/171 174/1/176 114/1/168
f 112/1/172 171/1/172 172/1/172
f 5/1/177 94/1/178 93/1/179
f 1/1/180 120/1/181 32/1/182
f 20/1/183 107/1/184 19/1/185
f 6/1/186 95/1/187 94/1/178
f 21/1/188 108/1/189 20/1/183
f 7/1/190 96/1/149 95/1/187
f 82/1/191 110/1/192 22/1/192
f 22/1/193 109/1/194 21/1/188
f 8/1/195 97/1/158 96/1/149
f 9/1/196 98/1/160 97/1/158
f 28/1/197 176/1/198 88/1/199
f 10/1/200 99/1/201 98/1/160
f 83/1/202 170/1/203 82/1/203
f 11/1/204 100/1/205 99/1/201
f 12/1/206 101/1/207 100/1/205
f 84/1/208 171/1/209 83/1/202
f 85/1/210 172/1/211 84/1/208
f 13/1/212 102/1/213 101/1/207
f 86/1/214 173/1/215 85/1/210
f 14/1/216 103/1/217 102/1/213
f 1/1/180 90/1/218 89/1/219
f 28/1/220 117/1/221 116/1/220
f 87/1/222 174/1/223 86/1/214
f 15/1/224 104/1/225 103/1/217
f 2/1/226 91/1/227 90/1/218
f 30/1/228 117/1/221 29/1/229
f 88/1/230 175/1/231 87/1/222
f 16/1/232 105/1/233 104/1/225
f 3/1/234 92/1/235 91/1/227
f 31/1/236 118/1/237 30/1/228
f 18/1/238 105/1/233 17/1/233
f 4/1/239 93/1/179 92/1/235
f 32/1/182 119/1/240 31/1/236
f 19/1/185 106/1/241 18/1/238
f 1/1/1 32/1/4 33/1/2
f 32/1/4 31/1/6 40/1/5
f 31/1/6 30/1/8 47/1/7
f 30/1/8 29/1/10 54/1/9
f 29/1/10 28/1/242 61/1/11
f 61/1/11 28/1/242 27/1/12
f 68/1/13 27/1/12 26/1/14
f 75/1/15 26/1/14 25/1/16
f 2/1/3 33/1/2 34/1/18
f 33/1/2 40/1/5 41/1/20
f 40/1/5 47/1/7 48/1/21
f 47/1/7 54/1/9 55/1/22
f 54/1/9 61/1/11 62/1/23
f 62/1/23 61/1/11 68/1/13
f 69/1/24 68/1/13 75/1/15
f 76/1/25 75/1/15 24/1/17
f 3/1/19 34/1/18 35/1/27
f 34/1/18 41/1/20 42/1/29
f 41/1/20 48/1/21 49/1/30
f 48/1/21 55/1/22 56/1/31
f 55/1/22 62/1/23 63/1/32
f 63/1/32 62/1/23 69/1/24
f 70/1/33 69/1/24 76/1/25
f 77/1/34 76/1/25 23/1/26
f 4/1/28 35/1/27 36/1/36
f 35/1/27 42/1/29 43/1/38
f 42/1/29 49/1/30 50/1/39
f 49/1/30 56/1/31 57/1/40
f 56/1/31 63/1/32 64/1/41
f 63/1/32 70/1/33 71/1/42
f 71/1/42 70/1/33 77/1/34
f 78/1/43 77/1/34 22/1/35
f 6/1/45 5/1/37 36/1/36
f 36/1/36 43/1/38 44/1/47
f 43/1/38 50/1/39 51/1/48
f 50/1/39 57/1/40 58/1/49
f 57/1/40 64/1/41 65/1/50
f 64/1/41 71/1/42 72/1/51
f 71/1/42 78/1/43 79/1/52
f 78/1/43 21/1/44 20/1/53
f 7/1/54 6/1/45 37/1/46
f 38/1/55 37/1/46 44/1/47
f 45/1/56 44/1/47 51/1/48
f 52/1/57 51/1/48 58/1/49
f 59/1/58 58/1/49 65/1/50
f 65/1/50 72/1/51 73/1/60
f 72/1/51 79/1/52 80/1/61
f 79/1/52 20/1/53 19/1/62
f 8/1/63 7/1/54 38/1/55
f 39/1/64 38/1/55 45/1/56
f 46/1/65 45/1/56 52/1/57
f 53/1/66 52/1/57 59/1/58
f 60/1/67 59/1/58 66/1/59
f 66/1/59 73/1/60 74/1/69
f 73/1/60 80/1/61 81/1/70
f 80/1/61 19/1/62 18/1/71
f 9/1/72 8/1/63 39/1/64
f 10/1/73 39/1/64 46/1/65
f 11/1/74 46/1/65 53/1/66
f 12/1/75 53/1/66 60/1/67
f 60/1/67 67/1/68 14/1/77
f 67/1/68 74/1/69 15/1/78
f 74/1/69 81/1/70 16/1/79
f 81/1/70 18/1/71 17/1/80
f 87/1/81 86/1/86 26/1/14
f 25/1/16 85/1/243 84/1/83
f 23/1/26 83/1/83 82/1/83
f 88/1/84 87/1/81 27/1/82
f 86/1/86 85/1/243 25/1/16
f 24/1/17 84/1/83 83/1/83
f 121/1/87 120/1/91 89/1/88
f 128/1/90 119/1/93 120/1/91
f 135/1/92 118/1/95 119/1/93
f 142/1/94 117/1/97 118/1/95
f 149/1/96 116/1/99 117/1/97
f 149/1/96 156/1/100 115/1/98
f 156/1/100 163/1/102 114/1/101
f 163/1/102 112/1/112 113/1/103
f 122/1/104 121/1/87 90/1/89
f 129/1/106 128/1/90 121/1/87
f 136/1/107 135/1/92 128/1/90
f 143/1/108 142/1/94 135/1/92
f 150/1/109 149/1/96 142/1/94
f 150/1/109 157/1/110 156/1/100
f 157/1/110 164/1/111 163/1/102
f 164/1/111 111/1/121 112/1/112
f 123/1/113 122/1/104 91/1/105
f 130/1/115 129/1/106 122/1/104
f 137/1/116 136/1/107 129/1/106
f 144/1/117 143/1/108 136/1/107
f 151/1/118 150/1/109 143/1/108
f 151/1/118 158/1/119 157/1/110
f 158/1/119 165/1/120 164/1/111
f 165/1/120 110/1/130 111/1/121
f 124/1/122 123/1/113 92/1/114
f 131/1/124 130/1/115 123/1/113
f 138/1/125 137/1/116 130/1/115
f 145/1/126 144/1/117 137/1/116
f 152/1/127 151/1/118 144/1/117
f 159/1/128 158/1/119 151/1/118
f 159/1/128 166/1/129 165/1/120
f 166/1/129 109/1/244 110/1/130
f 94/1/131 125/1/133 124/1/122
f 132/1/132 131/1/124 124/1/122
f 139/1/134 138/1/125 131/1/124
f 146/1/135 145/1/126 138/1/125
f 153/1/136 152/1/127 145/1/126
f 160/1/137 159/1/128 152/1/127
f 167/1/138 166/1/129 159/1/128
f 108/1/139 109/1/244 166/1/129
f 95/1/140 126/1/141 125/1/133
f 126/1/141 133/1/142 132/1/132
f 133/1/142 140/1/143 139/1/134
f 140/1/143 147/1/144 146/1/135
f 147/1/144 154/1/146 153/1/136
f 161/1/145 160/1/137 153/1/136
f 168/1/147 167/1/138 160/1/137
f 107/1/148 108/1/139 167/1/138
f 96/1/149 127/1/159 126/1/141
f 127/1/150 134/1/151 133/1/142
f 134/1/151 141/1/152 140/1/143
f 141/1/152 148/1/153 147/1/144
f 148/1/153 155/1/155 154/1/146
f 162/1/154 161/1/145 154/1/146
f 169/1/156 168/1/147 161/1/145
f 106/1/157 107/1/148 168/1/147
f 97/1/158 98/1/160 127/1/159
f 98/1/160 99/1/161 134/1/151
f 99/1/161 100/1/162 141/1/152
f 100/1/162 101/1/164 148/1/153
f 102/1/163 155/1/155 148/1/153
f 103/1/165 162/1/154 155/1/155
f 104/1/166 169/1/156 162/1/154
f 105/1/167 106/1/157 169/1/156
f 114/1/168 174/1/176 175/1/169
f 113/1/171 112/1/172 172/1/172
f 111/1/172 110/1/172 170/1/172
f 115/1/170 175/1/169 176/1/174
f 113/1/171 173/1/173 174/1/176
f 112/1/172 111/1/172 171/1/172
f 5/1/177 6/1/186 94/1/178
f 1/1/180 89/1/219 120/1/181
f 20/1/183 108/1/189 107/1/184
f 6/1/186 7/1/190 95/1/187
f 21/1/188 109/1/194 108/1/189
f 7/1/190 8/1/195 96/1/149
f 82/1/191 170/1/245 110/1/192
f 22/1/193 110/1/193 109/1/194
f 8/1/195 9/1/196 97/1/158
f 9/1/196 10/1/200 98/1/160
f 28/1/197 116/1/197 176/1/198
f 10/1/200 11/1/204 99/1/201
f 83/1/202 171/1/209 170/1/203
f 11/1/204 12/1/206 100/1/205
f 12/1/206 13/1/212 101/1/207
f 84/1/208 172/1/211 171/1/209
f 85/1/210 173/1/215 172/1/211
f 13/1/212 14/1/216 102/1/213
f 86/1/214 174/1/223 173/1/215
f 14/1/216 15/1/224 103/1/217
f 1/1/180 2/1/226 90/1/218
f 28/1/220 29/1/229 117/1/221
f 87/1/222 175/1/231 174/1/223
f 15/1/224 16/1/232 104/1/225
f 2/1/226 3/1/234 91/1/227
f 30/1/228 118/1/237 117/1/221
f 88/1/230 176/1/230 175/1/231
f 16/1/232 17/1/233 105/1/233
f 3/1/234 4/1/239 92/1/235
f 31/1/236 119/1/240 118/1/237
f 18/1/238 106/1/241 105/1/233
f 4/1/239 5/1/177 93/1/179
f 32/1/182 120/1/181 119/1/240
f 19/1/185 107/1/184 106/1/241
