# Blender 3.6.5
# www.blender.org
mtllib hat.mtl
o Circle
v -0.138830 0.013000 -0.317442
v -0.200916 0.013000 -0.312146
v -0.260617 0.013000 -0.296461
v -0.313314 0.013000 -0.270990
v -0.354991 0.013000 -0.236711
v -0.385736 0.013000 -0.194943
v -0.406153 0.013000 -0.147290
v -0.417281 0.013000 -0.095583
v -0.420589 0.013000 -0.041810
v -0.417281 0.013000 0.011963
v -0.406153 0.013000 0.063670
v -0.385736 0.013000 0.111323
v -0.354991 0.013000 0.153091
v -0.313314 0.013000 0.187370
v -0.260617 0.013000 0.212841
v -0.200916 0.013000 0.228526
v -0.138830 0.013000 0.233822
v -0.076743 0.013000 0.228526
v -0.017043 0.013000 0.212841
v 0.037977 0.013000 0.187370
v 0.086203 0.013000 0.153091
v 0.125781 0.013000 0.111323
v 0.155189 0.013000 0.063670
v 0.173299 0.013000 0.011963
v 0.179414 0.013000 -0.041810
v 0.173299 0.014334 -0.095583
v 0.155189 0.016262 -0.147290
v 0.125781 0.015566 -0.194943
v 0.086203 0.013330 -0.236711
v 0.037977 0.013000 -0.270990
v -0.017043 0.013000 -0.296461
v -0.076743 0.013000 -0.312146
v -0.141732 0.023401 -0.301649
v -0.206040 0.028496 -0.280928
v -0.265805 0.032441 -0.250052
v -0.313568 0.033933 -0.209528
v -0.350037 0.032440 -0.160631
v -0.377847 0.028496 -0.105521
v -0.399786 0.023401 -0.046999
v -0.080352 0.029432 -0.280134
v -0.145363 0.073729 -0.255973
v -0.209264 0.085534 -0.222437
v -0.263290 0.090261 -0.178003
v -0.305492 0.085534 -0.123078
v -0.340885 0.073729 -0.061071
v -0.374792 0.029432 0.002819
v -0.019724 0.034650 -0.247946
v -0.081880 0.087864 -0.220832
v -0.145794 0.109047 -0.186507
v -0.206517 0.118099 -0.140426
v -0.255925 0.109047 -0.081027
v -0.299415 0.087864 -0.013926
v -0.343503 0.034650 0.052435
v 0.037188 0.074681 -0.205696
v -0.018984 0.105024 -0.173749
v -0.079809 0.123168 -0.137366
v -0.142410 0.131611 -0.090608
v -0.200666 0.119763 -0.029820
v -0.253066 0.093883 0.037211
v -0.305119 0.036737 0.100570
v 0.087488 0.081083 -0.155089
v 0.039754 0.113890 -0.115485
v -0.015279 0.123324 -0.073468
v -0.075066 0.118170 -0.024789
v -0.137065 0.109047 0.032012
v -0.198399 0.087864 0.091421
v -0.257284 0.034650 0.145292
v 0.128446 0.069946 -0.099294
v 0.090605 0.084589 -0.051600
v 0.043302 0.088453 -0.003574
v -0.011439 0.090261 0.045754
v -0.071419 0.085534 0.095786
v -0.134428 0.073729 0.143301
v -0.198251 0.029432 0.183659
v 0.157672 0.023970 -0.042334
v 0.130043 0.028496 0.010155
v 0.091526 0.032441 0.060593
v 0.043651 0.033933 0.107723
v -0.011720 0.032441 0.150014
v -0.072481 0.028496 0.185561
v -0.136347 0.023401 0.212316
v 0.431028 0.013000 0.104917
v 0.460437 0.013000 0.059768
v 0.478547 0.013000 0.010778
v 0.484662 0.013000 -0.040169
v 0.478547 0.014334 -0.091117
v 0.460437 0.016262 -0.140107
v 0.431028 0.015566 -0.185256
v -0.138823 0.034855 -0.317784
v -0.200910 0.029591 -0.312488
v -0.260610 0.029591 -0.296803
v -0.313308 0.029591 -0.271332
v -0.354985 0.029591 -0.237053
v -0.385730 0.029591 -0.195285
v -0.406146 0.029591 -0.147632
v -0.417274 0.029591 -0.095925
v -0.420583 0.029593 -0.042152
v -0.417274 0.029591 0.011621
v -0.406146 0.029591 0.063328
v -0.385730 0.029591 0.110981
v -0.354985 0.029591 0.152749
v -0.313308 0.029591 0.187028
v -0.260610 0.029591 0.212499
v -0.200910 0.029591 0.228184
v -0.138823 0.029591 0.233480
v -0.076737 0.029591 0.228184
v -0.017036 0.029591 0.212499
v 0.037984 0.029591 0.187028
v 0.086209 0.029591 0.152749
v 0.125787 0.029591 0.110981
v 0.155196 0.029591 0.063328
v 0.173306 0.029591 0.011621
v 0.179421 0.029591 -0.042152
v 0.173306 0.030925 -0.095925
v 0.155196 0.032853 -0.147632
v 0.125787 0.032157 -0.195285
v 0.086209 0.029920 -0.237053
v 0.037984 0.029591 -0.271332
v -0.017036 0.029591 -0.296803
v -0.076737 0.029591 -0.312488
v -0.141725 0.070611 -0.292598
v -0.206034 0.075706 -0.281270
v -0.265839 0.079651 -0.250395
v -0.313684 0.081143 -0.209870
v -0.350186 0.079651 -0.160973
v -0.377920 0.075706 -0.105864
v -0.399780 0.070611 -0.047341
v -0.080345 0.076642 -0.280476
v -0.145357 0.090319 -0.256315
v -0.209294 0.102124 -0.222780
v -0.263623 0.106851 -0.178345
v -0.306021 0.102124 -0.123420
v -0.341306 0.090319 -0.061414
v -0.374832 0.076642 0.002477
v -0.019718 0.081860 -0.248288
v -0.081873 0.104454 -0.221174
v -0.145787 0.125637 -0.186849
v -0.206822 0.134689 -0.140768
v -0.256615 0.125637 -0.081370
v -0.299999 0.104454 -0.014268
v -0.343620 0.081860 0.052093
v 0.037195 0.091272 -0.206038
v -0.018977 0.121615 -0.174091
v -0.079802 0.139759 -0.137708
v -0.142403 0.148201 -0.090950
v -0.201060 0.136354 -0.030162
v -0.253471 0.110473 0.036868
v -0.305205 0.083947 0.100228
v 0.087494 0.097674 -0.155432
v 0.039761 0.130481 -0.115827
v -0.015272 0.139915 -0.073810
v -0.075059 0.134761 -0.025131
v -0.137059 0.125637 0.031670
v -0.198474 0.104454 0.091079
v -0.257298 0.081860 0.144949
v 0.128452 0.086537 -0.099636
v 0.090611 0.101179 -0.051943
v 0.043308 0.105043 -0.003916
v -0.011433 0.106851 0.045411
v -0.071412 0.102124 0.095444
v -0.134421 0.090319 0.142959
v -0.198244 0.076642 0.183317
v 0.157679 0.071180 -0.042677
v 0.130050 0.075706 0.009813
v 0.091532 0.079651 0.060250
v 0.043658 0.081143 0.107380
v -0.011713 0.079651 0.149672
v -0.072474 0.075706 0.185219
v -0.136340 0.070611 0.198974
v 0.431034 0.029591 0.104593
v 0.460443 0.029591 0.059444
v 0.478553 0.029591 0.010454
v 0.484668 0.029591 -0.040494
v 0.478553 0.030925 -0.091441
v 0.460443 0.032853 -0.140431
v 0.431034 0.032157 -0.185580
vn 0.0873 -0.8807 0.4656
vn -0.0000 -0.8351 0.5500
vn -0.0839 -0.8856 0.4569
vn 0.0004 -0.7886 0.6149
vn -0.1444 -0.9028 0.4051
vn -0.1452 -0.8084 0.5705
vn -0.1997 -0.7771 0.5968
vn -0.1918 -0.7884 0.5846
vn -0.3834 -0.6908 0.6131
vn -0.2943 -0.7633 0.5751
vn -0.5821 -0.6566 0.4796
vn -0.4886 -0.7986 0.3515
vn -0.7136 -0.6456 0.2720
vn -0.6444 -0.7625 0.0580
vn -0.3731 -0.9278 0.0077
vn -0.5597 -0.8233 -0.0939
vn -0.2146 -0.9766 -0.0123
vn -0.1656 -0.9853 -0.0431
vn 0.1533 -0.8997 0.4087
vn 0.1509 -0.8035 0.5759
vn 0.0058 -0.7724 0.6352
vn -0.1362 -0.8166 0.5609
vn -0.1562 -0.8906 0.4272
vn -0.2903 -0.9511 0.1052
vn -0.4763 -0.8551 -0.2047
vn -0.4321 -0.8736 -0.2237
vn -0.1397 -0.9879 -0.0675
vn 0.2221 -0.9138 0.3400
vn 0.2802 -0.8258 0.4894
vn 0.2309 -0.8168 0.5288
vn 0.0341 -0.9326 0.3592
vn -0.0541 -0.9790 0.1964
vn -0.1668 -0.9832 -0.0739
vn -0.3518 -0.8830 -0.3107
vn -0.3531 -0.8918 -0.2829
vn -0.1902 -0.9711 -0.1439
vn 0.2835 -0.9231 0.2597
vn 0.3902 -0.8437 0.3686
vn 0.3885 -0.8412 0.3761
vn 0.1882 -0.9628 0.1941
vn 0.0413 -0.9991 0.0136
vn -0.0930 -0.9789 -0.1819
vn -0.2620 -0.9003 -0.3477
vn -0.2855 -0.8980 -0.3349
vn -0.2071 -0.9492 -0.2370
vn 0.3292 -0.9270 0.1798
vn 0.4698 -0.8482 0.2446
vn 0.4923 -0.8462 0.2041
vn 0.3021 -0.9532 0.0108
vn 0.1504 -0.9789 -0.1381
vn -0.0029 -0.9685 -0.2488
vn -0.1768 -0.9031 -0.3914
vn -0.2192 -0.8953 -0.3878
vn -0.1606 -0.9472 -0.2774
vn 0.3602 -0.9260 0.1130
vn 0.5114 -0.8512 0.1185
vn 0.5579 -0.8299 -0.0065
vn 0.4285 -0.8842 -0.1861
vn 0.3108 -0.9033 -0.2958
vn 0.1849 -0.9035 -0.3866
vn 0.0003 -0.8740 -0.4859
vn -0.1249 -0.8887 -0.4411
vn -0.1156 -0.9424 -0.3138
vn 0.3906 -0.9185 0.0608
vn 0.5051 -0.8630 -0.0044
vn 0.4659 -0.8757 -0.1270
vn 0.4000 -0.8890 -0.2231
vn 0.3197 -0.8985 -0.3007
vn 0.2304 -0.8982 -0.3744
vn 0.1259 -0.8908 -0.4365
vn 0.0010 -0.8806 -0.4738
vn -0.0697 -0.9314 -0.3572
vn 0.4472 -0.8944 -0.0000
vn 0.3603 -0.9309 -0.0592
vn 0.3165 -0.9431 -0.1015
vn 0.2747 -0.9493 -0.1526
vn 0.2231 -0.9519 -0.2100
vn 0.1664 -0.9502 -0.2634
vn 0.1137 -0.9447 -0.3075
vn 0.0677 -0.9339 -0.3509
vn -0.0000 -0.9002 -0.4354
vn -0.0000 -1.0000 -0.0041
vn 0.0004 -0.9998 -0.0207
vn 0.0005 -0.9995 -0.0309
vn 0.0001 -0.9999 -0.0127
vn -0.0000 -1.0000 -0.0000
vn -0.0004 -0.9999 0.0153
vn -0.1247 0.5499 -0.8258
vn -0.0020 0.7249 -0.6889
vn 0.1273 0.5672 -0.8137
vn -0.0000 0.5759 -0.8175
vn 0.1455 0.7583 -0.6354
vn 0.2746 0.6340 -0.7229
vn 0.2488 0.7797 -0.5746
vn 0.3680 0.6657 -0.6492
vn 0.3433 0.7819 -0.5204
vn 0.4591 0.6655 -0.5886
vn 0.4886 0.7986 -0.3515
vn 0.5821 0.6566 -0.4796
vn 0.5995 0.7850 -0.1563
vn 0.7012 0.6307 -0.3324
vn 0.6944 0.7188 0.0355
vn 0.8013 0.5711 -0.1782
vn 0.7521 0.6234 0.2138
vn 0.8862 0.4633 0.0057
vn -0.2859 0.6028 -0.7449
vn -0.1555 0.7486 -0.6446
vn -0.0069 0.8919 -0.4522
vn 0.0775 0.9010 -0.4267
vn 0.1507 0.9218 -0.3572
vn 0.2903 0.9511 -0.1052
vn 0.3622 0.9259 0.1076
vn 0.5078 0.8286 0.2358
vn 0.6098 0.7183 0.3351
vn -0.4192 0.6599 -0.6235
vn -0.2974 0.7929 -0.5319
vn -0.1307 0.9110 -0.3912
vn -0.0339 0.9326 -0.3593
vn 0.0541 0.9790 -0.1964
vn 0.1668 0.9832 0.0739
vn 0.2516 0.9447 0.2103
vn 0.3983 0.8651 0.3048
vn 0.5067 0.7586 0.4096
vn -0.5312 0.6899 -0.4917
vn -0.4183 0.8176 -0.3957
vn -0.2684 0.9268 -0.2627
vn -0.1877 0.9628 -0.1945
vn -0.0408 0.9991 -0.0136
vn 0.0930 0.9789 0.1819
vn 0.1699 0.9553 0.2420
vn 0.3117 0.8767 0.3663
vn 0.4205 0.7684 0.4824
vn -0.6257 0.6897 -0.3643
vn -0.5067 0.8237 -0.2547
vn -0.3519 0.9300 -0.1059
vn -0.3019 0.9533 -0.0111
vn -0.1500 0.9790 0.1382
vn 0.0031 0.9685 0.2489
vn 0.0851 0.9582 0.2731
vn 0.2309 0.8711 0.4335
vn 0.3445 0.7547 0.5583
vn -0.7082 0.6562 -0.2604
vn -0.5633 0.8130 -0.1474
vn -0.3501 0.9367 -0.0002
vn -0.3195 0.9434 0.0893
vn -0.2082 0.9576 0.1992
vn -0.0831 0.9582 0.2738
vn 0.0040 0.9524 0.3048
vn 0.1337 0.8394 0.5268
vn 0.2520 0.7171 0.6498
vn -0.9430 0.2962 -0.1516
vn -0.6624 0.7492 0.0020
vn -0.5136 0.8458 0.1442
vn -0.4324 0.8743 0.2206
vn -0.3366 0.8871 0.3160
vn -0.2360 0.8812 0.4096
vn -0.1313 0.8478 0.5138
vn 0.0005 0.8089 0.5880
vn 0.1103 0.6627 0.7408
vn -0.9736 0.2283 -0.0004
vn -0.9293 0.3331 0.1597
vn -0.6241 0.7389 0.2541
vn -0.5283 0.7843 0.3253
vn -0.4389 0.7981 0.4128
vn -0.3515 0.7852 0.5098
vn -0.2522 0.7440 0.6187
vn -0.1143 0.6783 0.7259
vn -0.0000 0.6437 0.7653
vn -0.0000 1.0000 0.0041
vn -0.0005 0.9995 0.0329
vn -0.0005 0.9995 0.0309
vn -0.0004 0.9998 0.0207
vn -0.0001 0.9999 0.0128
vn -0.0000 1.0000 -0.0000
vn -0.0001 0.9999 0.0127
vn 0.0004 0.9999 -0.0153
vn -0.7266 -0.0139 -0.6869
vn -0.8686 -0.0099 -0.4954
vn -0.8673 -0.0099 -0.4977
vn -0.7250 -0.0139 -0.6886
vn 0.1699 -0.0190 -0.9853
vn -0.0000 -0.0178 -0.9998
vn 0.1674 -0.0189 -0.9857
vn 0.3380 0.0193 0.9410
vn 0.5012 0.0177 0.8651
vn 0.5023 0.0176 0.8645
vn 0.3388 0.0193 0.9407
vn -0.9532 -0.0059 -0.3024
vn -0.9524 -0.0059 -0.3047
vn 0.6550 0.0153 0.7555
vn 0.6563 0.0153 0.7544
vn -0.9908 -0.0024 -0.1353
vn 0.0209 0.0201 0.9996
vn 0.7258 0.0139 0.6877
vn -1.0000 0.0004 0.0008
vn -0.9905 0.0032 0.1373
vn 0.0317 -0.0201 -0.9993
vn -0.9524 0.0067 0.3046
vn -0.9532 0.0066 0.3024
vn 0.8379 0.0103 0.5458
vn 0.8929 0.0084 0.4502
vn 0.8940 0.0084 0.4479
vn -0.8673 0.0106 0.4977
vn -0.8686 0.0106 0.4954
vn -0.7250 0.0145 0.6886
vn -0.7266 0.0145 0.6869
vn 0.9718 0.0042 0.2359
vn 0.9724 0.0042 0.2332
vn 1.0000 -0.0004 0.0025
vn 1.0000 -0.0005 -0.0025
vn -0.5382 0.0176 0.8426
vn -0.5396 0.0176 0.8417
vn 0.9729 -0.0049 -0.2310
vn 0.9712 -0.0050 -0.2384
vn -0.3458 0.0195 0.9381
vn -0.3466 0.0195 0.9378
vn -0.1700 -0.0189 -0.9853
vn -0.1673 -0.0188 -0.9857
vn 0.7262 -0.0145 -0.6873
vn 0.6555 -0.0158 -0.7551
vn 0.6563 -0.0158 -0.7543
vn 0.8944 -0.0091 -0.4473
vn 0.8925 -0.0092 -0.4510
vn -0.1700 0.0204 0.9852
vn -0.1703 0.0204 0.9852
vn -0.3466 -0.0192 -0.9378
vn -0.3458 -0.0192 -0.9381
vn 0.5022 -0.0180 -0.8646
vn 0.5015 -0.0180 -0.8650
vn 0.8379 -0.0110 -0.5456
vn -0.0000 0.0206 0.9998
vn -0.5397 -0.0172 -0.8417
vn -0.5382 -0.0172 -0.8426
vn 0.3387 -0.0195 -0.9407
vn 0.3380 -0.0195 -0.9409
vn 0.1699 0.0203 0.9852
vn 0.1704 0.0203 0.9852
vt 0.000000 0.000000
s 1
f 2/1/1 1/1/2 32/1/3 33/1/4
f 33/1/4 32/1/3 31/1/5 40/1/6
f 40/1/6 31/1/5 30/1/7 47/1/8
f 47/1/8 30/1/7 29/1/9 54/1/10
f 54/1/10 29/1/9 28/1/11 61/1/12
f 61/1/12 28/1/11 27/1/13 68/1/14
f 68/1/14 27/1/13 26/1/15 75/1/16
f 75/1/16 26/1/15 25/1/17 24/1/18
f 3/1/19 2/1/1 33/1/4 34/1/20
f 34/1/20 33/1/4 40/1/6 41/1/21
f 41/1/21 40/1/6 47/1/8 48/1/22
f 48/1/22 47/1/8 54/1/10 55/1/23
f 55/1/23 54/1/10 61/1/12 62/1/24
f 62/1/24 61/1/12 68/1/14 69/1/25
f 69/1/25 68/1/14 75/1/16 76/1/26
f 76/1/26 75/1/16 24/1/18 23/1/27
f 4/1/28 3/1/19 34/1/20 35/1/29
f 35/1/29 34/1/20 41/1/21 42/1/30
f 42/1/30 41/1/21 48/1/22 49/1/31
f 49/1/31 48/1/22 55/1/23 56/1/32
f 56/1/32 55/1/23 62/1/24 63/1/33
f 63/1/33 62/1/24 69/1/25 70/1/34
f 70/1/34 69/1/25 76/1/26 77/1/35
f 77/1/35 76/1/26 23/1/27 22/1/36
f 5/1/37 4/1/28 35/1/29 36/1/38
f 36/1/38 35/1/29 42/1/30 43/1/39
f 43/1/39 42/1/30 49/1/31 50/1/40
f 50/1/40 49/1/31 56/1/32 57/1/41
f 57/1/41 56/1/32 63/1/33 64/1/42
f 64/1/42 63/1/33 70/1/34 71/1/43
f 71/1/43 70/1/34 77/1/35 78/1/44
f 78/1/44 77/1/35 22/1/36 21/1/45
f 6/1/46 5/1/37 36/1/38 37/1/47
f 37/1/47 36/1/38 43/1/39 44/1/48
f 44/1/48 43/1/39 50/1/40 51/1/49
f 51/1/49 50/1/40 57/1/41 58/1/50
f 58/1/50 57/1/41 64/1/42 65/1/51
f 65/1/51 64/1/42 71/1/43 72/1/52
f 72/1/52 71/1/43 78/1/44 79/1/53
f 79/1/53 78/1/44 21/1/45 20/1/54
f 7/1/55 6/1/46 37/1/47 38/1/56
f 38/1/56 37/1/47 44/1/48 45/1/57
f 45/1/57 44/1/48 51/1/49 52/1/58
f 52/1/58 51/1/49 58/1/50 59/1/59
f 59/1/59 58/1/50 65/1/51 66/1/60
f 66/1/60 65/1/51 72/1/52 73/1/61
f 73/1/61 72/1/52 79/1/53 80/1/62
f 80/1/62 79/1/53 20/1/54 19/1/63
f 8/1/64 7/1/55 38/1/56 39/1/65
f 39/1/65 38/1/56 45/1/57 46/1/66
f 46/1/66 45/1/57 52/1/58 53/1/67
f 53/1/67 52/1/58 59/1/59 60/1/68
f 60/1/68 59/1/59 66/1/60 67/1/69
f 67/1/69 66/1/60 73/1/61 74/1/70
f 74/1/70 73/1/61 80/1/62 81/1/71
f 81/1/71 80/1/62 19/1/63 18/1/72
f 9/1/73 8/1/64 39/1/65 10/1/74
f 10/1/74 39/1/65 46/1/66 11/1/75
f 11/1/75 46/1/66 53/1/67 12/1/76
f 12/1/76 53/1/67 60/1/68 13/1/77
f 13/1/77 60/1/68 67/1/69 14/1/78
f 14/1/78 67/1/69 74/1/70 15/1/79
f 15/1/79 74/1/70 81/1/71 16/1/80
f 16/1/80 81/1/71 18/1/72 17/1/81
f 27/1/82 87/1/83 86/1/84 26/1/15
f 25/1/17 85/1/85 84/1/86 24/1/18
f 23/1/27 83/1/86 82/1/86 22/1/36
f 28/1/87 88/1/87 87/1/83 27/1/82
f 26/1/15 86/1/84 85/1/85 25/1/17
f 24/1/18 84/1/86 83/1/86 23/1/27
f 90/1/88 121/1/89 120/1/90 89/1/91
f 121/1/89 128/1/92 119/1/93 120/1/90
f 128/1/92 135/1/94 118/1/95 119/1/93
f 135/1/94 142/1/96 117/1/97 118/1/95
f 142/1/96 149/1/98 116/1/99 117/1/97
f 149/1/98 156/1/100 115/1/101 116/1/99
f 156/1/100 163/1/102 114/1/103 115/1/101
f 163/1/102 112/1/104 113/1/105 114/1/103
f 91/1/106 122/1/107 121/1/89 90/1/88
f 122/1/107 129/1/108 128/1/92 121/1/89
f 129/1/108 136/1/109 135/1/94 128/1/92
f 136/1/109 143/1/110 142/1/96 135/1/94
f 143/1/110 150/1/111 149/1/98 142/1/96
f 150/1/111 157/1/112 156/1/100 149/1/98
f 157/1/112 164/1/113 163/1/102 156/1/100
f 164/1/113 111/1/114 112/1/104 163/1/102
f 92/1/115 123/1/116 122/1/107 91/1/106
f 123/1/116 130/1/117 129/1/108 122/1/107
f 130/1/117 137/1/118 136/1/109 129/1/108
f 137/1/118 144/1/119 143/1/110 136/1/109
f 144/1/119 151/1/120 150/1/111 143/1/110
f 151/1/120 158/1/121 157/1/112 150/1/111
f 158/1/121 165/1/122 164/1/113 157/1/112
f 165/1/122 110/1/123 111/1/114 164/1/113
f 93/1/124 124/1/125 123/1/116 92/1/115
f 124/1/125 131/1/126 130/1/117 123/1/116
f 131/1/126 138/1/127 137/1/118 130/1/117
f 138/1/127 145/1/128 144/1/119 137/1/118
f 145/1/128 152/1/129 151/1/120 144/1/119
f 152/1/129 159/1/130 158/1/121 151/1/120
f 159/1/130 166/1/131 165/1/122 158/1/121
f 166/1/131 109/1/132 110/1/123 165/1/122
f 94/1/133 125/1/134 124/1/125 93/1/124
f 125/1/134 132/1/135 131/1/126 124/1/125
f 132/1/135 139/1/136 138/1/127 131/1/126
f 139/1/136 146/1/137 145/1/128 138/1/127
f 146/1/137 153/1/138 152/1/129 145/1/128
f 153/1/138 160/1/139 159/1/130 152/1/129
f 160/1/139 167/1/140 166/1/131 159/1/130
f 167/1/140 108/1/141 109/1/132 166/1/131
f 95/1/142 126/1/143 125/1/134 94/1/133
f 126/1/143 133/1/144 132/1/135 125/1/134
f 133/1/144 140/1/145 139/1/136 132/1/135
f 140/1/145 147/1/146 146/1/137 139/1/136
f 147/1/146 154/1/147 153/1/138 146/1/137
f 154/1/147 161/1/148 160/1/139 153/1/138
f 161/1/148 168/1/149 167/1/140 160/1/139
f 168/1/149 107/1/150 108/1/141 167/1/140
f 96/1/151 127/1/152 126/1/143 95/1/142
f 127/1/152 134/1/153 133/1/144 126/1/143
f 134/1/153 141/1/154 140/1/145 133/1/144
f 141/1/154 148/1/155 147/1/146 140/1/145
f 148/1/155 155/1/156 154/1/147 147/1/146
f 155/1/156 162/1/157 161/1/148 154/1/147
f 162/1/157 169/1/158 168/1/149 161/1/148
f 169/1/158 106/1/159 107/1/150 168/1/149
f 97/1/160 98/1/161 127/1/152 96/1/151
f 98/1/161 99/1/162 134/1/153 127/1/152
f 99/1/162 100/1/163 141/1/154 134/1/153
f 100/1/163 101/1/164 148/1/155 141/1/154
f 101/1/164 102/1/165 155/1/156 148/1/155
f 102/1/165 103/1/166 162/1/157 155/1/156
f 103/1/166 104/1/167 169/1/158 162/1/157
f 104/1/167 105/1/168 106/1/159 169/1/158
f 115/1/169 114/1/170 174/1/171 175/1/172
f 113/1/173 112/1/174 172/1/174 173/1/175
f 111/1/174 110/1/174 170/1/174 171/1/174
f 116/1/176 115/1/169 175/1/172 176/1/176
f 114/1/170 113/1/173 173/1/175 174/1/171
f 112/1/174 111/1/174 171/1/174 172/1/174
f 5/1/177 6/1/178 94/1/179 93/1/180
f 32/1/181 1/1/182 89/1/182 120/1/183
f 19/1/184 20/1/185 108/1/186 107/1/187
f 6/1/178 7/1/188 95/1/189 94/1/179
f 20/1/185 21/1/190 109/1/191 108/1/186
f 7/1/188 8/1/192 96/1/151 95/1/189
f 22/1/193 82/1/193 170/1/193 110/1/193
f 21/1/190 22/1/194 110/1/194 109/1/191
f 8/1/192 9/1/195 97/1/160 96/1/151
f 9/1/195 10/1/196 98/1/161 97/1/160
f 88/1/197 28/1/197 116/1/197 176/1/197
f 10/1/196 11/1/198 99/1/199 98/1/161
f 82/1/200 83/1/201 171/1/202 170/1/200
f 11/1/198 12/1/203 100/1/204 99/1/199
f 12/1/203 13/1/205 101/1/206 100/1/204
f 83/1/201 84/1/207 172/1/208 171/1/202
f 84/1/207 85/1/209 173/1/210 172/1/208
f 13/1/205 14/1/211 102/1/212 101/1/206
f 85/1/209 86/1/213 174/1/214 173/1/210
f 14/1/211 15/1/215 103/1/216 102/1/212
f 1/1/182 2/1/217 90/1/218 89/1/182
f 28/1/219 29/1/220 117/1/221 116/1/219
f 86/1/213 87/1/222 175/1/223 174/1/214
f 15/1/215 16/1/224 104/1/225 103/1/216
f 2/1/217 3/1/226 91/1/227 90/1/218
f 29/1/220 30/1/228 118/1/229 117/1/221
f 87/1/222 88/1/230 176/1/230 175/1/223
f 16/1/224 17/1/231 105/1/231 104/1/225
f 3/1/226 4/1/232 92/1/233 91/1/227
f 30/1/228 31/1/234 119/1/235 118/1/229
f 17/1/231 18/1/236 106/1/237 105/1/231
f 4/1/232 5/1/177 93/1/180 92/1/233
f 31/1/234 32/1/181 120/1/183 119/1/235
f 18/1/236 19/1/184 107/1/187 106/1/237
