# Blender 3.6.5
# www.blender.org
mtllib luggageXL.mtl
o TopLuggageXL
v 0.568124 3.387105 -9.998608
v 0.568124 3.379882 -12.777709
v 5.639360 3.379882 -12.777709
v 5.639360 3.387105 -9.998608
v 0.583697 3.340024 -9.902735
v 0.465886 3.339737 -10.013363
v 0.524791 3.339986 -9.917557
v 0.481669 3.339880 -9.958050
v 0.465886 3.332590 -12.763218
v 0.583697 3.332302 -12.873848
v 0.481669 3.332446 -12.818533
v 0.524791 3.332341 -12.859026
v 5.741598 3.339737 -10.013363
v 5.623787 3.340024 -9.902735
v 5.725814 3.339880 -9.958050
v 5.682693 3.339986 -9.917557
v 5.623787 3.332302 -12.873848
v 5.741598 3.332590 -12.763218
v 5.682693 3.332341 -12.859026
v 5.725814 3.332446 -12.818533
v 0.549191 4.144568 -9.978694
v 0.481669 4.144628 -9.955782
v 0.524791 4.144733 -9.915289
v 0.549191 4.137253 -12.793352
v 0.524791 4.137088 -12.856758
v 0.481669 4.137193 -12.816265
v 5.658293 4.137253 -12.793352
v 5.725814 4.137193 -12.816265
v 5.682693 4.137088 -12.856758
v 5.658293 4.144568 -9.978694
v 5.682693 4.144733 -9.915289
v 5.725814 4.144628 -9.955782
v 0.549288 4.144568 -9.978785
v 0.568124 4.132126 -9.996509
v 0.562607 4.140905 -9.991302
v 0.568124 4.124904 -12.775610
v 0.549288 4.137253 -12.793262
v 0.562607 4.133655 -12.780766
v 5.639360 4.132126 -9.996509
v 5.658196 4.144568 -9.978785
v 5.644876 4.140905 -9.991302
v 5.639360 4.124904 -12.775610
v 5.658196 4.137253 -12.793262
v 5.644876 4.133655 -12.780766
v 0.484722 4.144503 -10.003770
v 0.465886 4.132088 -10.011131
v 0.470760 4.144528 -9.994011
v 0.471403 4.140859 -10.008962
v 0.583697 4.132376 -9.900502
v 0.575895 4.144725 -9.918156
v 0.565503 4.144760 -9.905046
v 0.581412 4.141128 -9.905659
v 0.575895 4.137095 -12.853891
v 0.583697 4.124654 -12.871615
v 0.565503 4.137062 -12.867002
v 0.581412 4.133432 -12.866409
v 0.465886 4.124941 -12.760985
v 0.484722 4.137318 -12.768277
v 0.470760 4.137292 -12.778036
v 0.471403 4.133701 -12.763107
v 5.722763 4.137318 -12.768277
v 5.741598 4.124941 -12.760985
v 5.736723 4.137292 -12.778036
v 5.736081 4.133701 -12.763107
v 5.623787 4.124654 -12.871615
v 5.631589 4.137095 -12.853891
v 5.641981 4.137062 -12.867002
v 5.626072 4.133432 -12.866409
v 5.631589 4.144725 -9.918156
v 5.623787 4.132376 -9.900502
v 5.641981 4.144760 -9.905046
v 5.626072 4.141128 -9.905659
v 5.741598 4.132088 -10.011131
v 5.722763 4.144503 -10.003770
v 5.736723 4.144528 -9.994011
v 5.736081 4.140859 -10.008962
vn -0.0000 1.0000 -0.0026
vn 0.2440 0.0027 -0.9698
vn -0.0000 0.0028 -1.0000
vn -0.9616 0.0008 -0.2744
vn -0.2440 -0.0027 0.9698
vn -1.0000 -0.0000 -0.0000
vn -0.0000 -0.0028 1.0000
vn -0.9616 -0.0008 0.2744
vn -0.2440 0.0027 -0.9698
vn 0.9616 0.0008 -0.2744
vn 0.2440 -0.0027 0.9698
vn -0.6845 -0.0021 0.7290
vn -0.6845 0.0021 -0.7290
vn 1.0000 -0.0000 -0.0000
vn 0.6845 0.0021 -0.7290
vn 0.9616 -0.0008 0.2744
vn 0.6845 -0.0021 0.7290
vn -0.0000 -1.0000 0.0026
vn -0.1673 0.9558 -0.2418
vn -0.8143 0.5546 -0.1711
vn 0.1533 0.5310 0.8334
vn 0.2255 0.9582 0.1763
vn 0.2251 0.9574 -0.1809
vn 0.1526 0.5332 -0.8321
vn -0.8152 0.5542 0.1684
vn -0.1677 0.9568 0.2374
vn 0.1677 0.9568 0.2374
vn 0.8152 0.5542 0.1684
vn -0.1526 0.5332 -0.8321
vn -0.2251 0.9574 -0.1809
vn -0.2255 0.9582 0.1763
vn -0.1533 0.5310 0.8334
vn 0.8144 0.5546 -0.1711
vn 0.1673 0.9558 -0.2418
vn 0.8463 0.5327 -0.0014
vn 0.2630 0.9648 -0.0025
vn -0.0000 0.5076 0.8616
vn -0.0000 0.9610 0.2767
vn -0.8463 0.5327 -0.0014
vn -0.2630 0.9648 -0.0025
vn -0.0000 0.5101 -0.8601
vn -0.0000 0.9598 -0.2808
vn -0.0000 0.9610 0.2766
vn -0.0004 1.0000 -0.0025
vn -0.0001 1.0000 -0.0028
vn 0.0002 1.0000 -0.0027
vn 0.0001 1.0000 -0.0023
vn -0.0000 1.0000 -0.0022
vn -0.0003 1.0000 -0.0024
vn -0.0000 1.0000 -0.0029
vn -0.2440 0.0028 -0.9698
vn 0.9616 0.0007 -0.2744
vn -0.0000 0.9598 -0.2809
vt 0.871947 0.505090
vt 0.873230 0.502951
vt 0.871052 0.506582
vt 0.375000 0.497209
vt 0.621149 0.494417
vt 0.625000 0.495279
vt 0.629845 0.741922
vt 0.870155 0.741922
vt 0.375000 0.245346
vt 0.621149 0.240691
vt 0.625000 0.242129
vt 0.621149 0.994417
vt 0.625000 1.000000
vt 0.375000 1.000000
vt 0.874107 0.741308
vt 0.875000 0.745346
vt 0.871052 0.743418
vt 0.871048 0.506590
vt 0.874107 0.508692
vt 0.629845 0.508078
vt 0.628952 0.743410
vt 0.625893 0.741308
vt 0.628948 0.506582
vt 0.870155 0.508078
vt 0.871048 0.743410
vt 0.869787 0.748512
vt 0.628948 0.743418
vt 0.628952 0.506590
vt 0.630213 0.501488
vt 0.625000 0.004654
vt 0.621149 0.009309
vt 0.375000 0.009309
vt 0.873230 0.747049
vt 0.621149 0.755583
vt 0.375000 0.994417
vt 0.375000 0.755583
vt 0.621149 0.255583
vt 0.375000 0.252791
vt 0.625000 0.252791
vt 0.875000 0.504654
vt 0.628053 0.505090
vt 0.626770 0.502951
vt 0.621149 0.509309
vt 0.375000 0.504654
vt 0.625000 0.504654
vt 0.627791 0.500000
vt 0.630213 0.748512
vt 0.627791 0.750000
vt 0.375000 0.752791
vt 0.625000 0.752791
vt 0.626770 0.747049
vt 0.871947 0.744910
vt 0.375000 0.000000
vt 0.375000 0.004654
vt 0.375000 0.240691
vt 0.375000 0.494417
vt 0.375000 0.255583
vt 0.625000 0.245346
vt 0.375000 0.740691
vt 0.375000 0.509309
vt 0.625000 0.497209
vt 0.375000 0.745346
vt 0.621149 0.740691
vt 0.625000 0.742129
vt 0.625000 0.745346
vt 0.628053 0.744910
vt 0.369417 0.750000
vt 0.125000 0.740691
vt 0.874739 0.740872
vt 0.875000 0.742129
vt 0.875000 0.740691
vt 0.872209 0.745346
vt 0.872132 0.745218
vt 0.872524 0.745872
vt 0.872132 0.504782
vt 0.872524 0.504128
vt 0.872209 0.504654
vt 0.875000 0.509309
vt 0.874739 0.509128
vt 0.875000 0.507871
vt 0.625000 0.508361
vt 0.623872 0.509309
vt 0.625000 0.507871
vt 0.623872 0.494417
vt 0.625000 0.494417
vt 0.625000 0.755583
vt 0.623872 0.755583
vt 0.623872 0.740691
vt 0.625000 0.740691
vt 0.625000 0.009309
vt 0.630583 0.750000
vt 0.625000 0.994417
vt 0.869417 0.500000
vt 0.869787 0.501488
vt 0.625000 0.255583
vt 0.625000 0.509309
vt 0.625893 0.508692
vt 0.625000 0.996142
vt 0.625000 0.007871
vt 0.625000 0.254721
vt 0.627476 0.504128
vt 0.629721 0.750000
vt 0.625000 0.754721
vt 0.625000 0.000000
vt 0.629721 0.500000
vt 0.627476 0.745872
vt 0.125000 0.509309
vt 0.125748 0.504654
vt 0.127791 0.501247
vt 0.130583 0.500000
vt 0.369417 0.500000
vt 0.372209 0.501247
vt 0.374252 0.504654
vt 0.374252 0.745346
vt 0.372209 0.748753
vt 0.130583 0.750000
vt 0.127791 0.748753
vt 0.125748 0.745346
vt 0.625000 0.240691
vt 0.869417 0.750000
vt 0.630583 0.500000
s 0
usemtl Material.011
f 53/1/1 25/2/1 24/3/1
f 19/4/2 65/5/2 67/6/2
f 39/7/3 1/8/3 34/8/3
f 11/9/4 57/10/4 59/11/4
f 49/12/5 23/13/5 7/14/5
f 45/15/1 22/16/1 21/17/1
f 37/18/1 58/19/1 21/17/1
f 39/7/6 3/20/6 4/7/6
f 40/21/1 74/22/1 27/23/1
f 2/24/1 4/7/1 3/20/1
f 33/25/1 50/26/1 30/27/1
f 36/24/7 3/20/7 42/20/7
f 43/28/1 66/29/1 24/3/1
f 22/30/8 46/31/8 6/32/8
f 22/16/1 23/33/1 21/17/1
f 70/34/7 5/35/7 14/36/7
f 54/37/9 12/38/9 25/39/9
f 25/2/1 26/40/1 24/3/1
f 61/41/1 28/42/1 27/23/1
f 62/43/10 20/44/10 28/45/10
f 28/42/1 29/46/1 27/23/1
f 69/47/1 31/48/1 30/27/1
f 70/34/11 16/49/11 31/50/11
f 31/48/1 32/51/1 30/27/1
f 23/33/1 50/52/1 21/17/1
f 7/53/12 22/30/12 8/54/12
f 46/31/6 9/55/6 6/32/6
f 54/37/3 17/56/3 10/57/3
f 25/39/13 11/9/13 26/58/13
f 26/40/1 58/19/1 24/3/1
f 62/43/14 13/59/14 18/60/14
f 20/44/15 29/61/15 28/45/15
f 29/46/1 66/29/1 27/23/1
f 15/62/16 73/63/16 75/64/16
f 16/49/17 32/65/17 31/50/17
f 32/51/1 74/66/1 30/27/1
f 18/60/18 14/67/18 6/68/18
f 45/15/19 48/69/19 47/70/19
f 48/69/20 46/71/20 47/70/20
f 49/72/21 52/73/21 51/74/21
f 52/73/22 50/52/22 51/74/22
f 53/1/23 56/75/23 55/76/23
f 56/75/24 54/77/24 55/76/24
f 57/78/25 60/79/25 59/80/25
f 60/79/26 58/19/26 59/80/26
f 61/81/27 64/82/27 63/83/27
f 64/82/28 62/43/28 63/83/28
f 65/5/29 68/84/29 67/85/29
f 68/84/30 66/85/30 67/85/30
f 69/86/31 72/87/31 71/86/31
f 72/87/32 70/34/32 71/86/32
f 73/63/33 76/88/33 75/89/33
f 76/88/34 74/89/34 75/89/34
f 34/8/35 38/24/35 35/8/35
f 38/24/36 33/25/36 35/8/36
f 42/20/37 38/24/37 36/24/37
f 44/20/38 37/18/38 38/24/38
f 39/7/39 44/20/39 42/20/39
f 41/7/40 43/28/40 44/20/40
f 34/8/41 41/7/41 39/7/41
f 41/7/42 33/25/42 40/21/42
f 45/15/40 60/78/40 48/71/40
f 48/90/39 57/10/39 46/31/39
f 50/26/43 72/91/43 69/47/43
f 52/92/37 70/34/37 72/86/37
f 66/29/42 56/93/42 53/94/42
f 68/85/41 54/37/41 56/95/41
f 74/22/36 64/96/36 61/97/36
f 76/89/35 62/43/35 64/96/35
f 34/8/14 2/24/14 36/24/14
f 53/1/1 55/76/1 25/2/1
f 67/6/2 29/61/2 19/4/2
f 19/4/2 17/56/2 65/5/2
f 39/7/3 4/7/3 1/8/3
f 59/11/4 26/58/4 11/9/4
f 11/9/4 9/55/4 57/10/4
f 7/14/5 5/35/5 49/12/5
f 49/12/5 51/98/5 23/13/5
f 45/15/1 47/70/1 22/16/1
f 21/17/44 33/25/44 37/18/44
f 37/18/45 24/3/45 58/19/45
f 58/19/1 45/15/1 21/17/1
f 39/7/6 42/20/6 3/20/6
f 27/23/46 43/28/46 40/21/46
f 40/21/47 30/27/47 74/22/47
f 74/22/1 61/97/1 27/23/1
f 2/24/1 1/8/1 4/7/1
f 30/27/48 40/21/48 33/25/48
f 33/25/49 21/17/49 50/26/49
f 50/26/1 69/47/1 30/27/1
f 36/24/7 2/24/7 3/20/7
f 24/3/50 37/18/50 43/28/50
f 43/28/46 27/23/46 66/29/46
f 66/29/1 53/94/1 24/3/1
f 6/32/8 8/54/8 22/30/8
f 22/30/8 47/99/8 46/31/8
f 70/34/7 49/12/7 5/35/7
f 25/39/51 55/100/51 54/37/51
f 54/37/9 10/57/9 12/38/9
f 61/41/1 63/101/1 28/42/1
f 28/45/52 63/83/52 62/43/52
f 62/43/10 18/60/10 20/44/10
f 69/47/1 71/102/1 31/48/1
f 31/50/11 71/103/11 70/34/11
f 70/34/11 14/36/11 16/49/11
f 23/33/1 51/74/1 50/52/1
f 7/53/12 23/104/12 22/30/12
f 46/31/6 57/10/6 9/55/6
f 54/37/3 65/5/3 17/56/3
f 25/39/13 12/38/13 11/9/13
f 26/40/1 59/80/1 58/19/1
f 62/43/14 73/63/14 13/59/14
f 20/44/15 19/4/15 29/61/15
f 29/46/1 67/105/1 66/29/1
f 75/64/16 32/65/16 15/62/16
f 15/62/16 13/59/16 73/63/16
f 16/49/17 15/62/17 32/65/17
f 32/51/1 75/106/1 74/66/1
f 6/68/18 9/107/18 11/108/18
f 11/108/18 12/109/18 10/110/18
f 10/110/18 17/111/18 19/112/18
f 19/112/18 20/113/18 18/60/18
f 18/60/18 13/59/18 15/114/18
f 15/114/18 16/115/18 14/67/18
f 14/67/18 5/116/18 7/117/18
f 7/117/18 8/118/18 6/68/18
f 6/68/18 11/108/18 10/110/18
f 10/110/18 19/112/18 18/60/18
f 18/60/18 15/114/18 14/67/18
f 14/67/18 7/117/18 6/68/18
f 6/68/18 10/110/18 18/60/18
f 34/8/35 36/24/35 38/24/35
f 38/24/36 37/18/36 33/25/36
f 42/20/37 44/20/37 38/24/37
f 44/20/38 43/28/38 37/18/38
f 39/7/39 41/7/39 44/20/39
f 41/7/40 40/21/40 43/28/40
f 34/8/41 35/8/41 41/7/41
f 41/7/42 35/8/42 33/25/42
f 45/15/40 58/19/40 60/78/40
f 48/90/39 60/119/39 57/10/39
f 50/26/43 52/120/43 72/91/43
f 52/92/37 49/12/37 70/34/37
f 66/29/53 68/121/53 56/93/53
f 68/85/41 65/5/41 54/37/41
f 74/22/36 76/89/36 64/96/36
f 76/89/35 73/63/35 62/43/35
f 34/8/14 1/8/14 2/24/14
o TopLuggageXL.001
v 0.497312 6.031658 -14.992470
v 0.471463 6.030811 -15.017773
v 0.479034 6.036068 -15.005283
v 0.471463 4.119507 -12.793994
v 0.497312 4.142841 -12.794774
v 0.479034 4.131350 -12.789144
v 5.712423 4.119507 -12.793994
v 5.686574 4.142841 -12.794774
v 5.704852 4.131350 -12.789144
v 5.712423 6.030811 -15.017773
v 5.686574 6.031658 -14.992470
v 5.704852 6.036068 -15.005283
v 0.497158 4.107506 -12.830461
v 0.471463 4.108348 -12.805308
v 0.478989 4.103124 -12.817724
v 5.686728 4.107506 -12.830461
v 5.712423 4.108348 -12.805308
v 5.704897 4.103124 -12.817724
v 0.471463 6.019653 -15.029088
v 0.497158 5.996458 -15.028312
v 0.478989 6.007881 -15.033909
v 5.686728 5.996458 -15.028312
v 5.712423 6.019653 -15.029088
v 5.704897 6.007881 -15.033909
vn -0.0000 -0.7120 0.7022
vn -0.0000 0.7584 0.6518
vn 1.0000 -0.0000 -0.0000
vn -0.0000 0.7120 -0.7021
vn -0.8483 0.4016 0.3452
vn -0.2642 0.7314 0.6286
vn -0.0000 -0.3790 0.9254
vn -0.0000 0.4400 0.8980
vn 0.8486 0.4013 0.3449
vn 0.2660 0.7311 0.6283
vn -0.0000 0.9217 -0.3879
vn -0.0000 0.9456 0.3254
vn -0.0000 -0.7584 -0.6518
vn -0.2661 -0.7311 -0.6283
vn -0.8485 -0.4013 -0.3449
vn -0.0000 -0.9456 -0.3254
vn -0.0000 -0.9217 0.3879
vn 0.2642 -0.7314 -0.6286
vn 0.8482 -0.4016 -0.3452
vn -0.0000 -0.4400 -0.8980
vn -0.0000 0.3789 -0.9254
vn -1.0000 -0.0000 -0.0000
vn -0.0000 0.7120 -0.7022
vn -0.8486 0.4013 0.3449
vn -0.2660 0.7311 0.6283
vn 0.8483 0.4016 0.3452
vn 0.2642 0.7314 0.6287
vn -0.2642 -0.7314 -0.6287
vn -0.8482 -0.4017 -0.3452
vn 0.2661 -0.7310 -0.6283
vn 0.8485 -0.4013 -0.3449
vt 1.000000 0.000000
vt 0.000000 0.000000
vt 0.995068 0.008821
vt 0.004932 0.991179
vt 0.004932 0.008821
vt 1.000000 1.000000
vt 0.000000 1.000000
vt 0.000722 0.998708
vt 0.000722 0.001292
vt 0.999278 0.001292
vt 0.999278 0.998708
vt 0.995068 0.991179
vt 0.004903 0.991231
vt 0.995097 0.008769
vt 0.004903 0.008769
vt 0.000718 0.998716
vt 0.000718 0.001284
vt 0.999282 0.001284
vt 0.999282 0.998716
vt 0.995097 0.991232
s 0
usemtl Material.011
f 93/122/54 80/123/54 90/123/54
f 84/124/55 77/125/55 81/126/55
f 93/122/56 86/127/56 83/122/56
f 95/128/57 86/127/57 99/127/57
f 80/123/58 79/129/58 78/128/58
f 82/130/59 77/125/59 79/129/59
f 83/122/60 82/130/60 80/123/60
f 85/131/61 81/126/61 82/130/61
f 83/122/62 88/132/62 85/131/62
f 85/131/63 87/133/63 84/124/63
f 78/128/64 88/132/64 86/127/64
f 79/129/65 87/133/65 88/132/65
f 96/134/66 92/135/66 89/136/66
f 89/136/67 97/137/67 96/134/67
f 91/138/68 95/128/68 97/137/68
f 92/135/69 91/138/69 89/136/69
f 94/139/70 90/123/70 91/138/70
f 92/135/71 100/140/71 94/139/71
f 94/139/72 99/127/72 93/122/72
f 98/141/73 97/137/73 100/140/73
f 97/137/74 99/127/74 100/140/74
f 90/123/75 78/128/75 95/128/75
f 93/122/54 83/122/54 80/123/54
f 84/124/55 87/133/55 77/125/55
f 93/122/56 99/127/56 86/127/56
f 95/128/76 78/128/76 86/127/76
f 80/123/77 82/130/77 79/129/77
f 82/130/78 81/126/78 77/125/78
f 83/122/60 85/131/60 82/130/60
f 85/131/61 84/124/61 81/126/61
f 83/122/79 86/127/79 88/132/79
f 85/131/80 88/132/80 87/133/80
f 78/128/64 79/129/64 88/132/64
f 79/129/65 77/125/65 87/133/65
f 96/134/66 98/141/66 92/135/66
f 89/136/81 91/138/81 97/137/81
f 91/138/82 90/123/82 95/128/82
f 92/135/69 94/139/69 91/138/69
f 94/139/70 93/122/70 90/123/70
f 92/135/83 98/141/83 100/140/83
f 94/139/84 100/140/84 99/127/84
f 98/141/73 96/134/73 97/137/73
f 97/137/74 95/128/74 99/127/74
f 90/123/75 80/123/75 78/128/75
