# Blender 3.6.5
# www.blender.org
o LuggageXL
v -1.023320 0.122778 0.176489
v -1.023320 0.122778 -1.596486
v 1.034987 0.122778 -1.596486
v 1.034987 0.122778 0.176489
v -1.016999 0.090043 0.237738
v -1.064817 0.090043 0.167161
v -1.040908 0.090043 0.228283
v -1.058410 0.090043 0.202450
v -1.064817 0.090043 -1.587156
v -1.016999 0.090043 -1.657734
v -1.058410 0.090043 -1.622445
v -1.040908 0.090043 -1.648278
v 1.076483 0.090043 0.167161
v 1.028666 0.090043 0.237738
v 1.070077 0.090043 0.202450
v 1.052574 0.090043 0.228283
v 1.028666 0.090043 -1.657734
v 1.076483 0.090043 -1.587156
v 1.052574 0.090043 -1.648278
v 1.070077 0.090043 -1.622445
v -1.031005 0.646632 0.187832
v -1.058410 0.646632 0.202450
v -1.040908 0.646632 0.228282
v -1.031005 0.646632 -1.607827
v -1.040908 0.646632 -1.648278
v -1.058410 0.646632 -1.622445
v 1.042671 0.646632 -1.607827
v 1.070077 0.646632 -1.622445
v 1.052574 0.646632 -1.648278
v 1.042671 0.646632 0.187832
v 1.052574 0.646632 0.228282
v 1.070077 0.646632 0.202450
v -1.030966 0.646632 0.187774
v -1.023320 0.638059 0.176489
v -1.025559 0.644121 0.179795
v -1.023320 0.638059 -1.596486
v -1.030966 0.646632 -1.607770
v -1.025559 0.644121 -1.599791
v 1.034987 0.638059 0.176489
v 1.042632 0.646632 0.187774
v 1.037226 0.644121 0.179795
v 1.034987 0.638059 -1.596486
v 1.042632 0.646632 -1.607770
v 1.037226 0.644121 -1.599791
v -1.057172 0.646632 0.171834
v -1.064817 0.638059 0.167161
v -1.062838 0.646632 0.178061
v -1.062577 0.644121 0.168529
v -1.016999 0.638059 0.237738
v -1.020166 0.646632 0.226454
v -1.024384 0.646632 0.234817
v -1.017927 0.644121 0.234433
v -1.020166 0.646632 -1.646449
v -1.016999 0.638059 -1.657734
v -1.024384 0.646632 -1.654813
v -1.017927 0.644121 -1.654428
v -1.064817 0.638059 -1.587156
v -1.057172 0.646632 -1.591830
v -1.062838 0.646632 -1.598056
v -1.062577 0.644121 -1.588525
v 1.068838 0.646632 -1.591830
v 1.076483 0.638059 -1.587156
v 1.074504 0.646632 -1.598056
v 1.074244 0.644121 -1.588525
v 1.028666 0.638059 -1.657734
v 1.031832 0.646632 -1.646449
v 1.036050 0.646632 -1.654813
v 1.029593 0.644121 -1.654428
v 1.031832 0.646632 0.226454
v 1.028666 0.638059 0.237738
v 1.036050 0.646632 0.234817
v 1.029593 0.644121 0.234433
v 1.076483 0.638059 0.167161
v 1.068838 0.646632 0.171834
v 1.074504 0.646632 0.178061
v 1.074244 0.644121 0.168529
vn -0.0000 1.0000 -0.0000
vn 0.3678 -0.0000 -0.9299
vn -0.0000 -0.0000 -1.0000
vn -0.9839 -0.0000 -0.1786
vn -0.3678 -0.0000 0.9299
vn -1.0000 -0.0000 -0.0000
vn -0.0000 -0.0000 1.0000
vn -0.9839 -0.0000 0.1786
vn -0.3678 -0.0000 -0.9299
vn 0.9839 -0.0000 -0.1786
vn 0.3678 -0.0000 0.9299
vn -0.8279 -0.0000 0.5609
vn -0.8279 -0.0000 -0.5609
vn 1.0000 -0.0000 -0.0000
vn 0.8279 -0.0000 -0.5609
vn 0.9839 -0.0000 0.1786
vn 0.8279 -0.0000 0.5609
vn -0.0000 -1.0000 -0.0000
vn -0.2767 0.9274 -0.2519
vn -0.9218 0.3680 -0.1222
vn 0.2413 0.4928 0.8360
vn 0.3657 0.9123 0.1844
vn 0.3657 0.9123 -0.1844
vn 0.2414 0.4928 -0.8360
vn -0.9217 0.3681 0.1222
vn -0.2767 0.9273 0.2519
vn 0.2767 0.9273 0.2519
vn 0.9217 0.3681 0.1222
vn -0.2414 0.4928 -0.8360
vn -0.3657 0.9123 -0.1844
vn -0.3657 0.9123 0.1844
vn -0.2413 0.4928 0.8360
vn 0.9218 0.3680 -0.1222
vn 0.2767 0.9274 -0.2519
vn 0.9380 0.3465 -0.0000
vn 0.4212 0.9070 -0.0000
vn -0.0000 0.4787 0.8780
vn -0.0000 0.9539 0.3002
vn -0.9381 0.3465 -0.0000
vn -0.4212 0.9069 -0.0000
vn -0.0000 0.4787 -0.8780
vn -0.0000 0.9539 -0.3001
vn -0.4213 0.9069 -0.0000
vn -0.9380 0.3465 -0.0000
vn -0.0000 0.9539 0.3001
vn -0.0000 0.9539 -0.3002
vn 0.4213 0.9069 -0.0000
vn 0.9381 0.3465 -0.0000
vn -0.0000 1.0000 -0.0004
vn -0.0000 1.0000 0.0004
vn -0.3678 0.0001 -0.9299
vn 0.4212 0.9069 -0.0000
vn -0.4212 0.9070 -0.0000
vt 0.871947 0.505090
vt 0.873230 0.502951
vt 0.871052 0.506582
vt 0.375000 0.497209
vt 0.621149 0.494417
vt 0.625000 0.495279
vt 0.629845 0.741922
vt 0.870155 0.741922
vt 0.375000 0.245346
vt 0.621149 0.240691
vt 0.625000 0.242129
vt 0.621149 0.994417
vt 0.625000 1.000000
vt 0.375000 1.000000
vt 0.875000 0.742129
vt 0.871052 0.743418
vt 0.874107 0.741308
vt 0.871048 0.506590
vt 0.874107 0.508692
vt 0.629845 0.508078
vt 0.628952 0.743410
vt 0.625893 0.741308
vt 0.628948 0.506582
vt 0.870155 0.508078
vt 0.871048 0.743410
vt 0.869787 0.748512
vt 0.628948 0.743418
vt 0.628952 0.506590
vt 0.630213 0.501488
vt 0.625000 0.004654
vt 0.621149 0.009309
vt 0.375000 0.009309
vt 0.875000 0.745346
vt 0.873230 0.747049
vt 0.621149 0.755583
vt 0.375000 0.994417
vt 0.375000 0.755583
vt 0.621149 0.255583
vt 0.375000 0.252791
vt 0.625000 0.252791
vt 0.875000 0.504654
vt 0.627476 0.504128
vt 0.628053 0.505090
vt 0.621149 0.509309
vt 0.375000 0.504654
vt 0.625000 0.504654
vt 0.626770 0.502951
vt 0.627791 0.500000
vt 0.630213 0.748512
vt 0.627791 0.750000
vt 0.375000 0.752791
vt 0.625000 0.752791
vt 0.626770 0.747049
vt 0.871947 0.744910
vt 0.625000 0.000000
vt 0.375000 0.004654
vt 0.375000 0.000000
vt 0.375000 0.240691
vt 0.375000 0.494417
vt 0.375000 0.255583
vt 0.625000 0.245346
vt 0.875000 0.507871
vt 0.375000 0.509309
vt 0.621149 0.740691
vt 0.375000 0.740691
vt 0.625000 0.497209
vt 0.375000 0.745346
vt 0.625000 0.742129
vt 0.625000 0.745346
vt 0.627476 0.745872
vt 0.369417 0.750000
vt 0.125000 0.740691
vt 0.874739 0.740872
vt 0.875000 0.740691
vt 0.872209 0.745346
vt 0.872132 0.745218
vt 0.872524 0.745872
vt 0.872132 0.504782
vt 0.872524 0.504128
vt 0.872209 0.504654
vt 0.875000 0.509309
vt 0.874739 0.509128
vt 0.625000 0.508361
vt 0.623872 0.509309
vt 0.625000 0.507871
vt 0.623872 0.494417
vt 0.625000 0.494417
vt 0.625000 0.755583
vt 0.623872 0.755583
vt 0.623872 0.740691
vt 0.625000 0.740691
vt 0.625000 0.009309
vt 0.630583 0.750000
vt 0.625000 0.994417
vt 0.869417 0.500000
vt 0.869787 0.501488
vt 0.625000 0.255583
vt 0.625893 0.508692
vt 0.625000 0.509309
vt 0.625000 0.996142
vt 0.625000 0.007871
vt 0.625000 0.254721
vt 0.629721 0.750000
vt 0.625000 0.754721
vt 0.629721 0.500000
vt 0.628053 0.744910
vt 0.125000 0.509309
vt 0.125748 0.504654
vt 0.127791 0.501247
vt 0.130583 0.500000
vt 0.369417 0.500000
vt 0.372209 0.501247
vt 0.374252 0.504654
vt 0.374252 0.745346
vt 0.372209 0.748753
vt 0.130583 0.750000
vt 0.127791 0.748753
vt 0.125748 0.745346
vt 0.625000 0.240691
vt 0.869417 0.750000
vt 0.630583 0.500000
s 0
f 53/1/1 25/2/1 24/3/1
f 19/4/2 65/5/2 67/6/2
f 39/7/3 1/8/3 34/8/3
f 11/9/4 57/10/4 59/11/4
f 49/12/5 23/13/5 7/14/5
f 47/15/1 21/16/1 45/17/1
f 37/18/1 58/19/1 21/16/1
f 39/7/6 3/20/6 4/7/6
f 40/21/1 74/22/1 27/23/1
f 2/24/1 4/7/1 3/20/1
f 33/25/1 50/26/1 30/27/1
f 36/24/7 3/20/7 42/20/7
f 43/28/1 66/29/1 24/3/1
f 22/30/8 46/31/8 6/32/8
f 22/33/1 23/34/1 21/16/1
f 70/35/7 5/36/7 14/37/7
f 54/38/9 12/39/9 25/40/9
f 25/2/1 26/41/1 24/3/1
f 63/42/1 27/23/1 61/43/1
f 62/44/10 20/45/10 28/46/10
f 28/47/1 29/48/1 27/23/1
f 69/49/1 31/50/1 30/27/1
f 70/35/11 16/51/11 31/52/11
f 31/50/1 32/53/1 30/27/1
f 23/34/1 50/54/1 21/16/1
f 23/55/12 8/56/12 7/57/12
f 46/31/6 9/58/6 6/32/6
f 54/38/3 17/59/3 10/60/3
f 12/39/13 26/61/13 25/40/13
f 59/62/1 24/3/1 26/41/1
f 18/63/14 73/64/14 13/65/14
f 20/45/15 29/66/15 28/46/15
f 29/48/1 66/29/1 27/23/1
f 15/67/16 73/64/16 75/68/16
f 16/51/17 32/69/17 31/52/17
f 75/70/1 30/27/1 32/53/1
f 18/63/18 14/71/18 6/72/18
f 45/17/19 48/73/19 47/15/19
f 48/73/20 46/74/20 47/15/20
f 49/75/21 52/76/21 51/77/21
f 52/76/22 50/54/22 51/77/22
f 53/1/23 56/78/23 55/79/23
f 56/78/24 54/80/24 55/79/24
f 57/81/25 60/82/25 59/62/25
f 60/82/26 58/19/26 59/62/26
f 61/83/27 64/84/27 63/85/27
f 64/84/28 62/44/28 63/85/28
f 65/5/29 68/86/29 67/87/29
f 68/86/30 66/87/30 67/87/30
f 69/88/31 72/89/31 71/88/31
f 72/89/32 70/35/32 71/88/32
f 73/64/33 76/90/33 75/91/33
f 76/90/34 74/91/34 75/91/34
f 34/8/35 38/24/35 35/8/35
f 35/8/36 37/18/36 33/25/36
f 36/24/37 44/20/37 38/24/37
f 44/20/38 37/18/38 38/24/38
f 39/7/39 44/20/39 42/20/39
f 41/7/40 43/28/40 44/20/40
f 39/7/41 35/8/41 41/7/41
f 35/8/42 40/21/42 41/7/42
f 58/19/43 48/74/43 45/17/43
f 48/92/44 57/10/44 46/31/44
f 50/26/45 72/93/45 69/49/45
f 52/94/37 70/35/37 72/88/37
f 66/29/46 56/95/46 53/96/46
f 56/97/41 65/5/41 54/38/41
f 61/98/47 76/91/47 64/99/47
f 76/91/48 62/44/48 64/99/48
f 34/8/14 2/24/14 36/24/14
f 53/1/1 55/79/1 25/2/1
f 67/6/2 29/66/2 19/4/2
f 19/4/2 17/59/2 65/5/2
f 39/7/3 4/7/3 1/8/3
f 59/11/4 26/61/4 11/9/4
f 11/9/4 9/58/4 57/10/4
f 7/14/5 5/36/5 49/12/5
f 49/12/5 51/100/5 23/13/5
f 47/15/1 22/33/1 21/16/1
f 21/16/1 33/25/1 37/18/1
f 37/18/1 24/3/1 58/19/1
f 58/19/1 45/17/1 21/16/1
f 39/7/6 42/20/6 3/20/6
f 27/23/1 43/28/1 40/21/1
f 40/21/1 30/27/1 74/22/1
f 74/22/1 61/98/1 27/23/1
f 2/24/1 1/8/1 4/7/1
f 30/27/1 40/21/1 33/25/1
f 33/25/49 21/16/49 50/26/49
f 50/26/1 69/49/1 30/27/1
f 36/24/7 2/24/7 3/20/7
f 24/3/1 37/18/1 43/28/1
f 43/28/50 27/23/50 66/29/50
f 66/29/1 53/96/1 24/3/1
f 6/32/8 8/56/8 22/30/8
f 22/30/8 47/101/8 46/31/8
f 70/35/7 49/12/7 5/36/7
f 25/40/51 55/102/51 54/38/51
f 54/38/9 10/60/9 12/39/9
f 63/42/1 28/47/1 27/23/1
f 28/46/10 63/85/10 62/44/10
f 62/44/10 18/63/10 20/45/10
f 69/49/1 71/103/1 31/50/1
f 31/52/11 71/104/11 70/35/11
f 70/35/11 14/37/11 16/51/11
f 23/34/1 51/77/1 50/54/1
f 23/55/12 22/30/12 8/56/12
f 46/31/6 57/10/6 9/58/6
f 54/38/3 65/5/3 17/59/3
f 12/39/13 11/9/13 26/61/13
f 59/62/1 58/19/1 24/3/1
f 18/63/14 62/44/14 73/64/14
f 20/45/15 19/4/15 29/66/15
f 29/48/1 67/105/1 66/29/1
f 75/68/16 32/69/16 15/67/16
f 15/67/16 13/65/16 73/64/16
f 16/51/17 15/67/17 32/69/17
f 75/70/1 74/106/1 30/27/1
f 6/72/18 9/107/18 11/108/18
f 11/108/18 12/109/18 10/110/18
f 10/110/18 17/111/18 19/112/18
f 19/112/18 20/113/18 18/63/18
f 18/63/18 13/65/18 15/114/18
f 15/114/18 16/115/18 14/71/18
f 14/71/18 5/116/18 7/117/18
f 7/117/18 8/118/18 6/72/18
f 6/72/18 11/108/18 10/110/18
f 10/110/18 19/112/18 18/63/18
f 18/63/18 15/114/18 14/71/18
f 14/71/18 7/117/18 6/72/18
f 6/72/18 10/110/18 18/63/18
f 34/8/48 36/24/48 38/24/48
f 35/8/52 38/24/52 37/18/52
f 36/24/37 42/20/37 44/20/37
f 44/20/38 43/28/38 37/18/38
f 39/7/44 41/7/44 44/20/44
f 41/7/53 40/21/53 43/28/53
f 39/7/41 34/8/41 35/8/41
f 35/8/42 33/25/42 40/21/42
f 58/19/43 60/81/43 48/74/43
f 48/92/39 60/119/39 57/10/39
f 50/26/45 52/120/45 72/93/45
f 52/94/37 49/12/37 70/35/37
f 66/29/46 68/121/46 56/95/46
f 56/97/41 68/87/41 65/5/41
f 61/98/47 74/22/47 76/91/47
f 76/91/35 73/64/35 62/44/35
f 34/8/14 1/8/14 2/24/14
o TopLuggageXL
v -1.052062 1.898210 -2.986923
v -1.062553 1.897670 -3.003064
v -1.059481 1.901283 -2.995106
v -1.062553 0.634470 -1.647645
v -1.052062 0.650610 -1.648185
v -1.059481 0.642652 -1.644572
v 1.064641 0.634470 -1.647645
v 1.054149 0.650610 -1.648185
v 1.061568 0.642652 -1.644572
v 1.064641 1.897670 -3.003064
v 1.054149 1.898210 -2.986923
v 1.061568 1.901283 -2.995106
v -1.052124 0.626236 -1.670889
v -1.062553 0.626773 -1.654844
v -1.059499 0.623181 -1.662755
v 1.054212 0.626236 -1.670889
v 1.064641 0.626773 -1.654844
v 1.061586 0.623181 -1.662755
v -1.062553 1.889972 -3.010263
v -1.052124 1.873928 -3.009726
v -1.059499 1.881839 -3.013317
v 1.054212 1.873928 -3.009726
v 1.064641 1.889972 -3.010263
v 1.061586 1.881839 -3.013317
vn -0.0000 -0.6830 0.7304
vn -0.0000 0.7316 0.6818
vn 1.0000 -0.0000 -0.0000
vn -0.0000 0.6831 -0.7304
vn -0.9345 0.2604 0.2426
vn -0.4096 0.6674 0.6220
vn -0.0000 -0.3516 0.9361
vn -0.0000 0.4134 0.9105
vn 0.9347 0.2600 0.2423
vn 0.4124 0.6665 0.6211
vn -0.0000 0.9105 -0.4134
vn -0.0000 0.9362 0.3516
vn -0.0000 -0.7316 -0.6818
vn -0.4125 -0.6664 -0.6211
vn -0.9347 -0.2601 -0.2424
vn -0.0000 -0.9362 -0.3516
vn -0.0000 -0.9106 0.4133
vn 0.4096 -0.6674 -0.6220
vn 0.9345 -0.2604 -0.2427
vn -0.0000 -0.4134 -0.9106
vn -0.0000 0.3516 -0.9362
vn -1.0000 -0.0000 -0.0000
vn -0.9347 0.2600 0.2423
vn -0.4124 0.6665 0.6211
vn 0.9345 0.2604 0.2426
vn 0.4096 0.6674 0.6220
vn -0.4096 -0.6674 -0.6220
vn -0.9345 -0.2604 -0.2427
vn 0.4125 -0.6664 -0.6211
vn 0.9347 -0.2601 -0.2424
vn -0.0000 -0.4133 -0.9106
vn -0.0000 0.3515 -0.9362
vt 1.000000 0.000000
vt 0.000000 0.000000
vt 0.995068 0.008821
vt 0.004932 0.991179
vt 0.004932 0.008821
vt 1.000000 1.000000
vt 0.000000 1.000000
vt 0.000722 0.998708
vt 0.000722 0.001292
vt 0.999278 0.001292
vt 0.999278 0.998708
vt 0.995068 0.991179
vt 0.004903 0.991231
vt 0.995097 0.008769
vt 0.004903 0.008769
vt 0.000718 0.998716
vt 0.000718 0.001284
vt 0.999282 0.001284
vt 0.999282 0.998716
vt 0.995097 0.991232
s 0
f 93/122/54 80/123/54 90/123/54
f 84/124/55 77/125/55 81/126/55
f 93/122/56 86/127/56 83/122/56
f 95/128/57 86/127/57 99/127/57
f 80/123/58 79/129/58 78/128/58
f 82/130/59 77/125/59 79/129/59
f 83/122/60 82/130/60 80/123/60
f 85/131/61 81/126/61 82/130/61
f 83/122/62 88/132/62 85/131/62
f 85/131/63 87/133/63 84/124/63
f 78/128/64 88/132/64 86/127/64
f 79/129/65 87/133/65 88/132/65
f 96/134/66 92/135/66 89/136/66
f 89/136/67 97/137/67 96/134/67
f 91/138/68 95/128/68 97/137/68
f 89/136/69 94/139/69 91/138/69
f 94/139/70 90/123/70 91/138/70
f 92/135/71 100/140/71 94/139/71
f 94/139/72 99/127/72 93/122/72
f 96/134/73 100/140/73 98/141/73
f 97/137/74 99/127/74 100/140/74
f 90/123/75 78/128/75 95/128/75
f 93/122/54 83/122/54 80/123/54
f 84/124/55 87/133/55 77/125/55
f 93/122/56 99/127/56 86/127/56
f 95/128/57 78/128/57 86/127/57
f 80/123/76 82/130/76 79/129/76
f 82/130/77 81/126/77 77/125/77
f 83/122/60 85/131/60 82/130/60
f 85/131/61 84/124/61 81/126/61
f 83/122/78 86/127/78 88/132/78
f 85/131/79 88/132/79 87/133/79
f 78/128/64 79/129/64 88/132/64
f 79/129/65 77/125/65 87/133/65
f 96/134/66 98/141/66 92/135/66
f 89/136/80 91/138/80 97/137/80
f 91/138/81 90/123/81 95/128/81
f 89/136/69 92/135/69 94/139/69
f 94/139/70 93/122/70 90/123/70
f 92/135/82 98/141/82 100/140/82
f 94/139/83 100/140/83 99/127/83
f 96/134/84 97/137/84 100/140/84
f 97/137/85 95/128/85 99/127/85
f 90/123/75 80/123/75 78/128/75
