# Blender 3.6.5
# www.blender.org
mtllib luggageXL.mtl
o TopLuggageXL
v 1.350245 5.179181 -14.436127
v 1.332864 5.178640 -14.452268
v 1.337955 5.182254 -14.444309
v 1.332864 3.915441 -13.096849
v 1.350245 3.931581 -13.097389
v 1.337955 3.923623 -13.093776
v 4.856897 3.915441 -13.096849
v 4.839516 3.931581 -13.097389
v 4.851807 3.923623 -13.093776
v 4.856897 5.178640 -14.452268
v 4.839516 5.179181 -14.436127
v 4.851807 5.182254 -14.444309
v 1.350142 3.907207 -13.120092
v 1.332864 3.907744 -13.104048
v 1.337925 3.904153 -13.111959
v 4.839620 3.907207 -13.120092
v 4.856897 3.907744 -13.104048
v 4.851836 3.904153 -13.111959
v 1.332864 5.170943 -14.459467
v 1.350142 5.154899 -14.458930
v 1.337925 5.162810 -14.462521
v 4.839620 5.154899 -14.458930
v 4.856897 5.170943 -14.459467
v 4.851836 5.162810 -14.462521
v 1.397859 3.403749 -11.272714
v 1.397859 3.403749 -13.045689
v 4.807769 3.403749 -13.045689
v 4.807769 3.403749 -11.272714
v 1.408331 3.371014 -11.211465
v 1.329114 3.371014 -11.282043
v 1.368722 3.371014 -11.220921
v 1.339727 3.371014 -11.246754
v 1.329114 3.371013 -13.036359
v 1.408331 3.371014 -13.106937
v 1.339727 3.371014 -13.071648
v 1.368722 3.371014 -13.097482
v 4.876514 3.371014 -11.282043
v 4.797298 3.371014 -11.211465
v 4.865901 3.371014 -11.246754
v 4.836906 3.371014 -11.220921
v 4.797298 3.371014 -13.106937
v 4.876514 3.371013 -13.036359
v 4.836906 3.371014 -13.097482
v 4.865901 3.371014 -13.071648
v 1.385128 3.927603 -11.261371
v 1.339727 3.927603 -11.246754
v 1.368722 3.927603 -11.220921
v 1.385128 3.927603 -13.057031
v 1.368722 3.927603 -13.097482
v 1.339727 3.927603 -13.071648
v 4.820500 3.927603 -13.057031
v 4.865901 3.927603 -13.071648
v 4.836906 3.927603 -13.097482
v 4.820500 3.927603 -11.261371
v 4.836906 3.927603 -11.220921
v 4.865901 3.927603 -11.246754
v 1.385194 3.927603 -11.261429
v 1.397859 3.919030 -11.272714
v 1.394150 3.925092 -11.269408
v 1.397859 3.919030 -13.045689
v 1.385194 3.927603 -13.056973
v 1.394150 3.925092 -13.048994
v 4.807769 3.919030 -11.272714
v 4.820435 3.927603 -11.261429
v 4.811479 3.925092 -11.269408
v 4.807769 3.919030 -13.045689
v 4.820435 3.927603 -13.056973
v 4.811479 3.925092 -13.048994
v 1.341779 3.927603 -11.277369
v 1.329114 3.919030 -11.282043
v 1.332392 3.927603 -11.271143
v 1.332824 3.925092 -11.280674
v 1.408331 3.919030 -11.211465
v 1.403085 3.927603 -11.222750
v 1.396097 3.927603 -11.214386
v 1.406794 3.925092 -11.214769
v 1.403085 3.927603 -13.095653
v 1.408331 3.919030 -13.106937
v 1.396097 3.927603 -13.104016
v 1.406794 3.925092 -13.103632
v 1.329114 3.919030 -13.036359
v 1.341779 3.927603 -13.041034
v 1.332392 3.927603 -13.047259
v 1.332824 3.925092 -13.037728
v 4.863849 3.927603 -13.041034
v 4.876514 3.919030 -13.036359
v 4.873237 3.927603 -13.047259
v 4.872805 3.925092 -13.037728
v 4.797298 3.919030 -13.106937
v 4.802544 3.927603 -13.095653
v 4.809532 3.927603 -13.104016
v 4.798834 3.925092 -13.103632
v 4.802544 3.927603 -11.222750
v 4.797298 3.919030 -11.211465
v 4.809532 3.927603 -11.214386
v 4.798834 3.925092 -11.214769
v 4.876514 3.919030 -11.282043
v 4.863849 3.927603 -11.277369
v 4.873237 3.927603 -11.271143
v 4.872805 3.925092 -11.280674
vn -0.0000 -0.6830 0.7304
vn -0.0000 0.7316 0.6818
vn 1.0000 -0.0000 -0.0000
vn -0.0000 0.6831 -0.7304
vn -0.8457 0.3904 0.3638
vn -0.2616 0.7061 0.6580
vn -0.0000 -0.3516 0.9361
vn -0.0000 0.4134 0.9105
vn 0.8461 0.3899 0.3634
vn 0.2636 0.7057 0.6576
vn -0.0000 0.9105 -0.4134
vn -0.0000 0.9362 0.3516
vn -0.0000 -0.7316 -0.6818
vn -0.2636 -0.7057 -0.6576
vn -0.8461 -0.3900 -0.3634
vn -0.0000 -0.9362 -0.3516
vn -0.0000 -0.9106 0.4133
vn 0.2616 -0.7061 -0.6580
vn 0.8457 -0.3904 -0.3638
vn -0.0000 -0.4134 -0.9106
vn -0.0000 0.3515 -0.9362
vn -1.0000 -0.0000 -0.0000
vn -0.0000 1.0000 -0.0000
vn 0.2322 -0.0000 -0.9727
vn -0.0000 -0.0000 -1.0000
vn -0.9576 -0.0000 -0.2880
vn -0.2322 -0.0000 0.9727
vn -0.0000 -0.0000 1.0000
vn -0.9576 -0.0000 0.2880
vn -0.2322 -0.0000 -0.9727
vn 0.9576 -0.0000 -0.2880
vn 0.2322 -0.0000 0.9727
vn -0.6652 -0.0000 0.7466
vn -0.6652 -0.0000 -0.7466
vn 0.6652 -0.0000 -0.7466
vn 0.9576 -0.0000 0.2880
vn 0.6652 -0.0000 0.7467
vn -0.0000 -1.0000 -0.0000
vn -0.1713 0.9508 -0.2582
vn -0.8204 0.5427 -0.1801
vn 0.1485 0.5021 0.8520
vn 0.2308 0.9537 0.1928
vn 0.2308 0.9537 -0.1928
vn 0.1485 0.5022 -0.8519
vn -0.8204 0.5427 0.1802
vn -0.1713 0.9508 0.2582
vn 0.1713 0.9508 0.2582
vn 0.8204 0.5427 0.1802
vn -0.1485 0.5022 -0.8519
vn -0.2308 0.9537 -0.1928
vn -0.2308 0.9537 0.1928
vn -0.1485 0.5021 0.8520
vn 0.8204 0.5427 -0.1801
vn 0.1713 0.9508 -0.2582
vn 0.8530 0.5220 -0.0000
vn 0.2699 0.9629 -0.0000
vn -0.0000 0.4787 0.8780
vn -0.0000 0.9539 0.3002
vn -0.8530 0.5219 -0.0000
vn -0.2700 0.9629 -0.0000
vn -0.0000 0.4787 -0.8780
vn -0.0000 0.9539 -0.3002
vn -0.8530 0.5220 -0.0000
vn -0.0000 0.9539 0.3001
vn 0.2700 0.9629 -0.0000
vn -0.0000 0.6831 -0.7303
vn -0.8461 0.3899 0.3634
vn -0.2636 0.7057 0.6577
vn 0.8457 0.3903 0.3638
vn 0.2616 0.7061 0.6580
vn -0.2616 -0.7061 -0.6580
vn -0.8457 -0.3904 -0.3638
vn 0.2636 -0.7057 -0.6576
vn 0.8461 -0.3900 -0.3634
vn -0.0004 1.0000 0.0001
vn -0.0001 1.0000 -0.0002
vn 0.0002 1.0000 -0.0001
vn 0.0001 1.0000 0.0003
vn -0.0000 1.0000 0.0004
vn -0.0003 1.0000 0.0002
vn -0.0000 1.0000 -0.0003
vn -0.2322 0.0001 -0.9727
vn 0.9576 -0.0001 -0.2880
vn -0.6652 -0.0000 0.7467
vn 0.6652 -0.0000 0.7466
vn 0.8530 0.5219 -0.0000
vn -0.2699 0.9629 -0.0000
vt 1.000000 0.000000
vt 0.000000 0.000000
vt 0.995068 0.008821
vt 0.004932 0.991179
vt 0.004932 0.008821
vt 1.000000 1.000000
vt 0.000000 1.000000
vt 0.000722 0.998708
vt 0.000722 0.001292
vt 0.999278 0.001292
vt 0.999278 0.998708
vt 0.995068 0.991179
vt 0.004903 0.991231
vt 0.995097 0.008769
vt 0.004903 0.008769
vt 0.000718 0.998716
vt 0.000718 0.001284
vt 0.999282 0.001284
vt 0.999282 0.998716
vt 0.995097 0.991232
vt 0.871947 0.505090
vt 0.873230 0.502951
vt 0.871052 0.506582
vt 0.375000 0.497209
vt 0.621149 0.494417
vt 0.625000 0.495279
vt 0.629845 0.741922
vt 0.870155 0.741922
vt 0.375000 0.245346
vt 0.621149 0.240691
vt 0.625000 0.242129
vt 0.621149 0.994417
vt 0.625000 1.000000
vt 0.375000 1.000000
vt 0.874107 0.741308
vt 0.875000 0.745346
vt 0.871052 0.743418
vt 0.871048 0.506590
vt 0.874107 0.508692
vt 0.629845 0.508078
vt 0.628952 0.743410
vt 0.625893 0.741308
vt 0.628948 0.506582
vt 0.870155 0.508078
vt 0.871048 0.743410
vt 0.869787 0.748512
vt 0.628948 0.743418
vt 0.628952 0.506590
vt 0.630213 0.501488
vt 0.625000 0.004654
vt 0.621149 0.009309
vt 0.375000 0.009309
vt 0.873230 0.747049
vt 0.621149 0.755583
vt 0.375000 0.994417
vt 0.375000 0.755583
vt 0.621149 0.255583
vt 0.375000 0.252791
vt 0.625000 0.252791
vt 0.875000 0.504654
vt 0.628053 0.505090
vt 0.626770 0.502951
vt 0.621149 0.509309
vt 0.375000 0.504654
vt 0.625000 0.504654
vt 0.627791 0.500000
vt 0.630213 0.748512
vt 0.627791 0.750000
vt 0.375000 0.752791
vt 0.625000 0.752791
vt 0.626770 0.747049
vt 0.871947 0.744910
vt 0.375000 0.000000
vt 0.375000 0.004654
vt 0.375000 0.240691
vt 0.375000 0.494417
vt 0.375000 0.255583
vt 0.625000 0.245346
vt 0.375000 0.740691
vt 0.375000 0.509309
vt 0.625000 0.497209
vt 0.375000 0.745346
vt 0.621149 0.740691
vt 0.625000 0.742129
vt 0.625000 0.745346
vt 0.628053 0.744910
vt 0.369417 0.750000
vt 0.125000 0.740691
vt 0.874739 0.740872
vt 0.875000 0.742129
vt 0.875000 0.740691
vt 0.872209 0.745346
vt 0.872132 0.745218
vt 0.872524 0.745872
vt 0.872132 0.504782
vt 0.872524 0.504128
vt 0.872209 0.504654
vt 0.875000 0.509309
vt 0.874739 0.509128
vt 0.875000 0.507871
vt 0.625000 0.508361
vt 0.623872 0.509309
vt 0.625000 0.507871
vt 0.623872 0.494417
vt 0.625000 0.494417
vt 0.625000 0.755583
vt 0.623872 0.755583
vt 0.623872 0.740691
vt 0.625000 0.740691
vt 0.625000 0.009309
vt 0.630583 0.750000
vt 0.625000 0.994417
vt 0.869417 0.500000
vt 0.869787 0.501488
vt 0.625000 0.255583
vt 0.625000 0.509309
vt 0.625893 0.508692
vt 0.625000 0.996142
vt 0.625000 0.007871
vt 0.625000 0.254721
vt 0.627476 0.504128
vt 0.629721 0.750000
vt 0.625000 0.754721
vt 0.625000 0.000000
vt 0.629721 0.500000
vt 0.627476 0.745872
vt 0.125000 0.509309
vt 0.125748 0.504654
vt 0.127791 0.501247
vt 0.130583 0.500000
vt 0.369417 0.500000
vt 0.372209 0.501247
vt 0.374252 0.504654
vt 0.374252 0.745346
vt 0.372209 0.748753
vt 0.130583 0.750000
vt 0.127791 0.748753
vt 0.125748 0.745346
vt 0.625000 0.240691
vt 0.869417 0.750000
vt 0.630583 0.500000
s 0
usemtl Material.011
f 17/1/1 4/2/1 14/2/1
f 8/3/2 1/4/2 5/5/2
f 17/1/3 10/6/3 7/1/3
f 19/7/4 10/6/4 23/6/4
f 4/2/5 3/8/5 2/7/5
f 6/9/6 1/4/6 3/8/6
f 7/1/7 6/9/7 4/2/7
f 9/10/8 5/5/8 6/9/8
f 7/1/9 12/11/9 9/10/9
f 9/10/10 11/12/10 8/3/10
f 2/7/11 12/11/11 10/6/11
f 3/8/12 11/12/12 12/11/12
f 20/13/13 16/14/13 13/15/13
f 13/15/14 21/16/14 20/13/14
f 15/17/15 19/7/15 21/16/15
f 16/14/16 15/17/16 13/15/16
f 18/18/17 14/2/17 15/17/17
f 16/14/18 24/19/18 18/18/18
f 18/18/19 23/6/19 17/1/19
f 22/20/20 21/16/20 24/19/20
f 21/16/21 23/6/21 24/19/21
f 14/2/22 2/7/22 19/7/22
f 77/21/23 49/22/23 48/23/23
f 43/24/24 89/25/24 91/26/24
f 63/27/25 25/28/25 58/28/25
f 35/29/26 81/30/26 83/31/26
f 73/32/27 47/33/27 31/34/27
f 69/35/23 46/36/23 45/37/23
f 61/38/23 82/39/23 45/37/23
f 63/27/22 27/40/22 28/27/22
f 64/41/23 98/42/23 51/43/23
f 26/44/23 28/27/23 27/40/23
f 57/45/23 74/46/23 54/47/23
f 60/44/28 27/40/28 66/40/28
f 67/48/23 90/49/23 48/23/23
f 46/50/29 70/51/29 30/52/29
f 46/36/23 47/53/23 45/37/23
f 94/54/28 29/55/28 38/56/28
f 78/57/30 36/58/30 49/59/30
f 49/22/23 50/60/23 48/23/23
f 85/61/23 52/62/23 51/43/23
f 86/63/31 44/64/31 52/65/31
f 52/62/23 53/66/23 51/43/23
f 93/67/23 55/68/23 54/47/23
f 94/54/32 40/69/32 55/70/32
f 55/68/23 56/71/23 54/47/23
f 47/53/23 74/72/23 45/37/23
f 31/73/33 46/50/33 32/74/33
f 70/51/22 33/75/22 30/52/22
f 78/57/25 41/76/25 34/77/25
f 49/59/34 35/29/34 50/78/34
f 50/60/23 82/39/23 48/23/23
f 86/63/3 37/79/3 42/80/3
f 44/64/35 53/81/35 52/65/35
f 53/66/23 90/49/23 51/43/23
f 39/82/36 97/83/36 99/84/36
f 40/69/37 56/85/37 55/70/37
f 56/71/23 98/86/23 54/47/23
f 42/80/38 38/87/38 30/88/38
f 69/35/39 72/89/39 71/90/39
f 72/89/40 70/91/40 71/90/40
f 73/92/41 76/93/41 75/94/41
f 76/93/42 74/72/42 75/94/42
f 77/21/43 80/95/43 79/96/43
f 80/95/44 78/97/44 79/96/44
f 81/98/45 84/99/45 83/100/45
f 84/99/46 82/39/46 83/100/46
f 85/101/47 88/102/47 87/103/47
f 88/102/48 86/63/48 87/103/48
f 89/25/49 92/104/49 91/105/49
f 92/104/50 90/105/50 91/105/50
f 93/106/51 96/107/51 95/106/51
f 96/107/52 94/54/52 95/106/52
f 97/83/53 100/108/53 99/109/53
f 100/108/54 98/109/54 99/109/54
f 58/28/55 62/44/55 59/28/55
f 62/44/56 57/45/56 59/28/56
f 66/40/57 62/44/57 60/44/57
f 68/40/58 61/38/58 62/44/58
f 63/27/59 68/40/59 66/40/59
f 65/27/60 67/48/60 68/40/60
f 58/28/61 65/27/61 63/27/61
f 65/27/62 57/45/62 64/41/62
f 69/35/60 84/98/60 72/91/60
f 72/110/63 81/30/63 70/51/63
f 74/46/64 96/111/64 93/67/64
f 76/112/57 94/54/57 96/106/57
f 90/49/62 80/113/62 77/114/62
f 92/105/61 78/57/61 80/115/61
f 98/42/65 88/116/65 85/117/65
f 100/109/55 86/63/55 88/116/55
f 58/28/3 26/44/3 60/44/3
f 17/1/1 7/1/1 4/2/1
f 8/3/2 11/12/2 1/4/2
f 17/1/3 23/6/3 10/6/3
f 19/7/66 2/7/66 10/6/66
f 4/2/67 6/9/67 3/8/67
f 6/9/68 5/5/68 1/4/68
f 7/1/7 9/10/7 6/9/7
f 9/10/8 8/3/8 5/5/8
f 7/1/69 10/6/69 12/11/69
f 9/10/70 12/11/70 11/12/70
f 2/7/11 3/8/11 12/11/11
f 3/8/12 1/4/12 11/12/12
f 20/13/13 22/20/13 16/14/13
f 13/15/71 15/17/71 21/16/71
f 15/17/72 14/2/72 19/7/72
f 16/14/16 18/18/16 15/17/16
f 18/18/17 17/1/17 14/2/17
f 16/14/73 22/20/73 24/19/73
f 18/18/74 24/19/74 23/6/74
f 22/20/20 20/13/20 21/16/20
f 21/16/21 19/7/21 23/6/21
f 14/2/22 4/2/22 2/7/22
f 77/21/23 79/96/23 49/22/23
f 91/26/24 53/81/24 43/24/24
f 43/24/24 41/76/24 89/25/24
f 63/27/25 28/27/25 25/28/25
f 83/31/26 50/78/26 35/29/26
f 35/29/26 33/75/26 81/30/26
f 31/34/27 29/55/27 73/32/27
f 73/32/27 75/118/27 47/33/27
f 69/35/23 71/90/23 46/36/23
f 45/37/75 57/45/75 61/38/75
f 61/38/76 48/23/76 82/39/76
f 82/39/23 69/35/23 45/37/23
f 63/27/22 66/40/22 27/40/22
f 51/43/77 67/48/77 64/41/77
f 64/41/78 54/47/78 98/42/78
f 98/42/23 85/117/23 51/43/23
f 26/44/23 25/28/23 28/27/23
f 54/47/79 64/41/79 57/45/79
f 57/45/80 45/37/80 74/46/80
f 74/46/23 93/67/23 54/47/23
f 60/44/28 26/44/28 27/40/28
f 48/23/81 61/38/81 67/48/81
f 67/48/77 51/43/77 90/49/77
f 90/49/23 77/114/23 48/23/23
f 30/52/29 32/74/29 46/50/29
f 46/50/29 71/119/29 70/51/29
f 94/54/28 73/32/28 29/55/28
f 49/59/82 79/120/82 78/57/82
f 78/57/30 34/77/30 36/58/30
f 85/61/23 87/121/23 52/62/23
f 52/65/83 87/103/83 86/63/83
f 86/63/31 42/80/31 44/64/31
f 93/67/23 95/122/23 55/68/23
f 55/70/32 95/123/32 94/54/32
f 94/54/32 38/56/32 40/69/32
f 47/53/23 75/94/23 74/72/23
f 31/73/84 47/124/84 46/50/84
f 70/51/22 81/30/22 33/75/22
f 78/57/25 89/25/25 41/76/25
f 49/59/34 36/58/34 35/29/34
f 50/60/23 83/100/23 82/39/23
f 86/63/3 97/83/3 37/79/3
f 44/64/35 43/24/35 53/81/35
f 53/66/23 91/125/23 90/49/23
f 99/84/36 56/85/36 39/82/36
f 39/82/36 37/79/36 97/83/36
f 40/69/85 39/82/85 56/85/85
f 56/71/23 99/126/23 98/86/23
f 30/88/38 33/127/38 35/128/38
f 35/128/38 36/129/38 34/130/38
f 34/130/38 41/131/38 43/132/38
f 43/132/38 44/133/38 42/80/38
f 42/80/38 37/79/38 39/134/38
f 39/134/38 40/135/38 38/87/38
f 38/87/38 29/136/38 31/137/38
f 31/137/38 32/138/38 30/88/38
f 30/88/38 35/128/38 34/130/38
f 34/130/38 43/132/38 42/80/38
f 42/80/38 39/134/38 38/87/38
f 38/87/38 31/137/38 30/88/38
f 30/88/38 34/130/38 42/80/38
f 58/28/86 60/44/86 62/44/86
f 62/44/56 61/38/56 57/45/56
f 66/40/57 68/40/57 62/44/57
f 68/40/58 67/48/58 61/38/58
f 63/27/59 65/27/59 68/40/59
f 65/27/87 64/41/87 67/48/87
f 58/28/61 59/28/61 65/27/61
f 65/27/62 59/28/62 57/45/62
f 69/35/60 82/39/60 84/98/60
f 72/110/63 84/139/63 81/30/63
f 74/46/64 76/140/64 96/111/64
f 76/112/57 73/32/57 94/54/57
f 90/49/62 92/141/62 80/113/62
f 92/105/61 89/25/61 78/57/61
f 98/42/65 100/109/65 88/116/65
f 100/109/55 97/83/55 86/63/55
f 58/28/3 25/28/3 26/44/3
