# Blender 3.6.5
# www.blender.org
mtllib phone.mtl
o Plane
v -0.197718 0.181007 1.040946
v -0.224347 0.181007 1.003779
v -0.207909 0.181007 1.038116
v -0.216547 0.181007 1.030060
v -0.222320 0.181007 1.018002
v 0.224347 0.181007 1.003779
v 0.197718 0.181007 1.040946
v 0.222320 0.181007 1.018002
v 0.216547 0.181007 1.030060
v 0.207909 0.181007 1.038116
v -0.224347 0.181007 0.208976
v -0.197718 0.181007 0.171809
v -0.222320 0.181007 0.194753
v -0.216547 0.181007 0.182695
v -0.207909 0.181007 0.174638
v 0.197718 0.181007 0.171809
v 0.224347 0.181007 0.208976
v 0.207909 0.181007 0.174638
v 0.216547 0.181007 0.182695
v 0.222320 0.181007 0.194753
v -0.197718 0.215963 0.171809
v -0.224347 0.215963 0.208976
v -0.207909 0.215963 0.174638
v -0.216547 0.215963 0.182695
v -0.222320 0.215963 0.194753
v -0.224347 0.215963 1.003779
v -0.197718 0.215963 1.040946
v -0.222320 0.215963 1.018002
v -0.216547 0.215963 1.030060
v -0.207909 0.215963 1.038116
v 0.197718 0.215963 1.040946
v 0.224347 0.215963 1.003779
v 0.207909 0.215963 1.038116
v 0.216547 0.215963 1.030060
v 0.222320 0.215963 1.018002
v 0.224347 0.215963 0.208976
v 0.197718 0.215963 0.171809
v 0.222320 0.215963 0.194753
v 0.216547 0.215963 0.182695
v 0.207909 0.215963 0.174638
vn -0.0000 -0.0000 1.0000
vn -0.0000 1.0000 -0.0000
vn 1.0000 -0.0000 -0.0000
vn -0.0000 -0.0000 -1.0000
vn -0.0000 -1.0000 -0.0000
vn -0.9900 -0.0000 -0.1411
vn -0.9020 -0.0000 -0.4318
vn -0.6820 -0.0000 -0.7313
vn -0.2675 -0.0000 -0.9636
vn 0.9900 -0.0000 -0.1411
vn 0.9020 -0.0000 -0.4318
vn 0.6820 -0.0000 -0.7313
vn 0.2675 -0.0000 -0.9636
vn 0.9900 -0.0000 0.1411
vn 0.9020 -0.0000 0.4318
vn 0.6820 -0.0000 0.7313
vn 0.2675 -0.0000 0.9636
vn -0.9900 -0.0000 0.1411
vn -0.9020 -0.0000 0.4318
vn -0.6820 -0.0000 0.7313
vn -0.2675 -0.0000 0.9636
vn -1.0000 -0.0000 -0.0000
vt 0.374843 0.120205
vt 0.758841 0.034344
vt 0.266623 0.986597
vt 0.234985 0.945359
vt 1.000000 0.957238
vt 1.000000 0.042762
vt 1.000000 0.042762
vt 0.005794 0.995825
vt 0.940654 0.000000
vt 0.000000 0.957238
vt 0.001506 0.973602
vt 0.036635 0.998915
vt 0.036635 0.998915
vt 0.059346 1.000000
vt 0.998494 0.973602
vt 0.994206 0.995825
vt 0.963365 0.998915
vt 0.963365 0.998915
vt 0.940654 1.000000
vt 0.998494 0.026398
vt 0.998494 0.026398
vt 0.994206 0.004175
vt 0.994206 0.004175
vt 0.963365 0.001085
vt 0.963365 0.001085
vt 0.940654 0.000000
vt 0.000000 0.042762
vt 0.001506 0.026398
vt 0.000000 0.042762
vt 0.001506 0.026398
vt 0.005794 0.004175
vt 0.036635 0.001085
vt 0.036635 0.001085
vt 0.059346 0.000000
vt 0.234985 0.063503
vt 0.237393 0.047722
vt 0.244251 0.034344
vt 0.254516 0.025404
vt 0.266623 0.022265
vt 0.736469 0.022265
vt 0.748577 0.025404
vt 0.765699 0.047722
vt 0.768108 0.063503
vt 0.768108 0.945359
vt 0.765699 0.961140
vt 0.758841 0.974519
vt 0.748577 0.983458
vt 0.736469 0.986597
vt 0.254516 0.983458
vt 0.244251 0.974519
vt 0.237393 0.961140
vt 0.059346 1.000000
vt 0.940654 1.000000
vt 0.059346 0.000000
s 0
usemtl Material.018
f 7/1/1 27/1/1 1/1/1
f 34/2/2 21/3/2 22/4/2
f 17/5/3 32/6/3 6/7/3
f 12/1/4 37/1/4 16/1/4
f 14/8/5 6/6/5 7/9/5
f 22/10/6 13/11/6 11/10/6
f 25/11/7 14/8/7 13/11/7
f 24/8/8 15/12/8 14/8/8
f 23/13/9 12/14/9 15/12/9
f 17/5/10 38/15/10 36/5/10
f 20/15/11 39/16/11 38/15/11
f 19/16/12 40/17/12 39/16/12
f 18/18/13 37/19/13 40/17/13
f 32/6/14 8/20/14 6/7/14
f 35/21/15 9/22/15 8/20/15
f 34/23/16 10/24/16 9/22/16
f 33/25/17 7/26/17 10/24/17
f 2/27/18 28/28/18 26/29/18
f 5/30/19 29/31/19 28/28/19
f 4/31/20 30/32/20 29/31/20
f 3/33/21 27/34/21 30/32/21
f 2/27/22 22/10/22 11/10/22
f 7/1/1 31/1/1 27/1/1
f 22/4/2 26/35/2 28/36/2
f 28/36/2 29/37/2 30/38/2
f 30/38/2 27/39/2 31/40/2
f 31/40/2 33/41/2 34/2/2
f 34/2/2 35/42/2 32/43/2
f 32/43/2 36/44/2 38/45/2
f 38/45/2 39/46/2 40/47/2
f 40/47/2 37/48/2 21/3/2
f 21/3/2 23/49/2 24/50/2
f 24/50/2 25/51/2 22/4/2
f 22/4/2 28/36/2 30/38/2
f 30/38/2 31/40/2 34/2/2
f 34/2/2 32/43/2 38/45/2
f 38/45/2 40/47/2 21/3/2
f 21/3/2 24/50/2 22/4/2
f 22/4/2 30/38/2 34/2/2
f 34/2/2 38/45/2 21/3/2
f 17/5/3 36/5/3 32/6/3
f 12/1/4 21/1/4 37/1/4
f 7/9/5 1/34/5 3/33/5
f 3/33/5 4/31/5 5/30/5
f 5/30/5 2/29/5 11/10/5
f 11/10/5 13/11/5 14/8/5
f 14/8/5 15/12/5 12/52/5
f 12/52/5 16/19/5 18/18/5
f 18/18/5 19/16/5 20/15/5
f 20/15/5 17/5/5 6/6/5
f 6/6/5 8/20/5 9/22/5
f 9/22/5 10/24/5 7/9/5
f 7/9/5 3/33/5 5/30/5
f 5/30/5 11/10/5 14/8/5
f 14/8/5 12/52/5 18/18/5
f 18/18/5 20/15/5 6/6/5
f 6/6/5 9/22/5 7/9/5
f 7/9/5 5/30/5 14/8/5
f 14/8/5 18/18/5 6/6/5
f 22/10/6 25/11/6 13/11/6
f 25/11/7 24/8/7 14/8/7
f 24/8/8 23/13/8 15/12/8
f 23/13/9 21/52/9 12/14/9
f 17/5/10 20/15/10 38/15/10
f 20/15/11 19/16/11 39/16/11
f 19/16/12 18/18/12 40/17/12
f 18/18/13 16/53/13 37/19/13
f 32/6/14 35/21/14 8/20/14
f 35/21/15 34/23/15 9/22/15
f 34/23/16 33/25/16 10/24/16
f 33/25/17 31/9/17 7/26/17
f 2/27/18 5/30/18 28/28/18
f 5/30/19 4/31/19 29/31/19
f 4/31/20 3/33/20 30/32/20
f 3/33/21 1/54/21 27/34/21
f 2/27/22 26/29/22 22/10/22
