# Blender 3.6.5
# www.blender.org
o room
v -11.943242 -0.272775 15.524202
v 11.943242 -0.272775 15.524202
v -11.943242 -0.272775 -15.524202
v 11.943242 -0.272775 -15.524202
v -11.350680 0.000000 -14.931641
v -11.350680 0.000000 14.931641
v 11.350680 0.000000 14.931641
v 11.350680 0.000000 -14.931641
v -11.350680 17.750612 -14.931641
v -11.350680 17.750612 14.931641
v 11.350680 17.750612 14.931641
v 11.350680 17.750612 -14.931641
v -11.943242 17.750612 -15.524202
v -11.943242 17.750612 15.524202
v 11.943242 17.750612 15.524202
v 11.943242 17.750612 -15.524202
v -11.943242 17.585987 15.524202
v 11.943242 17.585987 15.524202
v -11.943242 17.585987 -15.524202
v 11.943242 17.585987 -15.524202
vn -0.0000 1.0000 -0.0000
vn -1.0000 -0.0000 -0.0000
vn 1.0000 -0.0000 -0.0000
vn -0.0000 -0.0000 -1.0000
vn -0.0000 -0.0000 1.0000
vn -0.0000 -1.0000 -0.0000
vt 0.975193 0.019085
vt 0.024807 0.980915
vt 0.024807 0.019085
vt 0.975193 0.980915
vt 0.000000 0.000000
vt 1.000000 0.000000
vt 1.000000 1.000000
vt 0.000000 1.000000
s 0
f 7/1/1 5/2/1 6/3/1
f 7/1/2 12/4/2 8/4/2
f 1/5/2 13/5/2 3/5/2
f 4/5/3 15/5/3 2/5/3
f 6/3/4 11/1/4 7/1/4
f 9/2/1 14/5/1 10/3/1
f 10/3/1 15/6/1 11/1/1
f 11/1/1 16/7/1 12/4/1
f 12/4/1 13/8/1 9/2/1
f 5/2/3 10/3/3 6/3/3
f 3/5/4 16/5/4 4/5/4
f 2/5/5 14/5/5 1/5/5
f 8/4/5 9/2/5 5/2/5
f 4/5/6 1/5/6 3/5/6
f 20/5/6 17/5/6 19/5/6
f 7/1/1 8/4/1 5/2/1
f 7/1/2 11/1/2 12/4/2
f 1/5/2 14/5/2 13/5/2
f 4/5/3 16/5/3 15/5/3
f 6/3/4 10/3/4 11/1/4
f 9/2/1 13/8/1 14/5/1
f 10/3/1 14/5/1 15/6/1
f 11/1/1 15/6/1 16/7/1
f 12/4/1 16/7/1 13/8/1
f 5/2/3 9/2/3 10/3/3
f 3/5/4 13/5/4 16/5/4
f 2/5/5 15/5/5 14/5/5
f 8/4/5 12/4/5 9/2/5
f 4/5/6 2/5/6 1/5/6
f 20/5/6 18/5/6 17/5/6
