# Blender 3.6.5
# www.blender.org
mtllib room.mtl
o Room
v -7.161455 -1.000000 10.748566
v -6.914025 -0.718968 10.501135
v -7.161455 -1.000000 -10.752883
v -6.914025 -0.718968 -10.505453
v 7.155996 -1.000000 10.748566
v 6.908566 -0.718968 10.501135
v 7.155996 -1.000000 -10.752883
v 6.908566 -0.718968 -10.505453
v -7.161455 -0.718968 10.748566
v -7.161455 -0.718968 -10.752883
v 7.155996 -0.718968 -10.752883
v 7.155996 -0.718968 10.748566
v -7.161455 7.236094 10.748566
v -7.161455 7.236094 -10.752883
v 7.155996 7.236094 -10.752883
v 7.155996 7.236094 10.748566
v -6.914025 7.236094 10.501135
v -6.914025 7.236094 -10.505453
v 6.908566 7.236094 -10.505453
v 6.908566 7.236094 10.501135
v -7.128929 7.216370 -10.832049
v -7.128931 7.216370 10.827728
v 7.123472 7.216369 -10.832049
v 7.123470 7.216369 10.827732
vn -1.0000 -0.0000 -0.0000
vn -0.0000 -0.0000 -1.0000
vn 1.0000 -0.0000 -0.0000
vn -0.0000 -0.0000 1.0000
vn -0.0000 -1.0000 -0.0000
vn -0.0000 1.0000 -0.0000
vt 0.375000 0.000000
vt 0.625000 0.000000
vt 0.625000 0.250000
vt 0.375000 0.250000
vt 0.625000 0.500000
vt 0.375000 0.500000
vt 0.625000 0.750000
vt 0.375000 0.750000
vt 0.625000 1.000000
vt 0.375000 1.000000
vt 0.125000 0.500000
vt 0.125000 0.750000
vt 0.629320 0.502877
vt 0.870679 0.502877
vt 0.870680 0.747123
vt 0.629320 0.747123
vt 0.875000 0.500000
vt 0.875000 0.750000
s 0
f 1/1/1 9/2/1 10/3/1 3/4/1
f 3/4/2 10/3/2 11/5/2 7/6/2
f 7/6/3 11/5/3 12/7/3 5/8/3
f 5/8/4 12/7/4 9/9/4 1/10/4
f 3/11/5 7/6/5 5/8/5 1/12/5
f 8/13/6 4/14/6 2/15/6 6/16/6
f 12/7/3 11/5/3 15/5/3 16/7/3
f 2/15/3 4/14/3 18/14/3 17/15/3
f 8/13/1 6/16/1 20/16/1 19/13/1
f 11/5/2 10/3/2 14/3/2 15/5/2
f 17/15/6 18/14/6 14/17/6 13/18/6
f 18/14/6 19/13/6 15/5/6 14/17/6
f 19/13/6 20/16/6 16/7/6 15/5/6
f 20/16/6 17/15/6 13/18/6 16/7/6
f 6/16/2 2/15/2 17/15/2 20/16/2
f 4/14/4 8/13/4 19/13/4 18/14/4
f 10/3/1 9/2/1 13/2/1 14/3/1
f 9/9/4 12/7/4 16/7/4 13/9/4
f 24/13/5 22/14/5 21/15/5 23/16/5
