# Blender 3.6.5
# www.blender.org
mtllib trousers.mtl
o trousers
v 0.000000 0.181007 0.726650
v 0.910272 0.181007 1.924994
v 0.937640 0.181007 0.726650
v 1.000000 0.182502 0.038693
v 0.361271 0.181007 2.035292
v 0.000000 0.182502 0.038693
v 0.155157 0.206454 0.608606
v 0.910272 0.206521 1.943985
v 0.792607 0.206454 0.608606
v 0.870882 0.206193 0.150186
v 0.361271 0.206521 2.035292
v 0.118044 0.206193 0.150186
v 1.000000 0.181106 0.004714
v 0.000000 0.181106 0.004714
v 1.000000 0.197920 -0.010733
v 0.000000 0.197920 -0.010733
v 1.000000 0.177881 0.001781
v 0.000000 0.177881 0.001781
v 1.000000 0.174035 -0.025026
v 0.000000 0.174035 -0.025026
v 1.000000 0.172053 0.003717
v 0.000000 0.172053 0.003717
v 1.000000 0.154329 -0.014636
v 0.000000 0.154329 -0.014636
v 1.000000 0.162916 0.022852
v 0.000000 0.162916 0.022852
v 1.000000 0.138084 0.016989
v 0.000000 0.138084 0.016989
v 1.000000 0.163252 0.066842
v 0.000000 0.163252 0.066842
v 1.000000 0.137749 0.066062
v 0.000000 0.137749 0.066062
v 1.000000 0.150561 0.274115
v 0.000000 0.150561 0.274115
v 1.000000 0.125059 0.273335
v 0.000000 0.125059 0.273335
v 1.000000 0.150567 0.447158
v 0.000000 0.150567 0.447158
v 1.000000 0.125053 0.447159
v 0.000000 0.125053 0.447159
v 1.000000 0.150567 0.709423
v 0.000000 0.150567 0.709423
v 1.000000 0.125053 0.709423
v 0.000000 0.125053 0.709423
v -0.910272 0.181007 1.924994
v -0.937640 0.181007 0.726650
v -1.000000 0.182502 0.038693
v -0.361271 0.181007 2.035292
v -0.910272 0.206521 1.943985
v -0.937640 0.206521 0.726650
v -1.000000 0.206126 0.032142
v -0.361271 0.206521 2.035292
v -1.000000 0.181106 0.004714
v -1.000000 0.197920 -0.010733
v -1.000000 0.177881 0.001781
v -1.000000 0.174035 -0.025026
v -1.000000 0.172053 0.003717
v -1.000000 0.154329 -0.014636
v -1.000000 0.162916 0.022852
v -1.000000 0.138084 0.016989
v -1.000000 0.163252 0.066842
v -1.000000 0.137749 0.066062
v -1.000000 0.150561 0.274115
v -1.000000 0.125059 0.273335
v -1.000000 0.150567 0.447158
v -1.000000 0.125053 0.447159
v -1.000000 0.150567 0.709423
v -1.000000 0.125053 0.709423
v 0.937640 0.206521 0.726650
v 0.000000 0.206521 0.726650
v 1.000000 0.206126 0.032142
v 0.000000 0.206126 0.032142
v 0.792607 0.214453 0.608601
v 0.155157 0.214453 0.608601
v 0.870882 0.214193 0.150182
v 0.118044 0.214193 0.150182
vn -0.0000 -1.0000 -0.0022
vn -0.0000 -1.0000 -0.0000
vn -0.0000 -0.0006 -1.0000
vn -0.0000 1.0000 -0.0000
vn -0.0000 -0.9992 0.0410
vn 0.9996 -0.0167 0.0225
vn 0.1641 -0.0000 0.9865
vn -0.9639 -0.0000 0.2661
vn 0.9959 -0.0000 0.0903
vn 1.0000 -0.0000 -0.0000
vn -0.0000 0.9822 -0.1880
vn -0.0000 0.3153 0.9490
vn -0.0000 0.5135 -0.8581
vn -0.0000 -0.6728 0.7398
vn -0.0000 0.9024 0.4309
vn -0.0000 -0.4664 -0.8846
vn -0.0000 1.0000 -0.0076
vn -0.0000 -0.8895 -0.4569
vn -0.0000 -1.0000 -0.0068
vn -0.0000 -0.9981 -0.0611
vn -0.0000 0.9981 0.0611
vn -0.0000 1.0000 -0.0006
vn -0.9997 -0.0000 0.0228
vn -0.1591 -0.5895 0.7920
vn 0.9639 -0.0000 0.2661
vn -0.9959 -0.0000 0.0903
vn -1.0000 -0.0000 -0.0000
vn -0.0000 0.0006 1.0000
vn -0.9967 -0.0000 0.0807
vn 0.9857 0.0001 0.1683
vn -0.0000 -0.0000 1.0000
vn 0.9997 -0.0000 0.0228
vn 0.1591 -0.5895 0.7920
vn 0.9957 0.0248 0.0894
vn -0.9996 -0.0167 0.0225
vn -0.1641 -0.0000 0.9865
vn -0.9957 0.0248 0.0894
vt 0.500000 1.000000
vt 1.000000 0.654321
vt 0.500000 0.654321
vt 0.500000 0.000000
vt 1.000000 0.000000
vt 0.560063 0.941246
vt 0.939806 0.941246
vt 1.000000 1.000000
vt 0.561881 0.713075
vt 0.937987 0.713075
s 0
usemtl Material.017
f 6/1/1 3/2/1 1/3/1
f 5/4/2 3/2/2 2/5/2
f 12/6/3 75/7/3 10/7/3
f 11/4/4 69/2/4 70/3/4
f 6/1/5 13/8/5 4/8/5
f 2/5/6 69/2/6 8/5/6
f 5/4/7 8/5/7 11/4/7
f 5/4/8 70/3/8 1/3/8
f 4/8/9 69/2/9 3/2/9
f 15/8/10 17/8/10 19/8/10
f 71/8/11 16/1/11 72/1/11
f 71/8/10 13/8/10 15/8/10
f 18/1/12 21/8/12 17/8/12
f 15/8/13 20/1/13 16/1/13
f 14/1/14 17/8/14 13/8/14
f 22/1/15 25/8/15 21/8/15
f 19/8/10 21/8/10 23/8/10
f 19/8/16 24/1/16 20/1/16
f 26/1/17 29/8/17 25/8/17
f 21/8/10 27/8/10 23/8/10
f 23/8/18 28/1/18 24/1/18
f 31/8/10 33/8/10 35/8/10
f 25/8/10 31/8/10 27/8/10
f 27/8/19 32/1/19 28/1/19
f 33/8/10 39/8/10 35/8/10
f 31/8/20 36/1/20 32/1/20
f 30/1/21 33/8/21 29/8/21
f 38/1/4 41/8/4 37/8/4
f 35/8/2 40/1/2 36/1/2
f 34/1/4 37/8/4 33/8/4
f 39/8/10 41/8/10 43/8/10
f 39/8/2 44/1/2 40/1/2
f 46/2/1 6/1/1 1/3/1
f 48/4/2 46/2/2 1/3/2
f 72/1/22 50/2/22 70/3/22
f 52/4/4 50/2/4 49/5/4
f 53/8/5 6/1/5 47/8/5
f 45/5/23 50/2/23 46/2/23
f 48/4/24 49/5/24 45/5/24
f 70/3/25 48/4/25 1/3/25
f 50/2/26 47/8/26 46/2/26
f 54/8/27 55/8/27 53/8/27
f 16/1/11 51/8/11 72/1/11
f 51/8/27 53/8/27 47/8/27
f 57/8/12 18/1/12 55/8/12
f 20/1/13 54/8/13 16/1/13
f 55/8/14 14/1/14 53/8/14
f 59/8/15 22/1/15 57/8/15
f 56/8/27 57/8/27 55/8/27
f 24/1/16 56/8/16 20/1/16
f 61/8/17 26/1/17 59/8/17
f 60/8/27 57/8/27 58/8/27
f 28/1/18 58/8/18 24/1/18
f 62/8/27 63/8/27 61/8/27
f 62/8/27 59/8/27 60/8/27
f 32/1/19 60/8/19 28/1/19
f 66/8/27 63/8/27 64/8/27
f 36/1/20 62/8/20 32/1/20
f 63/8/21 30/1/21 61/8/21
f 67/8/4 38/1/4 65/8/4
f 40/1/2 64/8/2 36/1/2
f 65/8/4 34/1/4 63/8/4
f 66/8/27 67/8/27 65/8/27
f 44/1/2 66/8/2 40/1/2
f 7/9/22 69/2/22 9/10/22
f 10/7/22 69/2/22 71/8/22
f 10/7/22 72/1/22 12/6/22
f 12/6/22 70/3/22 7/9/22
f 73/10/22 76/6/22 74/9/22
f 9/10/28 74/9/28 7/9/28
f 7/9/29 76/6/29 12/6/29
f 10/7/30 73/10/30 9/10/30
f 44/1/31 41/8/31 42/1/31
f 67/8/31 44/1/31 42/1/31
f 6/1/1 4/8/1 3/2/1
f 5/4/2 1/3/2 3/2/2
f 12/6/3 76/6/3 75/7/3
f 11/4/4 8/5/4 69/2/4
f 6/1/5 14/1/5 13/8/5
f 2/5/32 3/2/32 69/2/32
f 5/4/33 2/5/33 8/5/33
f 5/4/8 11/4/8 70/3/8
f 4/8/34 71/8/34 69/2/34
f 15/8/10 13/8/10 17/8/10
f 71/8/11 15/8/11 16/1/11
f 71/8/10 4/8/10 13/8/10
f 18/1/12 22/1/12 21/8/12
f 15/8/13 19/8/13 20/1/13
f 14/1/14 18/1/14 17/8/14
f 22/1/15 26/1/15 25/8/15
f 19/8/10 17/8/10 21/8/10
f 19/8/16 23/8/16 24/1/16
f 26/1/17 30/1/17 29/8/17
f 21/8/10 25/8/10 27/8/10
f 23/8/18 27/8/18 28/1/18
f 31/8/10 29/8/10 33/8/10
f 25/8/10 29/8/10 31/8/10
f 27/8/19 31/8/19 32/1/19
f 33/8/10 37/8/10 39/8/10
f 31/8/20 35/8/20 36/1/20
f 30/1/21 34/1/21 33/8/21
f 38/1/4 42/1/4 41/8/4
f 35/8/2 39/8/2 40/1/2
f 34/1/4 38/1/4 37/8/4
f 39/8/10 37/8/10 41/8/10
f 39/8/2 43/8/2 44/1/2
f 46/2/1 47/8/1 6/1/1
f 48/4/2 45/5/2 46/2/2
f 72/1/22 51/8/22 50/2/22
f 52/4/4 70/3/4 50/2/4
f 53/8/5 14/1/5 6/1/5
f 45/5/35 49/5/35 50/2/35
f 48/4/36 52/4/36 49/5/36
f 70/3/25 52/4/25 48/4/25
f 50/2/37 51/8/37 47/8/37
f 54/8/27 56/8/27 55/8/27
f 16/1/11 54/8/11 51/8/11
f 51/8/27 54/8/27 53/8/27
f 57/8/12 22/1/12 18/1/12
f 20/1/13 56/8/13 54/8/13
f 55/8/14 18/1/14 14/1/14
f 59/8/15 26/1/15 22/1/15
f 56/8/27 58/8/27 57/8/27
f 24/1/16 58/8/16 56/8/16
f 61/8/17 30/1/17 26/1/17
f 60/8/27 59/8/27 57/8/27
f 28/1/18 60/8/18 58/8/18
f 62/8/27 64/8/27 63/8/27
f 62/8/27 61/8/27 59/8/27
f 32/1/19 62/8/19 60/8/19
f 66/8/27 65/8/27 63/8/27
f 36/1/20 64/8/20 62/8/20
f 63/8/21 34/1/21 30/1/21
f 67/8/4 42/1/4 38/1/4
f 40/1/2 66/8/2 64/8/2
f 65/8/4 38/1/4 34/1/4
f 66/8/27 68/8/27 67/8/27
f 44/1/2 68/8/2 66/8/2
f 7/9/22 70/3/22 69/2/22
f 10/7/22 9/10/22 69/2/22
f 10/7/22 71/8/22 72/1/22
f 12/6/22 72/1/22 70/3/22
f 73/10/22 75/7/22 76/6/22
f 9/10/28 73/10/28 74/9/28
f 7/9/29 74/9/29 76/6/29
f 10/7/30 75/7/30 73/10/30
f 44/1/31 43/8/31 41/8/31
f 67/8/31 68/8/31 44/1/31
