# Blender 3.6.5
# www.blender.org
mtllib watch.mtl
o watch
v -0.001359 0.621692 -0.090167
v -0.001359 0.671594 -0.081812
v 0.016042 0.621692 -0.088453
v 0.014412 0.671594 -0.080258
v 0.032775 0.621692 -0.083377
v 0.029577 0.671594 -0.075658
v 0.048196 0.621692 -0.075135
v 0.043554 0.671594 -0.068188
v 0.061712 0.621692 -0.064042
v 0.055804 0.671594 -0.058134
v 0.072805 0.621692 -0.050526
v 0.065858 0.671594 -0.045884
v 0.081048 0.621692 -0.035105
v 0.073328 0.671594 -0.031907
v 0.086123 0.621692 -0.018372
v 0.077929 0.671594 -0.016742
v 0.087837 0.621692 -0.000971
v 0.079482 0.671594 -0.000971
v 0.086123 0.621692 0.016430
v 0.077929 0.671594 0.014800
v 0.081048 0.621692 0.033163
v 0.073328 0.671594 0.029966
v 0.072805 0.621692 0.048584
v 0.065858 0.671594 0.043942
v 0.061712 0.621692 0.062100
v 0.055804 0.671594 0.056192
v 0.048196 0.621692 0.073193
v 0.043554 0.671594 0.066246
v 0.032775 0.621692 0.081436
v 0.029577 0.671594 0.073716
v 0.016042 0.621692 0.086512
v 0.014412 0.671594 0.078317
v -0.001359 0.621692 0.088225
v -0.001359 0.671594 0.079870
v 0.213640 0.588170 0.016430
v 0.199074 0.582657 0.016430
v 0.214247 0.586567 -0.000971
v 0.199680 0.581054 -0.000971
v 0.213640 0.588170 -0.018372
v 0.199074 0.582657 -0.018372
v 0.188187 0.610163 -0.018372
v 0.199057 0.621317 -0.018372
v 0.189414 0.608967 -0.000971
v 0.200285 0.620121 -0.000971
v 0.188187 0.610163 0.016430
v 0.199057 0.621317 0.016430
v 0.166660 0.646195 0.016430
v 0.160612 0.631842 0.016430
v 0.168239 0.645529 -0.000971
v 0.162191 0.631177 -0.000971
v 0.166660 0.646195 -0.018372
v 0.160612 0.631842 -0.018372
v 0.130998 0.638856 -0.018372
v 0.130998 0.654431 -0.018372
v 0.132712 0.638856 -0.000971
v 0.132712 0.654431 -0.000971
v 0.130998 0.638856 0.016430
v 0.130998 0.654431 0.016430
v 0.097591 0.654431 0.016430
v 0.097591 0.638856 0.016430
v 0.099305 0.654431 -0.000971
v 0.099305 0.638856 -0.000971
v 0.097591 0.654431 -0.018372
v 0.097591 0.638856 -0.018372
v 0.218144 0.546505 0.016430
v 0.202570 0.546587 0.016430
v 0.218135 0.544791 -0.000971
v 0.202560 0.544874 -0.000971
v 0.218144 0.546505 -0.018372
v 0.202570 0.546587 -0.018372
v 0.208067 0.509385 0.016430
v 0.194302 0.516673 0.016430
v 0.207265 0.507870 -0.000971
v 0.193500 0.515158 -0.000971
v 0.208067 0.509385 -0.018372
v 0.194302 0.516673 -0.018372
v 0.170565 0.468610 0.016430
v 0.161662 0.481390 0.016430
v 0.169159 0.467631 -0.000971
v 0.160256 0.480410 -0.000971
v 0.170565 0.468610 -0.018372
v 0.161662 0.481390 -0.018372
v 0.109091 0.452791 0.016430
v 0.106502 0.468149 0.016430
v 0.107401 0.452506 -0.000971
v 0.104812 0.467864 -0.000971
v 0.109091 0.452791 -0.018372
v 0.106502 0.468149 -0.018372
v -0.001359 0.451454 0.016431
v -0.001359 0.467027 0.016431
v -0.001359 0.451481 -0.000971
v -0.001359 0.467054 -0.000971
v -0.001359 0.451454 -0.018372
v -0.001359 0.467027 -0.018372
v 0.016042 0.671594 -0.088453
v -0.001359 0.671594 -0.090167
v 0.032775 0.671594 -0.083377
v 0.048196 0.671594 -0.075135
v 0.061712 0.671594 -0.064042
v 0.072805 0.671594 -0.050526
v 0.081048 0.671594 -0.035105
v 0.086123 0.671594 -0.018372
v 0.087837 0.671594 -0.000971
v 0.086123 0.671594 0.016430
v 0.081048 0.671594 0.033163
v 0.072805 0.671594 0.048584
v 0.061712 0.671594 0.062100
v 0.048196 0.671594 0.073193
v 0.032775 0.671594 0.081436
v 0.016042 0.671594 0.086512
v -0.001359 0.671594 0.088225
v -0.001359 0.677795 -0.081812
v -0.001359 0.677795 0.079870
v 0.014412 0.677795 -0.080258
v 0.029577 0.677795 -0.075658
v 0.043554 0.677795 -0.068188
v 0.055804 0.677795 -0.058134
v 0.065858 0.677795 -0.045884
v 0.073328 0.677795 -0.031907
v 0.077929 0.677795 -0.016742
v 0.079482 0.677795 -0.000971
v 0.077929 0.677795 0.014800
v 0.073328 0.677795 0.029966
v 0.065858 0.677795 0.043942
v 0.055804 0.677795 0.056192
v 0.043554 0.677795 0.066246
v 0.029577 0.677795 0.073716
v 0.014412 0.677795 0.078317
v -0.018761 0.621692 -0.088453
v -0.017131 0.671594 -0.080258
v -0.035493 0.621692 -0.083377
v -0.032296 0.671594 -0.075658
v -0.050914 0.621692 -0.075135
v -0.046272 0.671594 -0.068188
v -0.064431 0.621692 -0.064042
v -0.058522 0.671594 -0.058134
v -0.075523 0.621692 -0.050526
v -0.068576 0.671594 -0.045884
v -0.083766 0.621692 -0.035105
v -0.076047 0.671594 -0.031907
v -0.088842 0.621692 -0.018372
v -0.080647 0.671594 -0.016742
v -0.090556 0.621692 -0.000971
v -0.082200 0.671594 -0.000971
v -0.088842 0.621692 0.016430
v -0.080647 0.671594 0.014800
v -0.083766 0.621692 0.033163
v -0.076047 0.671594 0.029966
v -0.075523 0.621692 0.048584
v -0.068576 0.671594 0.043942
v -0.064431 0.621692 0.062100
v -0.058522 0.671594 0.056192
v -0.050914 0.621692 0.073193
v -0.046272 0.671594 0.066246
v -0.035493 0.621692 0.081436
v -0.032296 0.671594 0.073716
v -0.018761 0.621692 0.086512
v -0.017131 0.671594 0.078317
v -0.216359 0.588170 0.016430
v -0.201792 0.582657 0.016430
v -0.216965 0.586567 -0.000971
v -0.202399 0.581054 -0.000971
v -0.216359 0.588170 -0.018372
v -0.201792 0.582657 -0.018372
v -0.190905 0.610163 -0.018372
v -0.201776 0.621317 -0.018372
v -0.192132 0.608967 -0.000971
v -0.203003 0.620121 -0.000971
v -0.190905 0.610163 0.016430
v -0.201776 0.621317 0.016430
v -0.169378 0.646195 0.016430
v -0.163330 0.631842 0.016430
v -0.170958 0.645529 -0.000971
v -0.164909 0.631177 -0.000971
v -0.169378 0.646195 -0.018372
v -0.163330 0.631842 -0.018372
v -0.133716 0.638856 -0.018372
v -0.133716 0.654431 -0.018372
v -0.135430 0.638856 -0.000971
v -0.135430 0.654431 -0.000971
v -0.133716 0.638856 0.016430
v -0.133716 0.654431 0.016430
v -0.100310 0.654431 0.016430
v -0.100310 0.638856 0.016430
v -0.102023 0.654431 -0.000971
v -0.102023 0.638856 -0.000971
v -0.100310 0.654431 -0.018372
v -0.100310 0.638856 -0.018372
v -0.220863 0.546505 0.016430
v -0.205288 0.546587 0.016430
v -0.220854 0.544791 -0.000971
v -0.205279 0.544874 -0.000971
v -0.220863 0.546505 -0.018372
v -0.205288 0.546587 -0.018372
v -0.210785 0.509385 0.016430
v -0.197021 0.516673 0.016430
v -0.209983 0.507870 -0.000971
v -0.196219 0.515158 -0.000971
v -0.210785 0.509385 -0.018372
v -0.197021 0.516673 -0.018372
v -0.173283 0.468610 0.016430
v -0.164380 0.481390 0.016430
v -0.171877 0.467631 -0.000971
v -0.162974 0.480410 -0.000971
v -0.173283 0.468610 -0.018372
v -0.164380 0.481390 -0.018372
v -0.111809 0.452791 0.016430
v -0.109221 0.468149 0.016430
v -0.110119 0.452506 -0.000971
v -0.107531 0.467864 -0.000971
v -0.111809 0.452791 -0.018372
v -0.109221 0.468149 -0.018372
v -0.018761 0.671594 -0.088453
v -0.035493 0.671594 -0.083377
v -0.050914 0.671594 -0.075135
v -0.064431 0.671594 -0.064042
v -0.075523 0.671594 -0.050526
v -0.083766 0.671594 -0.035105
v -0.088842 0.671594 -0.018372
v -0.090556 0.671594 -0.000971
v -0.088842 0.671594 0.016430
v -0.083766 0.671594 0.033163
v -0.075523 0.671594 0.048584
v -0.064431 0.671594 0.062100
v -0.050914 0.671594 0.073193
v -0.035493 0.671594 0.081436
v -0.018761 0.671594 0.086512
v -0.017131 0.677795 -0.080258
v -0.032296 0.677795 -0.075658
v -0.046272 0.677795 -0.068188
v -0.058522 0.677795 -0.058134
v -0.068576 0.677795 -0.045884
v -0.076047 0.677795 -0.031907
v -0.080647 0.677795 -0.016742
v -0.082200 0.677795 -0.000971
v -0.080647 0.677795 0.014800
v -0.076047 0.677795 0.029966
v -0.068576 0.677795 0.043942
v -0.058522 0.677795 0.056192
v -0.046272 0.677795 0.066246
v -0.032296 0.677795 0.073716
v -0.017131 0.677795 0.078317
vn -0.0000 -0.0000 -1.0000
vn 0.1951 -0.0000 -0.9808
vn 0.3827 -0.0000 -0.9239
vn 0.5556 -0.0000 -0.8315
vn 0.7071 -0.0000 -0.7071
vn 0.8315 -0.0000 -0.5556
vn 0.9239 -0.0000 -0.3827
vn 0.9569 -0.0000 -0.2903
vn 0.8287 -0.5537 0.0816
vn 0.8315 -0.5556 -0.0000
vn -0.0000 -0.0000 1.0000
vn 0.9569 -0.0000 0.2903
vn 0.9239 -0.0000 0.3827
vn 0.8315 -0.0000 0.5556
vn 0.7071 -0.0000 0.7071
vn 0.5556 -0.0000 0.8315
vn 0.3827 -0.0000 0.9239
vn 0.1951 -0.0000 0.9808
vn 0.8287 0.5537 -0.0816
vn 0.8315 0.5556 -0.0000
vn 0.1106 0.9939 -0.0017
vn 0.1251 0.9921 -0.0000
vn 0.4463 0.8949 -0.0000
vn 0.4225 0.9063 -0.0055
vn -0.1141 -0.9935 -0.0020
vn -0.1290 -0.9916 -0.0000
vn -0.4554 -0.8903 -0.0000
vn -0.4315 -0.9021 -0.0065
vn 0.8016 0.5979 -0.0000
vn 0.7827 0.6223 -0.0122
vn -0.0000 1.0000 -0.0000
vn 0.1106 0.9939 0.0017
vn -0.0000 -1.0000 -0.0000
vn -0.1141 -0.9935 0.0020
vn -0.4315 -0.9021 0.0065
vn 0.4225 0.9063 0.0055
vn 0.8287 -0.5537 -0.0816
vn 0.8287 0.5537 0.0816
vn 0.7827 0.6223 0.0122
vn 0.9659 0.2587 0.0126
vn 0.9706 0.2405 -0.0000
vn -0.6251 -0.7805 -0.0000
vn -0.6251 -0.7805 -0.0087
vn -0.6251 -0.7805 0.0087
vn 0.9971 -0.0760 0.0054
vn 0.9951 -0.0992 -0.0000
vn -0.9343 -0.3566 -0.0000
vn -0.9341 -0.3565 0.0205
vn -0.9724 -0.2327 0.0151
vn -0.9764 -0.2161 -0.0000
vn -0.9341 -0.3565 -0.0205
vn -0.9724 -0.2327 -0.0151
vn 0.9659 0.2587 -0.0126
vn -0.9963 0.0858 -0.0064
vn -0.9941 0.1086 -0.0000
vn -0.8610 0.5085 -0.0000
vn -0.8755 0.4831 -0.0033
vn -0.9963 0.0858 0.0064
vn 0.9971 -0.0760 -0.0054
vn -0.8755 0.4831 0.0033
vn -0.7283 0.6852 0.0029
vn -0.7283 0.6852 -0.0000
vn 0.8638 -0.5038 -0.0000
vn 0.8782 -0.4782 0.0028
vn 0.7311 -0.6823 0.0025
vn 0.7311 -0.6823 -0.0000
vn 0.8782 -0.4782 -0.0028
vn -0.2270 0.9738 -0.0152
vn -0.2271 0.9739 -0.0000
vn -0.1119 0.9937 -0.0000
vn -0.1255 0.9920 -0.0114
vn -0.7283 0.6852 -0.0029
vn 0.7311 -0.6823 -0.0025
vn -0.1255 0.9920 0.0114
vn -0.0090 0.9999 0.0070
vn -0.0090 1.0000 -0.0000
vn 0.1208 -0.9927 -0.0000
vn 0.1353 -0.9907 0.0105
vn 0.0108 -0.9999 0.0069
vn 0.0108 -0.9999 -0.0000
vn 0.2435 -0.9698 -0.0136
vn 0.2435 -0.9699 -0.0000
vn 0.1353 -0.9907 -0.0105
vn 0.2435 -0.9698 0.0136
vn -0.2270 0.9738 0.0152
vn -1.0000 -0.0000 -0.0000
vn -0.0090 0.9999 -0.0070
vn 0.0108 -0.9999 -0.0069
vn 0.9808 -0.0000 -0.1951
vn 1.0000 -0.0000 -0.0000
vn 0.9808 -0.0000 0.1951
vn -0.1951 -0.0000 -0.9808
vn -0.3827 -0.0000 -0.9239
vn -0.5556 -0.0000 -0.8315
vn -0.7071 -0.0000 -0.7071
vn -0.8315 -0.0000 -0.5556
vn -0.9239 -0.0000 -0.3827
vn -0.9569 -0.0000 -0.2903
vn -0.8287 -0.5537 0.0816
vn -0.8315 -0.5556 -0.0000
vn -0.9569 -0.0000 0.2903
vn -0.9239 -0.0000 0.3827
vn -0.8315 -0.0000 0.5556
vn -0.7071 -0.0000 0.7071
vn -0.5556 -0.0000 0.8315
vn -0.3827 -0.0000 0.9239
vn -0.1951 -0.0000 0.9808
vn -0.8287 0.5537 -0.0816
vn -0.8315 0.5556 -0.0000
vn -0.1106 0.9939 -0.0017
vn -0.4225 0.9063 -0.0055
vn -0.4463 0.8949 -0.0000
vn -0.1251 0.9921 -0.0000
vn 0.1141 -0.9935 -0.0020
vn 0.4315 -0.9021 -0.0065
vn 0.4554 -0.8903 -0.0000
vn 0.1290 -0.9916 -0.0000
vn -0.7827 0.6223 -0.0122
vn -0.8016 0.5979 -0.0000
vn -0.1106 0.9939 0.0017
vn 0.1141 -0.9935 0.0020
vn 0.4315 -0.9021 0.0065
vn -0.4225 0.9063 0.0055
vn -0.8287 -0.5537 -0.0816
vn -0.8287 0.5537 0.0816
vn -0.9706 0.2405 -0.0000
vn -0.9659 0.2587 0.0126
vn -0.7827 0.6223 0.0122
vn 0.6251 -0.7805 -0.0087
vn 0.6251 -0.7805 -0.0000
vn 0.6251 -0.7805 0.0087
vn -0.9951 -0.0992 -0.0000
vn -0.9971 -0.0760 0.0054
vn 0.9343 -0.3566 -0.0000
vn 0.9764 -0.2161 -0.0000
vn 0.9724 -0.2327 0.0151
vn 0.9341 -0.3565 0.0205
vn 0.9341 -0.3565 -0.0205
vn 0.9724 -0.2327 -0.0151
vn -0.9659 0.2587 -0.0126
vn 0.9963 0.0858 -0.0064
vn 0.8755 0.4831 -0.0033
vn 0.8610 0.5085 -0.0000
vn 0.9941 0.1086 -0.0000
vn 0.9963 0.0858 0.0064
vn -0.9971 -0.0760 -0.0054
vn 0.7283 0.6852 -0.0000
vn 0.7283 0.6852 0.0029
vn 0.8755 0.4831 0.0033
vn -0.8638 -0.5038 -0.0000
vn -0.7311 -0.6823 -0.0000
vn -0.7311 -0.6823 0.0025
vn -0.8782 -0.4782 0.0028
vn -0.8782 -0.4782 -0.0028
vn 0.2270 0.9738 -0.0152
vn 0.1255 0.9920 -0.0114
vn 0.1119 0.9937 -0.0000
vn 0.2271 0.9739 -0.0000
vn 0.7283 0.6852 -0.0029
vn -0.7311 -0.6823 -0.0025
vn 0.0090 1.0000 -0.0000
vn 0.0090 0.9999 0.0070
vn 0.1255 0.9920 0.0114
vn -0.1208 -0.9927 -0.0000
vn -0.0108 -0.9999 -0.0000
vn -0.0108 -0.9999 0.0069
vn -0.1353 -0.9907 0.0105
vn -0.2435 -0.9698 -0.0136
vn -0.1353 -0.9907 -0.0105
vn -0.2435 -0.9699 -0.0000
vn -0.2435 -0.9698 0.0136
vn 0.2270 0.9738 0.0152
vn 0.0090 0.9999 -0.0070
vn -0.0108 -0.9999 -0.0069
vn -0.9808 -0.0000 -0.1951
vn -0.9808 -0.0000 0.1951
vt 1.000000 0.500000
vt 1.000000 1.000000
vt 0.968750 1.000000
vt 0.968750 0.500000
vt 0.937500 1.000000
vt 0.937500 0.500000
vt 0.906250 1.000000
vt 0.906250 0.500000
vt 0.875000 1.000000
vt 0.875000 0.500000
vt 0.843750 1.000000
vt 0.843750 0.500000
vt 0.812500 1.000000
vt 0.812500 0.500000
vt 0.781250 1.000000
vt 0.781250 0.500000
vt 0.000000 0.000000
vt 0.718750 1.000000
vt 0.718750 0.500000
vt 0.687500 1.000000
vt 0.687500 0.500000
vt 0.656250 1.000000
vt 0.656250 0.500000
vt 0.625000 1.000000
vt 0.625000 0.500000
vt 0.593750 1.000000
vt 0.593750 0.500000
vt 0.562500 1.000000
vt 0.562500 0.500000
vt 0.531250 1.000000
vt 0.531250 0.500000
vt 0.500000 1.000000
vt 0.500000 0.500000
vt 0.750000 0.500000
vt 0.750000 1.000000
vt 0.620431 0.983227
vt 0.637141 0.965958
vt 0.976582 1.000000
vt 0.949628 0.994755
vt 0.920291 0.993193
vt 0.890143 0.991463
vt 0.858994 0.988710
vt 0.825598 0.983102
vt 0.783437 0.965819
vt 0.651245 0.828155
vt 0.242009 0.316507
vt 0.225044 0.316944
vt 0.567251 0.828511
vt 0.595426 0.988871
vt 0.568647 0.991736
vt 0.542052 0.993912
vt 0.523418 1.000000
s 1
f 1/1/1 96/2/1 95/3/2 3/4/2
f 3/4/2 95/3/2 97/5/3 5/6/3
f 5/6/3 97/5/3 98/7/4 7/8/4
f 7/8/4 98/7/4 99/9/5 9/10/5
f 9/10/5 99/9/5 100/11/6 11/12/6
f 11/12/6 100/11/6 101/13/7 13/14/7
f 13/14/7 101/13/7 102/15/8 15/16/8
f 19/17/9 17/17/10 62/17/10 60/17/9
f 104/18/11 19/19/11 60/19/11 59/18/11
f 19/19/12 104/18/12 105/20/13 21/21/13
f 21/21/13 105/20/13 106/22/14 23/23/14
f 23/23/14 106/22/14 107/24/15 25/25/15
f 25/25/15 107/24/15 108/26/16 27/27/16
f 27/27/16 108/26/16 109/28/17 29/29/17
f 29/29/17 109/28/17 110/30/18 31/31/18
f 31/31/18 110/30/18 111/32/11 33/33/11
f 102/17/19 103/17/20 61/17/20 63/17/19
f 53/16/1 54/15/1 51/15/1 52/16/1
f 54/17/21 56/17/22 49/17/23 51/17/24
f 57/17/25 55/17/26 50/17/27 48/17/28
f 58/18/11 57/19/11 48/19/11 47/18/11
f 51/17/24 49/17/23 44/17/29 42/17/30
f 52/16/1 51/15/1 42/15/1 41/16/1
f 61/17/31 59/17/31 58/17/32 56/17/22
f 62/17/33 64/17/33 53/17/34 55/17/26
f 59/18/11 60/19/11 57/19/11 58/18/11
f 60/17/33 62/17/33 55/17/26 57/17/25
f 55/17/26 53/17/34 52/17/35 50/17/27
f 56/17/22 58/17/32 47/17/36 49/17/23
f 17/17/10 15/17/37 64/17/37 62/17/10
f 63/17/31 61/17/31 56/17/22 54/17/21
f 103/17/20 104/17/38 59/17/38 61/17/20
f 64/16/1 63/15/1 54/15/1 53/16/1
f 15/16/1 102/15/1 63/15/1 64/16/1
f 44/17/29 46/17/39 35/17/40 37/17/41
f 41/16/1 42/15/1 39/15/1 40/16/1
f 48/17/28 50/17/27 43/17/42 45/17/43
f 47/18/11 48/19/11 45/19/11 46/18/11
f 50/17/27 52/17/35 41/17/44 43/17/42
f 49/17/23 47/17/36 46/17/39 44/17/29
f 37/17/41 35/17/40 65/17/45 67/17/46
f 40/16/1 39/15/1 69/15/1 70/16/1
f 43/17/47 41/17/48 40/17/49 38/17/50
f 46/18/11 45/19/11 36/19/11 35/18/11
f 45/17/51 43/17/47 38/17/50 36/17/52
f 42/17/30 44/17/29 37/17/41 39/17/53
f 66/17/54 68/17/55 74/17/56 72/17/57
f 65/18/11 66/19/11 72/19/11 71/18/11
f 38/17/50 40/17/49 70/17/58 68/17/55
f 35/18/11 36/19/11 66/19/11 65/18/11
f 36/17/52 38/17/50 68/17/55 66/17/54
f 39/17/53 37/17/41 67/17/46 69/17/59
f 74/17/56 76/17/60 82/17/61 80/17/62
f 73/17/63 71/17/64 77/17/65 79/17/66
f 69/17/59 67/17/46 73/17/63 75/17/67
f 70/16/1 69/15/1 75/15/1 76/16/1
f 67/17/46 65/17/45 71/17/64 73/17/63
f 68/17/55 70/17/58 76/17/60 74/17/56
f 78/17/68 80/17/69 86/17/70 84/17/71
f 77/18/11 78/19/11 84/19/11 83/18/11
f 71/18/11 72/19/11 78/19/11 77/18/11
f 72/17/57 74/17/56 80/17/62 78/17/72
f 75/17/67 73/17/63 79/17/66 81/17/73
f 76/16/1 75/15/1 81/15/1 82/16/1
f 86/17/70 88/17/74 94/17/75 92/17/76
f 85/17/77 83/17/78 89/17/79 91/17/80
f 81/17/81 79/17/82 85/17/77 87/17/83
f 82/16/1 81/15/1 87/15/1 88/16/1
f 79/17/82 77/17/84 83/17/78 85/17/77
f 80/17/69 82/17/85 88/17/74 86/17/70
f 92/34/86 91/35/86 89/18/86 90/19/86
f 94/16/86 93/15/86 91/35/86 92/34/86
f 83/18/11 84/19/11 90/19/11 89/18/11
f 84/17/71 86/17/70 92/17/76 90/17/87
f 87/17/83 85/17/77 91/17/80 93/17/88
f 88/16/1 87/15/1 93/15/1 94/16/1
f 26/36/15 24/37/14 124/37/14 125/36/15
f 1/1/33 3/4/33 5/6/33 7/8/33 9/10/33 11/12/33 13/14/33 15/17/33 17/17/33 19/19/33 21/21/33 23/23/33 25/25/33 27/27/33 29/29/33 31/31/33 33/33/33
f 2/38/31 4/39/31 95/3/31 96/2/31
f 4/39/31 6/40/31 97/5/31 95/3/31
f 6/40/31 8/41/31 98/7/31 97/5/31
f 8/41/31 10/42/31 99/9/31 98/7/31
f 10/42/31 12/43/31 100/11/31 99/9/31
f 12/43/31 14/44/31 101/13/31 100/11/31
f 14/44/31 16/45/31 102/15/31 101/13/31
f 16/45/31 18/46/31 103/17/31 102/15/31
f 18/46/31 20/47/31 104/17/31 103/17/31
f 20/47/31 22/48/31 105/20/31 104/17/31
f 22/48/31 24/37/31 106/22/31 105/20/31
f 24/37/31 26/36/31 107/24/31 106/22/31
f 26/36/31 28/49/31 108/26/31 107/24/31
f 28/49/31 30/50/31 109/28/31 108/26/31
f 30/50/31 32/51/31 110/30/31 109/28/31
f 32/51/31 34/52/31 111/32/31 110/30/31
f 114/39/31 112/38/31 113/52/31 128/51/31 127/50/31 126/49/31 125/36/31 124/37/31 123/48/31 122/47/31 121/46/31 120/45/31 119/44/31 118/43/31 117/42/31 116/41/31 115/40/31
f 12/43/6 10/42/5 117/42/5 118/43/6
f 28/49/16 26/36/15 125/36/15 126/49/16
f 14/44/7 12/43/6 118/43/6 119/44/7
f 30/50/17 28/49/16 126/49/16 127/50/17
f 16/45/89 14/44/7 119/44/7 120/45/89
f 32/51/18 30/50/17 127/50/17 128/51/18
f 18/46/90 16/45/89 120/45/89 121/46/90
f 4/39/2 2/38/1 112/38/1 114/39/2
f 34/52/11 32/51/18 128/51/18 113/52/11
f 20/47/91 18/46/90 121/46/90 122/47/91
f 6/40/3 4/39/2 114/39/2 115/40/3
f 22/48/13 20/47/91 122/47/91 123/48/13
f 8/41/4 6/40/3 115/40/3 116/41/4
f 24/37/14 22/48/13 123/48/13 124/37/14
f 10/42/5 8/41/4 116/41/4 117/42/5
f 1/1/1 129/4/92 213/3/92 96/2/1
f 129/4/92 131/6/93 214/5/93 213/3/92
f 131/6/93 133/8/94 215/7/94 214/5/93
f 133/8/94 135/10/95 216/9/95 215/7/94
f 135/10/95 137/12/96 217/11/96 216/9/95
f 137/12/96 139/14/97 218/13/97 217/11/96
f 139/14/97 141/16/98 219/15/98 218/13/97
f 145/17/99 184/17/99 186/17/100 143/17/100
f 221/18/11 183/18/11 184/19/11 145/19/11
f 145/19/101 147/21/102 222/20/102 221/18/101
f 147/21/102 149/23/103 223/22/103 222/20/102
f 149/23/103 151/25/104 224/24/104 223/22/103
f 151/25/104 153/27/105 225/26/105 224/24/104
f 153/27/105 155/29/106 226/28/106 225/26/105
f 155/29/106 157/31/107 227/30/107 226/28/106
f 157/31/107 33/33/11 111/32/11 227/30/107
f 219/17/108 187/17/108 185/17/109 220/17/109
f 177/16/1 176/16/1 175/15/1 178/15/1
f 178/17/110 175/17/111 173/17/112 180/17/113
f 181/17/114 172/17/115 174/17/116 179/17/117
f 182/18/11 171/18/11 172/19/11 181/19/11
f 175/17/111 166/17/118 168/17/119 173/17/112
f 176/16/1 165/16/1 166/15/1 175/15/1
f 185/17/31 180/17/113 182/17/120 183/17/31
f 186/17/33 179/17/117 177/17/121 188/17/33
f 183/18/11 182/18/11 181/19/11 184/19/11
f 184/17/33 181/17/114 179/17/117 186/17/33
f 179/17/117 174/17/116 176/17/122 177/17/121
f 180/17/113 173/17/112 171/17/123 182/17/120
f 143/17/100 186/17/100 188/17/124 141/17/124
f 187/17/31 178/17/110 180/17/113 185/17/31
f 220/17/109 185/17/109 183/17/125 221/17/125
f 188/16/1 177/16/1 178/15/1 187/15/1
f 141/16/1 188/16/1 187/15/1 219/15/1
f 168/17/119 161/17/126 159/17/127 170/17/128
f 165/16/1 164/16/1 163/15/1 166/15/1
f 172/17/115 169/17/129 167/17/130 174/17/116
f 171/18/11 170/18/11 169/19/11 172/19/11
f 174/17/116 167/17/130 165/17/131 176/17/122
f 173/17/112 168/17/119 170/17/128 171/17/123
f 161/17/126 191/17/132 189/17/133 159/17/127
f 164/16/1 194/16/1 193/15/1 163/15/1
f 167/17/134 162/17/135 164/17/136 165/17/137
f 170/18/11 159/18/11 160/19/11 169/19/11
f 169/17/138 160/17/139 162/17/135 167/17/134
f 166/17/118 163/17/140 161/17/126 168/17/119
f 190/17/141 196/17/142 198/17/143 192/17/144
f 189/18/11 195/18/11 196/19/11 190/19/11
f 162/17/135 192/17/144 194/17/145 164/17/136
f 159/18/11 189/18/11 190/19/11 160/19/11
f 160/17/139 190/17/141 192/17/144 162/17/135
f 163/17/140 193/17/146 191/17/132 161/17/126
f 198/17/143 204/17/147 206/17/148 200/17/149
f 197/17/150 203/17/151 201/17/152 195/17/153
f 193/17/146 199/17/154 197/17/150 191/17/132
f 194/16/1 200/16/1 199/15/1 193/15/1
f 191/17/132 197/17/150 195/17/153 189/17/133
f 192/17/144 198/17/143 200/17/149 194/17/145
f 202/17/155 208/17/156 210/17/157 204/17/158
f 201/18/11 207/18/11 208/19/11 202/19/11
f 195/18/11 201/18/11 202/19/11 196/19/11
f 196/17/142 202/17/159 204/17/147 198/17/143
f 199/17/154 205/17/160 203/17/151 197/17/150
f 200/16/1 206/16/1 205/15/1 199/15/1
f 210/17/157 92/17/161 94/17/162 212/17/163
f 209/17/164 91/17/165 89/17/166 207/17/167
f 205/17/168 211/17/169 209/17/164 203/17/170
f 206/16/1 212/16/1 211/15/1 205/15/1
f 203/17/170 209/17/164 207/17/167 201/17/171
f 204/17/158 210/17/157 212/17/163 206/17/172
f 207/18/11 89/18/11 90/19/11 208/19/11
f 208/17/156 90/17/173 92/17/161 210/17/157
f 211/17/169 93/17/174 91/17/165 209/17/164
f 212/16/1 94/16/1 93/15/1 211/15/1
f 152/36/104 239/36/104 238/37/103 150/37/103
f 1/1/33 33/33/33 157/31/33 155/29/33 153/27/33 151/25/33 149/23/33 147/21/33 145/19/33 143/17/33 141/17/33 139/14/33 137/12/33 135/10/33 133/8/33 131/6/33 129/4/33
f 2/38/31 96/2/31 213/3/31 130/39/31
f 130/39/31 213/3/31 214/5/31 132/40/31
f 132/40/31 214/5/31 215/7/31 134/41/31
f 134/41/31 215/7/31 216/9/31 136/42/31
f 136/42/31 216/9/31 217/11/31 138/43/31
f 138/43/31 217/11/31 218/13/31 140/44/31
f 140/44/31 218/13/31 219/15/31 142/45/31
f 142/45/31 219/15/31 220/17/31 144/46/31
f 144/46/31 220/17/31 221/17/31 146/47/31
f 146/47/31 221/17/31 222/20/31 148/48/31
f 148/48/31 222/20/31 223/22/31 150/37/31
f 150/37/31 223/22/31 224/24/31 152/36/31
f 152/36/31 224/24/31 225/26/31 154/49/31
f 154/49/31 225/26/31 226/28/31 156/50/31
f 156/50/31 226/28/31 227/30/31 158/51/31
f 158/51/31 227/30/31 111/32/31 34/52/31
f 228/39/31 229/40/31 230/41/31 231/42/31 232/43/31 233/44/31 234/45/31 235/46/31 236/47/31 237/48/31 238/37/31 239/36/31 240/49/31 241/50/31 242/51/31 113/52/31 112/38/31
f 138/43/96 232/43/96 231/42/95 136/42/95
f 154/49/105 240/49/105 239/36/104 152/36/104
f 140/44/97 233/44/97 232/43/96 138/43/96
f 156/50/106 241/50/106 240/49/105 154/49/105
f 142/45/175 234/45/175 233/44/97 140/44/97
f 158/51/107 242/51/107 241/50/106 156/50/106
f 144/46/86 235/46/86 234/45/175 142/45/175
f 130/39/92 228/39/92 112/38/1 2/38/1
f 34/52/11 113/52/11 242/51/107 158/51/107
f 146/47/176 236/47/176 235/46/86 144/46/86
f 132/40/93 229/40/93 228/39/92 130/39/92
f 148/48/102 237/48/102 236/47/176 146/47/176
f 134/41/94 230/41/94 229/40/93 132/40/93
f 150/37/103 238/37/103 237/48/102 148/48/102
f 136/42/95 231/42/95 230/41/94 134/41/94
