# Blender 3.6.5
# www.blender.org
mtllib book.mtl
o Plane
v -1.000000 0.000000 -0.005933
v 1.000000 -0.033721 -0.005933
v -1.000000 0.000000 -2.654032
v 1.000000 -0.033721 -2.654032
v -1.000000 0.305191 -2.654032
v -1.000000 0.305191 -0.005933
v 1.000000 0.338912 -0.005933
v 1.000000 0.338912 -2.654032
v -1.000000 0.284698 -2.654032
v 1.000000 0.313890 -2.654032
v 1.000000 0.313890 -0.005933
v -1.000000 0.284698 -0.005933
v 1.000000 -0.009697 -2.654032
v -1.000000 0.019676 -0.005933
v -1.000000 0.019676 -2.654032
v 1.000000 -0.009697 -0.005933
v -1.005056 0.000030 -2.660727
v -1.005056 0.000030 0.000761
v 1.005056 -0.033861 0.000761
v 1.005056 -0.033861 -2.660727
v 1.005056 -0.009716 -2.660727
v -1.005056 0.019806 0.000761
v -1.005056 0.019806 -2.660727
v 1.005056 -0.009716 0.000761
v -1.008401 0.305145 -2.665155
v -1.008401 0.305145 0.005190
v 1.008401 0.339149 0.005190
v 1.008401 0.339149 -2.665155
v -1.008401 0.284480 -2.665155
v 1.008401 0.313917 0.005190
v 1.008401 0.313917 -2.665155
v -1.008401 0.284480 0.005190
vn -0.0169 -0.9999 -0.0000
vn -0.0169 0.9999 -0.0000
vn -0.0055 1.0000 -0.0000
vn -0.0282 0.9996 -0.0000
vn 0.0032 -1.0000 -0.0000
vn 0.0146 -0.9999 0.0086
vn -1.0000 -0.0000 -0.0000
vn 1.0000 -0.0000 -0.0000
vn -0.0000 -0.0000 1.0000
vn -0.0000 -0.0000 -1.0000
vn -0.0278 -0.9996 -0.0000
vn 0.0147 0.9999 0.0082
vn 0.0038 1.0000 -0.0000
vn -0.0169 -0.9998 -0.0082
vn -0.0059 -1.0000 -0.0000
vn 0.0256 0.9997 -0.0000
vn 0.0147 0.9999 -0.0083
vn -0.0169 -0.9998 0.0082
vn 0.0146 -0.9999 -0.0086
vn -0.0169 0.9998 0.0086
vn 0.0260 -0.9997 -0.0000
vn -0.0169 0.9998 -0.0086
vt 0.000000 0.000000
vt 0.000000 1.000000
vt 1.000000 1.000000
vt 1.000000 0.000000
vt 1.000000 0.000000
vt 1.000000 1.000000
s 0
f 1/1/1 3/2/1 4/3/1 2/4/1
f 6/1/2 7/4/2 8/3/2 5/2/2
f 6/1/3 5/2/3 25/2/3 26/1/3
f 8/3/4 7/4/4 27/4/4 28/3/4
f 11/5/5 10/6/5 31/6/5 30/5/5
f 10/6/6 9/2/6 29/2/6 31/6/6
f 15/2/7 14/1/7 12/1/7 9/2/7
f 16/4/8 13/6/8 10/6/8 11/5/8
f 14/1/9 16/4/9 11/5/9 12/1/9
f 13/6/10 15/2/10 9/2/10 10/6/10
f 2/4/11 4/3/11 20/3/11 19/4/11
f 15/2/12 13/6/12 21/6/12 23/2/12
f 13/6/13 16/4/13 24/4/13 21/6/13
f 1/1/14 2/4/14 19/4/14 18/1/14
f 20/3/10 17/2/10 23/2/10 21/6/10
f 18/1/9 19/4/9 24/4/9 22/1/9
f 19/4/8 20/3/8 21/6/8 24/4/8
f 17/2/7 18/1/7 22/1/7 23/2/7
f 3/2/15 1/1/15 18/1/15 17/2/15
f 14/1/16 15/2/16 23/2/16 22/1/16
f 16/4/17 14/1/17 22/1/17 24/4/17
f 4/3/18 3/2/18 17/2/18 20/3/18
f 31/6/10 29/2/10 25/2/10 28/3/10
f 32/1/9 30/5/9 27/4/9 26/1/9
f 30/5/8 31/6/8 28/3/8 27/4/8
f 29/2/7 32/1/7 26/1/7 25/2/7
f 12/1/19 11/5/19 30/5/19 32/1/19
f 5/2/20 8/3/20 28/3/20 25/2/20
f 9/2/21 12/1/21 32/1/21 29/2/21
f 7/4/22 6/1/22 26/1/22 27/4/22
