# Blender 3.6.5
# www.blender.org
mtllib briefcase.mtl
o Plane
v -9.448200 0.004789 -0.623389
v -9.448200 1.455342 -0.568597
v -9.448200 0.004789 0.005853
v -9.448200 1.455342 -0.048939
v -10.404980 0.004789 -0.623389
v -10.448200 0.048009 -0.623389
v -10.435541 0.017448 -0.623389
v -8.448200 0.048009 -0.623389
v -8.491421 0.004789 -0.623389
v -8.460859 0.017448 -0.623389
v -10.448200 0.048009 0.005853
v -10.404980 0.004789 0.005853
v -10.435541 0.017448 0.005853
v -8.491421 0.004789 0.005853
v -8.448200 0.048009 0.005853
v -8.460859 0.017448 0.005853
v -10.448200 1.417064 -0.623389
v -10.355131 1.455342 -0.568597
v -10.436989 1.444130 -0.623389
v -8.541269 1.455342 -0.568597
v -8.448200 1.417064 -0.623389
v -8.459412 1.444130 -0.623389
v -10.355131 1.455342 -0.048939
v -10.448200 1.417064 0.005853
v -10.436989 1.444130 0.005853
v -8.448200 1.417064 0.005853
v -8.541269 1.455342 -0.048939
v -8.459412 1.444130 0.005853
v -8.486478 1.455342 -0.623389
v -8.486478 1.455342 0.005853
v -10.409923 1.455342 0.005853
v -10.409923 1.455342 -0.623389
v -9.448200 1.455342 -0.623389
v -9.448200 1.455342 0.005853
v -9.448200 0.188971 -0.568597
v -9.448200 0.188971 -0.048939
v -8.541269 0.188971 -0.568597
v -8.541269 0.188971 -0.048939
v -10.355131 0.188971 -0.048939
v -10.355131 0.188971 -0.568597
vn -0.0000 -0.0000 -1.0000
vn -0.0000 -1.0000 -0.0000
vn -0.0000 -0.0000 1.0000
vn 0.3827 -0.9239 -0.0000
vn 0.9239 -0.3827 -0.0000
vn -0.3827 -0.9239 -0.0000
vn -0.9239 -0.3827 -0.0000
vn 1.0000 -0.0000 -0.0000
vn -1.0000 -0.0000 -0.0000
vn 0.3827 0.9239 -0.0000
vn 0.9239 0.3827 -0.0000
vn -0.3827 0.9239 -0.0000
vn -0.9239 0.3827 -0.0000
vn -0.0000 1.0000 -0.0000
vt 0.500000 0.000000
vt 0.500000 1.000000
vt 0.980861 1.000000
vt 0.998132 0.997424
vt 1.000000 0.973612
vt 1.000000 0.029796
vt 0.997890 0.002909
vt 0.978390 0.000000
vt 0.021610 0.000000
vt 1.000000 0.029796
vt 0.953465 1.000000
vt 0.000000 0.029796
vt 0.002110 0.002909
vt 0.019139 1.000000
vt 0.001868 0.997424
vt 0.000000 0.973612
vt 0.000000 0.029796
vt 0.001868 0.997424
vt 0.046535 1.000000
s 0
f 1/1/1 33/2/1 29/3/1 22/4/1 21/5/1 8/6/1 10/7/1 9/8/1
f 5/9/2 1/1/2 3/1/2 12/9/2
f 3/1/3 14/8/3 16/7/3 15/10/3 26/5/3 28/4/3 30/3/3 34/2/3
f 20/11/3 2/2/3 35/2/3 37/11/3
f 1/1/2 9/8/2 14/8/2 3/1/2
f 11/12/3 13/13/3 12/9/3 3/1/3 34/2/3 31/14/3 25/15/3 24/16/3
f 14/8/4 9/8/4 10/7/4 16/7/4
f 16/7/5 10/7/5 8/10/5 15/6/5
f 5/9/6 12/9/6 13/13/6 7/13/6
f 7/13/7 13/13/7 11/17/7 6/12/7
f 5/9/1 7/13/1 6/17/1 17/16/1 19/18/1 32/14/1 33/2/1 1/1/1
f 8/10/8 21/5/8 26/5/8 15/6/8
f 17/16/9 6/12/9 11/17/9 24/16/9
f 29/3/10 30/3/10 28/4/10 22/4/10
f 22/4/11 28/4/11 26/5/11 21/5/11
f 31/14/12 32/14/12 19/18/12 25/15/12
f 25/15/13 19/18/13 17/16/13 24/16/13
f 18/19/8 23/19/8 39/19/8 40/19/8
f 20/11/14 27/11/14 30/3/14 29/3/14
f 23/19/14 18/19/14 32/14/14 31/14/14
f 18/19/14 2/2/14 33/2/14 32/14/14
f 4/2/14 23/19/14 31/14/14 34/2/14
f 2/2/14 20/11/14 29/3/14 33/2/14
f 27/11/14 4/2/14 34/2/14 30/3/14
f 35/2/14 36/2/14 38/11/14 37/11/14
f 40/19/14 39/19/14 36/2/14 35/2/14
f 2/2/3 18/19/3 40/19/3 35/2/3
f 27/11/9 20/11/9 37/11/9 38/11/9
f 4/2/1 27/11/1 38/11/1 36/2/1
f 23/19/1 4/2/1 36/2/1 39/19/1
o Cylinder
v -9.448200 0.899877 0.053703
v -9.448200 0.899877 0.089965
v -9.438698 0.898941 0.053703
v -9.438698 0.898941 0.089965
v -9.429560 0.896169 0.053703
v -9.429560 0.896169 0.089965
v -9.421139 0.891668 0.053703
v -9.421139 0.891668 0.089965
v -9.413757 0.885610 0.053703
v -9.413757 0.885610 0.089965
v -9.407700 0.878229 0.053703
v -9.407700 0.878229 0.089965
v -9.403198 0.869808 0.053703
v -9.403198 0.869808 0.089965
v -9.400427 0.860670 0.053703
v -9.400427 0.860670 0.089965
v -9.399490 0.851167 0.053703
v -9.399490 0.851167 0.089965
v -9.400427 0.841664 0.053703
v -9.400427 0.841664 0.089965
v -9.403198 0.832527 0.053703
v -9.403198 0.832527 0.089965
v -9.407700 0.824106 0.053703
v -9.407700 0.824106 0.089965
v -9.413757 0.816724 0.053703
v -9.413757 0.816724 0.089965
v -9.421139 0.810667 0.053703
v -9.421139 0.810667 0.089965
v -9.429560 0.806165 0.053703
v -9.429560 0.806165 0.089965
v -9.438698 0.803393 0.053703
v -9.438698 0.803393 0.089965
v -9.448200 0.802457 0.053703
v -9.448200 0.802457 0.089965
v -9.457703 0.803393 0.053703
v -9.457703 0.803393 0.089965
v -9.466841 0.806165 0.053703
v -9.466841 0.806165 0.089965
v -9.475262 0.810667 0.053703
v -9.475262 0.810667 0.089965
v -9.482643 0.816724 0.053703
v -9.482643 0.816724 0.089965
v -9.488701 0.824106 0.053703
v -9.488701 0.824106 0.089965
v -9.493202 0.832527 0.053703
v -9.493202 0.832527 0.089965
v -9.495974 0.841664 0.053703
v -9.495974 0.841664 0.089965
v -9.496910 0.851167 0.053703
v -9.496910 0.851167 0.089965
v -9.495974 0.860670 0.053703
v -9.495974 0.860670 0.089965
v -9.493202 0.869808 0.053703
v -9.493202 0.869808 0.089965
v -9.488701 0.878229 0.053703
v -9.488701 0.878229 0.089965
v -9.482643 0.885610 0.053703
v -9.482643 0.885610 0.089965
v -9.475262 0.891668 0.053703
v -9.475262 0.891668 0.089965
v -9.466841 0.896169 0.053703
v -9.466841 0.896169 0.089965
v -9.457703 0.898941 0.053703
v -9.457703 0.898941 0.089965
v -10.448200 0.858880 0.068616
v -8.448200 0.858880 0.068616
v -10.448200 1.462741 0.068616
v -8.448200 1.462741 0.068616
v -10.448200 1.504484 0.029854
v -8.448200 1.504484 0.029854
v -10.448200 1.510448 -0.378427
v -8.448200 1.510448 -0.378427
v -10.448200 1.510448 -0.536457
v -8.448200 1.510448 -0.536457
v -10.448200 1.471686 -0.613982
v -8.448200 1.471686 -0.613982
v -9.448200 0.781906 0.068616
v -9.448200 1.462741 0.068616
v -9.448200 1.504484 0.029854
v -9.448200 1.510448 -0.378427
v -9.448200 1.510448 -0.536457
v -9.448200 1.471686 -0.613982
v -9.448200 0.892598 0.060560
v -9.448200 0.892598 0.083108
v -9.440118 0.891802 0.060560
v -9.440118 0.891802 0.083108
v -9.432345 0.889444 0.060560
v -9.432345 0.889444 0.083108
v -9.425182 0.885616 0.060560
v -9.425182 0.885616 0.083108
v -9.418904 0.880463 0.060560
v -9.418904 0.880463 0.083108
v -9.413752 0.874185 0.060560
v -9.413752 0.874185 0.083108
v -9.409924 0.867022 0.060560
v -9.409924 0.867022 0.083108
v -9.407565 0.859250 0.060560
v -9.407565 0.859250 0.083108
v -9.406770 0.851167 0.060560
v -9.406770 0.851167 0.083108
v -9.407565 0.843084 0.060560
v -9.407565 0.843084 0.083108
v -9.409924 0.835312 0.060560
v -9.409924 0.835312 0.083108
v -9.413752 0.828149 0.060560
v -9.413752 0.828149 0.083108
v -9.418904 0.821871 0.060560
v -9.418904 0.821871 0.083108
v -9.425182 0.816719 0.060560
v -9.425182 0.816719 0.083108
v -9.432345 0.812890 0.060560
v -9.432345 0.812890 0.083108
v -9.440118 0.810532 0.060560
v -9.440118 0.810532 0.083108
v -9.448200 0.809736 0.060560
v -9.448200 0.809736 0.083108
v -9.456283 0.810532 0.060560
v -9.456283 0.810532 0.083108
v -9.464055 0.812890 0.060560
v -9.464055 0.812890 0.083108
v -9.471218 0.816719 0.060560
v -9.471218 0.816719 0.083108
v -9.477496 0.821871 0.060560
v -9.477496 0.821871 0.083108
v -9.482649 0.828149 0.060560
v -9.482649 0.828149 0.083108
v -9.486477 0.835312 0.060560
v -9.486477 0.835312 0.083108
v -9.488835 0.843084 0.060560
v -9.488835 0.843084 0.083108
v -9.489631 0.851167 0.060560
v -9.489631 0.851167 0.083108
v -9.488835 0.859250 0.060560
v -9.488835 0.859250 0.083108
v -9.486477 0.867022 0.060560
v -9.486477 0.867022 0.083108
v -9.482649 0.874185 0.060560
v -9.482649 0.874185 0.083108
v -9.477496 0.880463 0.060560
v -9.477496 0.880463 0.083108
v -9.471218 0.885616 0.060560
v -9.471218 0.885616 0.083108
v -9.464055 0.889444 0.060560
v -9.464055 0.889444 0.083108
v -9.456283 0.891802 0.060560
v -9.456283 0.891802 0.083108
v -10.448200 0.858880 0.058616
v -8.448200 0.858880 0.058616
v -10.448200 1.459085 0.059308
v -8.448200 1.459085 0.059308
v -10.448200 1.495347 0.025790
v -8.448200 1.495347 0.025790
v -10.448200 1.500448 -0.378500
v -8.448200 1.500448 -0.378500
v -10.448200 1.500715 -0.534160
v -8.448200 1.500715 -0.534160
v -10.448200 1.462742 -0.609509
v -8.448200 1.462742 -0.609509
v -9.448200 0.781906 0.058616
v -9.448200 1.459085 0.059308
v -9.448200 1.495347 0.025790
v -9.448200 1.500448 -0.378500
v -9.448200 1.500715 -0.534160
v -9.448200 1.462742 -0.609509
vn 0.0980 0.9952 -0.0000
vn 0.2903 0.9569 -0.0000
vn 0.4714 0.8819 -0.0000
vn 0.6344 0.7730 -0.0000
vn 0.7730 0.6344 -0.0000
vn 0.8819 0.4714 -0.0000
vn 0.9569 0.2903 -0.0000
vn 0.9952 0.0980 -0.0000
vn 0.9952 -0.0980 -0.0000
vn 0.9569 -0.2903 -0.0000
vn 0.8819 -0.4714 -0.0000
vn 0.7730 -0.6344 -0.0000
vn 0.6344 -0.7730 -0.0000
vn 0.4714 -0.8819 -0.0000
vn 0.2903 -0.9569 -0.0000
vn 0.0980 -0.9952 -0.0000
vn -0.0980 -0.9952 -0.0000
vn -0.2903 -0.9569 -0.0000
vn -0.4714 -0.8819 -0.0000
vn -0.6344 -0.7730 -0.0000
vn -0.7730 -0.6344 -0.0000
vn -0.8819 -0.4714 -0.0000
vn -0.9569 -0.2903 -0.0000
vn -0.9952 -0.0980 -0.0000
vn -0.9952 0.0980 -0.0000
vn -0.9569 0.2903 -0.0000
vn -0.8819 0.4714 -0.0000
vn -0.7730 0.6344 -0.0000
vn -0.6344 0.7730 -0.0000
vn -0.4714 0.8819 -0.0000
vn -0.0000 -0.0000 1.0000
vn -0.2903 0.9569 -0.0000
vn -0.0980 0.9952 -0.0000
vn -0.0000 -0.0000 -1.0000
vn -0.0000 0.6805 0.7328
vn -0.0000 0.9999 0.0146
vn -0.0000 1.0000 -0.0000
vn -0.0000 0.8944 -0.4472
vn -0.0000 0.0011 -1.0000
vn -0.0000 -0.6788 -0.7343
vn -0.0000 -0.9999 -0.0126
vn -0.0000 -1.0000 -0.0017
vn -0.0000 -0.8930 0.4500
vn -1.0000 -0.0000 -0.0000
vn 0.0767 -0.9971 -0.0000
vn 1.0000 -0.0000 -0.0000
vn -0.0000 -0.4472 -0.8944
vn -0.0767 -0.9971 -0.0000
vt 1.000000 0.500000
vt 1.000000 1.000000
vt 0.968750 1.000000
vt 0.968750 0.500000
vt 0.937500 1.000000
vt 0.937500 0.500000
vt 0.906250 1.000000
vt 0.906250 0.500000
vt 0.875000 1.000000
vt 0.875000 0.500000
vt 0.843750 1.000000
vt 0.843750 0.500000
vt 0.812500 1.000000
vt 0.812500 0.500000
vt 0.781250 1.000000
vt 0.781250 0.500000
vt 0.750000 1.000000
vt 0.750000 0.500000
vt 0.718750 1.000000
vt 0.718750 0.500000
vt 0.687500 1.000000
vt 0.687500 0.500000
vt 0.656250 1.000000
vt 0.656250 0.500000
vt 0.625000 1.000000
vt 0.625000 0.500000
vt 0.593750 1.000000
vt 0.593750 0.500000
vt 0.562500 1.000000
vt 0.562500 0.500000
vt 0.531250 1.000000
vt 0.531250 0.500000
vt 0.500000 1.000000
vt 0.500000 0.500000
vt 0.468750 1.000000
vt 0.468750 0.500000
vt 0.437500 1.000000
vt 0.437500 0.500000
vt 0.406250 1.000000
vt 0.406250 0.500000
vt 0.375000 1.000000
vt 0.375000 0.500000
vt 0.343750 1.000000
vt 0.343750 0.500000
vt 0.312500 1.000000
vt 0.312500 0.500000
vt 0.281250 1.000000
vt 0.281250 0.500000
vt 0.250000 1.000000
vt 0.250000 0.500000
vt 0.218750 1.000000
vt 0.218750 0.500000
vt 0.187500 1.000000
vt 0.187500 0.500000
vt 0.156250 1.000000
vt 0.156250 0.500000
vt 0.125000 1.000000
vt 0.125000 0.500000
vt 0.093750 1.000000
vt 0.093750 0.500000
vt 0.062500 1.000000
vt 0.062500 0.500000
vt 0.296822 0.485388
vt 0.250000 0.490000
vt 0.203178 0.485388
vt 0.158156 0.471731
vt 0.116663 0.449553
vt 0.080294 0.419706
vt 0.050447 0.383337
vt 0.028269 0.341844
vt 0.014612 0.296822
vt 0.010000 0.250000
vt 0.014612 0.203178
vt 0.028269 0.158156
vt 0.050447 0.116663
vt 0.080294 0.080294
vt 0.116663 0.050447
vt 0.158156 0.028269
vt 0.203178 0.014612
vt 0.250000 0.010000
vt 0.296822 0.014612
vt 0.341844 0.028269
vt 0.383337 0.050447
vt 0.419706 0.080294
vt 0.449553 0.116663
vt 0.471731 0.158156
vt 0.485388 0.203178
vt 0.490000 0.250000
vt 0.485388 0.296822
vt 0.471731 0.341844
vt 0.449553 0.383337
vt 0.419706 0.419706
vt 0.383337 0.449553
vt 0.341844 0.471731
vt 0.031250 1.000000
vt 0.031250 0.500000
vt 0.000000 1.000000
vt 0.000000 0.500000
vt 0.750000 0.490000
vt 0.796822 0.485388
vt 0.841844 0.471731
vt 0.883337 0.449553
vt 0.919706 0.419706
vt 0.949553 0.383337
vt 0.971731 0.341844
vt 0.985388 0.296822
vt 0.990000 0.250000
vt 0.985388 0.203178
vt 0.971731 0.158156
vt 0.949553 0.116663
vt 0.919706 0.080294
vt 0.883337 0.050447
vt 0.841844 0.028269
vt 0.796822 0.014612
vt 0.750000 0.010000
vt 0.703178 0.014612
vt 0.658156 0.028269
vt 0.616663 0.050447
vt 0.580294 0.080294
vt 0.550447 0.116663
vt 0.528269 0.158156
vt 0.514612 0.203178
vt 0.510000 0.250000
vt 0.514612 0.296822
vt 0.528269 0.341844
vt 0.550447 0.383337
vt 0.580294 0.419706
vt 0.616663 0.449553
vt 0.658156 0.471731
vt 0.703178 0.485388
vt 0.500000 0.000000
vt 1.000000 0.000000
vt 0.000000 0.000000
s 0
f 41/20/15 42/21/15 44/22/15 43/23/15
f 43/23/16 44/22/16 46/24/16 45/25/16
f 45/25/17 46/24/17 48/26/17 47/27/17
f 47/27/18 48/26/18 50/28/18 49/29/18
f 49/29/19 50/28/19 52/30/19 51/31/19
f 51/31/20 52/30/20 54/32/20 53/33/20
f 53/33/21 54/32/21 56/34/21 55/35/21
f 55/35/22 56/34/22 58/36/22 57/37/22
f 57/37/23 58/36/23 60/38/23 59/39/23
f 59/39/24 60/38/24 62/40/24 61/41/24
f 61/41/25 62/40/25 64/42/25 63/43/25
f 63/43/26 64/42/26 66/44/26 65/45/26
f 65/45/27 66/44/27 68/46/27 67/47/27
f 67/47/28 68/46/28 70/48/28 69/49/28
f 69/49/29 70/48/29 72/50/29 71/51/29
f 71/51/30 72/50/30 74/52/30 73/53/30
f 73/53/31 74/52/31 76/54/31 75/55/31
f 75/55/32 76/54/32 78/56/32 77/57/32
f 77/57/33 78/56/33 80/58/33 79/59/33
f 79/59/34 80/58/34 82/60/34 81/61/34
f 81/61/35 82/60/35 84/62/35 83/63/35
f 83/63/36 84/62/36 86/64/36 85/65/36
f 85/65/37 86/64/37 88/66/37 87/67/37
f 87/67/38 88/66/38 90/68/38 89/69/38
f 89/69/39 90/68/39 92/70/39 91/71/39
f 91/71/40 92/70/40 94/72/40 93/73/40
f 93/73/41 94/72/41 96/74/41 95/75/41
f 95/75/42 96/74/42 98/76/42 97/77/42
f 97/77/43 98/76/43 100/78/43 99/79/43
f 99/79/44 100/78/44 102/80/44 101/81/44
f 44/82/45 42/83/45 104/84/45 102/85/45 100/86/45 98/87/45 96/88/45 94/89/45 92/90/45 90/91/45 88/92/45 86/93/45 84/94/45 82/95/45 80/96/45 78/97/45 76/98/45 74/99/45 72/100/45 70/101/45 68/102/45 66/103/45 64/104/45 62/105/45 60/106/45 58/107/45 56/108/45 54/109/45 52/110/45 50/111/45 48/112/45 46/113/45
f 101/81/46 102/80/46 104/114/46 103/115/46
f 103/115/47 104/114/47 42/116/47 41/117/47
f 41/118/48 43/119/48 45/120/48 47/121/48 49/122/48 51/123/48 53/124/48 55/125/48 57/126/48 59/127/48 61/128/48 63/129/48 65/130/48 67/131/48 69/132/48 71/133/48 73/134/48 75/135/48 77/136/48 79/137/48 81/138/48 83/139/48 85/140/48 87/141/48 89/142/48 91/143/48 93/144/48 95/145/48 97/146/48 99/147/48 101/148/48 103/149/48
f 117/150/45 106/151/45 108/21/45 118/52/45
f 118/52/49 108/21/49 110/21/49 119/52/49
f 119/52/50 110/21/50 112/21/50 120/52/50
f 120/52/51 112/21/51 114/21/51 121/52/51
f 121/52/52 114/21/52 116/21/52 122/52/52
f 113/116/52 121/52/52 122/52/52 115/116/52
f 111/116/51 120/52/51 121/52/51 113/116/51
f 109/116/50 119/52/50 120/52/50 111/116/50
f 107/116/49 118/52/49 119/52/49 109/116/49
f 105/152/45 117/150/45 118/52/45 107/116/45
f 123/20/31 125/23/31 126/22/31 124/21/31
f 125/23/32 127/25/32 128/24/32 126/22/32
f 127/25/33 129/27/33 130/26/33 128/24/33
f 129/27/34 131/29/34 132/28/34 130/26/34
f 131/29/35 133/31/35 134/30/35 132/28/35
f 133/31/36 135/33/36 136/32/36 134/30/36
f 135/33/37 137/35/37 138/34/37 136/32/37
f 137/35/38 139/37/38 140/36/38 138/34/38
f 139/37/39 141/39/39 142/38/39 140/36/39
f 141/39/40 143/41/40 144/40/40 142/38/40
f 143/41/41 145/43/41 146/42/41 144/40/41
f 145/43/42 147/45/42 148/44/42 146/42/42
f 147/45/43 149/47/43 150/46/43 148/44/43
f 149/47/44 151/49/44 152/48/44 150/46/44
f 151/49/46 153/51/46 154/50/46 152/48/46
f 153/51/47 155/53/47 156/52/47 154/50/47
f 155/53/15 157/55/15 158/54/15 156/52/15
f 157/55/16 159/57/16 160/56/16 158/54/16
f 159/57/17 161/59/17 162/58/17 160/56/17
f 161/59/18 163/61/18 164/60/18 162/58/18
f 163/61/19 165/63/19 166/62/19 164/60/19
f 165/63/20 167/65/20 168/64/20 166/62/20
f 167/65/21 169/67/21 170/66/21 168/64/21
f 169/67/22 171/69/22 172/68/22 170/66/22
f 171/69/23 173/71/23 174/70/23 172/68/23
f 173/71/24 175/73/24 176/72/24 174/70/24
f 175/73/25 177/75/25 178/74/25 176/72/25
f 177/75/26 179/77/26 180/76/26 178/74/26
f 179/77/27 181/79/27 182/78/27 180/76/27
f 181/79/28 183/81/28 184/80/28 182/78/28
f 126/82/48 128/113/48 130/112/48 132/111/48 134/110/48 136/109/48 138/108/48 140/107/48 142/106/48 144/105/48 146/104/48 148/103/48 150/102/48 152/101/48 154/100/48 156/99/48 158/98/48 160/97/48 162/96/48 164/95/48 166/94/48 168/93/48 170/92/48 172/91/48 174/90/48 176/89/48 178/88/48 180/87/48 182/86/48 184/85/48 186/84/48 124/83/48
f 183/81/29 185/115/29 186/114/29 184/80/29
f 185/115/30 123/117/30 124/116/30 186/114/30
f 123/118/45 185/149/45 183/148/45 181/147/45 179/146/45 177/145/45 175/144/45 173/143/45 171/142/45 169/141/45 167/140/45 165/139/45 163/138/45 161/137/45 159/136/45 157/135/45 155/134/45 153/133/45 151/132/45 149/131/45 147/130/45 145/129/45 143/128/45 141/127/45 139/126/45 137/125/45 135/124/45 133/123/45 131/122/45 129/121/45 127/120/45 125/119/45
f 199/150/53 200/52/53 190/21/53 188/151/53
f 200/52/54 201/52/54 192/21/54 190/21/54
f 201/52/55 202/52/55 194/21/55 192/21/55
f 202/52/56 203/52/56 196/21/56 194/21/56
f 203/52/57 204/52/57 198/21/57 196/21/57
f 195/116/57 197/116/57 204/52/57 203/52/57
f 193/116/56 195/116/56 203/52/56 202/52/56
f 191/116/55 193/116/55 202/52/55 201/52/55
f 189/116/54 191/116/54 201/52/54 200/52/54
f 187/152/53 189/116/53 200/52/53 199/150/53
f 105/152/58 107/116/58 189/116/58 187/152/58
f 106/151/59 117/150/59 199/150/59 188/151/59
f 108/21/60 106/151/60 188/151/60 190/21/60
f 110/21/60 108/21/60 190/21/60 192/21/60
f 107/116/58 109/116/58 191/116/58 189/116/58
f 112/21/60 110/21/60 192/21/60 194/21/60
f 109/116/58 111/116/58 193/116/58 191/116/58
f 114/21/60 112/21/60 194/21/60 196/21/60
f 111/116/58 113/116/58 195/116/58 193/116/58
f 115/116/61 122/52/61 204/52/61 197/116/61
f 116/21/60 114/21/60 196/21/60 198/21/60
f 113/116/58 115/116/58 197/116/58 195/116/58
f 117/150/62 105/152/62 187/152/62 199/150/62
f 122/52/61 116/21/61 198/21/61 204/52/61
