# Blender 3.6.5
# www.blender.org
mtllib room.mtl
o Plane
v -5.398290 -0.702709 1.000000
v 5.398290 -0.702709 1.000000
v -5.398290 -0.702709 -1.000000
v 5.398290 -0.702709 -1.000000
v -5.398290 0.037695 -1.000000
v -5.398290 0.037695 1.000000
v 5.398290 0.037695 1.000000
v 5.398290 0.037695 -1.000000
v -5.398290 -0.702709 -0.873563
v 5.398290 -0.702709 -0.873563
v -5.398290 0.037695 -0.873563
v 5.398290 0.037695 -0.873563
v -5.398290 -0.702709 0.875848
v -5.398290 0.037695 0.875848
v 5.398290 -0.702709 0.875848
v 5.398290 0.037695 0.875848
v -5.398290 0.077704 0.875848
v 5.398290 0.077704 -0.873563
v -5.398290 0.077704 -0.873563
v 5.398290 0.077704 0.875848
v -5.398290 0.064857 1.000000
v -5.398290 0.077704 0.987153
v -5.398290 0.073941 0.996237
v 5.398290 0.077704 0.987153
v 5.398290 0.064857 1.000000
v 5.398290 0.073941 0.996237
v 5.398290 0.064857 -1.000000
v 5.398290 0.077704 -0.987153
v 5.398290 0.073941 -0.996237
v -5.398290 0.077704 -0.987153
v -5.398290 0.064857 -1.000000
v -5.398290 0.073941 -0.996237
vn -0.0000 -1.0000 -0.0000
vn -1.0000 -0.0000 -0.0000
vn 1.0000 -0.0000 -0.0000
vn -0.0000 -0.0000 -1.0000
vn -0.0000 -0.0000 1.0000
vn -0.0000 1.0000 -0.0000
vn -0.0000 0.3827 0.9239
vn -0.0000 0.9239 0.3827
vn -0.0000 0.3827 -0.9239
vn -0.0000 0.9239 -0.3827
vt 0.000000 0.936782
vt 0.000000 1.000000
vt 1.000000 1.000000
vt 1.000000 0.936782
vt 0.000000 0.993576
vt 0.000000 0.999373
vt 0.000000 0.062076
vt 0.000000 0.000000
vt 0.000000 0.062076
vt 1.000000 0.000000
vt 1.000000 0.062076
vt 1.000000 0.062076
vt 1.000000 0.993576
vt 0.000000 0.006424
vt 1.000000 0.006424
vt 1.000000 0.999373
vt 1.000000 0.006424
vt 1.000000 0.000627
vt 0.000000 0.000627
vt 0.000000 0.006424
s 0
f 9/1/1 3/2/1 4/3/1 10/4/1
f 5/2/2 11/1/2 19/1/2 30/5/2 32/6/2 31/2/2
f 10/4/3 4/3/3 8/3/3 12/4/3
f 13/7/2 1/8/2 6/8/2 14/9/2
f 4/3/4 3/2/4 5/2/4 8/3/4
f 1/8/5 2/10/5 7/10/5 6/8/5
f 3/2/2 9/1/2 11/1/2 5/2/2
f 15/11/3 10/4/3 12/4/3 16/12/3
f 14/9/6 16/12/6 12/4/6 11/1/6
f 13/7/1 9/1/1 10/4/1 15/11/1
f 1/8/1 13/7/1 15/11/1 2/10/1
f 19/1/6 18/4/6 28/13/6 30/5/6
f 2/10/3 15/11/3 16/12/3 7/10/3
f 9/1/2 13/7/2 14/9/2 11/1/2
f 8/3/4 5/2/4 31/2/4 27/3/4
f 6/8/5 7/10/5 25/10/5 21/8/5
f 22/14/6 24/15/6 20/12/6 17/9/6
f 11/1/5 12/4/5 18/4/5 19/1/5
f 12/4/3 8/3/3 27/3/3 29/16/3 28/13/3 18/4/3
f 7/10/3 16/12/3 20/12/3 24/17/3 26/18/3 25/10/3
f 16/12/4 14/9/4 17/9/4 20/12/4
f 21/8/7 25/10/7 26/18/7 23/19/7
f 23/19/8 26/18/8 24/15/8 22/14/8
f 27/3/9 31/2/9 32/6/9 29/16/9
f 29/16/10 32/6/10 30/5/10 28/13/10
f 14/9/2 6/8/2 21/8/2 23/19/2 22/20/2 17/9/2
o Cube
v -7.158726 -1.000000 19.216312
v -6.911296 -0.718968 18.968882
v -7.158726 -1.000000 -2.285136
v -6.911296 -0.718968 -2.037706
v 7.158726 -1.000000 19.216312
v 6.911296 -0.718968 18.968882
v 7.158726 -1.000000 -2.285136
v 6.911296 -0.718968 -2.037706
v -7.158726 -0.718968 19.216312
v -7.158726 -0.718968 -2.285136
v 7.158726 -0.718968 -2.285136
v 7.158726 -0.718968 19.216312
v -7.158726 7.236094 19.216312
v -7.158726 7.236094 -2.285136
v 7.158726 7.236094 -2.285136
v 7.158726 7.236094 19.216312
v -6.911296 7.236094 18.968882
v -6.911296 7.236094 -2.037706
v 6.911296 7.236094 -2.037706
v 6.911296 7.236094 18.968882
v -7.126199 7.216369 -2.364303
v -7.126201 7.216369 19.295475
v 7.126201 7.216368 -2.364303
v 7.126199 7.216368 19.295479
vn -1.0000 -0.0000 -0.0000
vn -0.0000 -0.0000 -1.0000
vn 1.0000 -0.0000 -0.0000
vn -0.0000 -0.0000 1.0000
vn -0.0000 -1.0000 -0.0000
vn -0.0000 1.0000 -0.0000
vt 0.375000 0.000000
vt 0.625000 0.000000
vt 0.625000 0.250000
vt 0.375000 0.250000
vt 0.625000 0.500000
vt 0.375000 0.500000
vt 0.625000 0.750000
vt 0.375000 0.750000
vt 0.625000 1.000000
vt 0.375000 1.000000
vt 0.125000 0.500000
vt 0.125000 0.750000
vt 0.629320 0.502877
vt 0.870679 0.502877
vt 0.870680 0.747123
vt 0.629320 0.747123
vt 0.875000 0.500000
vt 0.875000 0.750000
s 0
f 33/21/11 41/22/11 42/23/11 35/24/11
f 35/24/12 42/23/12 43/25/12 39/26/12
f 39/26/13 43/25/13 44/27/13 37/28/13
f 37/28/14 44/27/14 41/29/14 33/30/14
f 35/31/15 39/26/15 37/28/15 33/32/15
f 40/33/16 36/34/16 34/35/16 38/36/16
f 44/27/13 43/25/13 47/25/13 48/27/13
f 34/35/13 36/34/13 50/34/13 49/35/13
f 40/33/11 38/36/11 52/36/11 51/33/11
f 43/25/12 42/23/12 46/23/12 47/25/12
f 49/35/16 50/34/16 46/37/16 45/38/16
f 50/34/16 51/33/16 47/25/16 46/37/16
f 51/33/16 52/36/16 48/27/16 47/25/16
f 52/36/16 49/35/16 45/38/16 48/27/16
f 38/36/12 34/35/12 49/35/12 52/36/12
f 36/34/14 40/33/14 51/33/14 50/34/14
f 42/23/11 41/22/11 45/22/11 46/23/11
f 41/29/14 44/27/14 48/27/14 45/29/14
f 56/33/15 54/34/15 53/35/15 55/36/15
